<?xml version="1.0" encoding="utf-8" standalone="no"?>
<!DOCTYPE svg PUBLIC "-//W3C//DTD SVG 1.1//EN"
  "http://www.w3.org/Graphics/SVG/1.1/DTD/svg11.dtd">
<svg xmlns:xlink="http://www.w3.org/1999/xlink" width="460.8pt" height="345.6pt" viewBox="0 0 460.8 345.6" xmlns="http://www.w3.org/2000/svg" version="1.1">
 <metadata>
  <rdf:RDF xmlns:dc="http://purl.org/dc/elements/1.1/" xmlns:cc="http://creativecommons.org/ns#" xmlns:rdf="http://www.w3.org/1999/02/22-rdf-syntax-ns#">
   <cc:Work>
    <dc:type rdf:resource="http://purl.org/dc/dcmitype/StillImage"/>
    <dc:date>2025-07-23T11:22:45.355855</dc:date>
    <dc:format>image/svg+xml</dc:format>
    <dc:creator>
     <cc:Agent>
      <dc:title>Matplotlib v3.9.2, https://matplotlib.org/</dc:title>
     </cc:Agent>
    </dc:creator>
   </cc:Work>
  </rdf:RDF>
 </metadata>
 <defs>
  <style type="text/css">*{stroke-linejoin: round; stroke-linecap: butt}</style>
 </defs>
 <g id="figure_1">
  <g id="patch_1">
   <path d="M 0 345.6 
L 460.8 345.6 
L 460.8 0 
L 0 0 
z
" style="fill: #ffffff"/>
  </g>
  <g id="axes_1">
   <g id="patch_2">
    <path d="M 59.69 295.72 
L 447.84 295.72 
L 447.84 12.96 
L 59.69 12.96 
z
" style="fill: #ffffff"/>
   </g>
   <g id="patch_3">
    <path d="M 77.333182 295.72 
L 81.210804 295.72 
L 81.210804 279.313357 
L 77.333182 279.313357 
z
" clip-path="url(#pf2ac801466)" style="fill: #1f77b4"/>
   </g>
   <g id="patch_4">
    <path d="M 81.210804 295.72 
L 85.088427 295.72 
L 85.088427 276.484626 
L 81.210804 276.484626 
z
" clip-path="url(#pf2ac801466)" style="fill: #1f77b4"/>
   </g>
   <g id="patch_5">
    <path d="M 85.088427 295.72 
L 88.966049 295.72 
L 88.966049 268.564178 
L 85.088427 268.564178 
z
" clip-path="url(#pf2ac801466)" style="fill: #1f77b4"/>
   </g>
   <g id="patch_6">
    <path d="M 88.966049 295.72 
L 92.843671 295.72 
L 92.843671 223.304474 
L 88.966049 223.304474 
z
" clip-path="url(#pf2ac801466)" style="fill: #1f77b4"/>
   </g>
   <g id="patch_7">
    <path d="M 92.843671 295.72 
L 96.721294 295.72 
L 96.721294 200.674622 
L 92.843671 200.674622 
z
" clip-path="url(#pf2ac801466)" style="fill: #1f77b4"/>
   </g>
   <g id="patch_8">
    <path d="M 96.721294 295.72 
L 100.598916 295.72 
L 100.598916 163.335366 
L 96.721294 163.335366 
z
" clip-path="url(#pf2ac801466)" style="fill: #1f77b4"/>
   </g>
   <g id="patch_9">
    <path d="M 100.598916 295.72 
L 104.476538 295.72 
L 104.476538 124.298872 
L 100.598916 124.298872 
z
" clip-path="url(#pf2ac801466)" style="fill: #1f77b4"/>
   </g>
   <g id="patch_10">
    <path d="M 104.476538 295.72 
L 108.354161 295.72 
L 108.354161 71.118719 
L 104.476538 71.118719 
z
" clip-path="url(#pf2ac801466)" style="fill: #1f77b4"/>
   </g>
   <g id="patch_11">
    <path d="M 108.354161 295.72 
L 112.231783 295.72 
L 112.231783 38.305434 
L 108.354161 38.305434 
z
" clip-path="url(#pf2ac801466)" style="fill: #1f77b4"/>
   </g>
   <g id="patch_12">
    <path d="M 112.231783 295.72 
L 116.109406 295.72 
L 116.109406 39.436927 
L 112.231783 39.436927 
z
" clip-path="url(#pf2ac801466)" style="fill: #1f77b4"/>
   </g>
   <g id="patch_13">
    <path d="M 116.109406 295.72 
L 119.987028 295.72 
L 119.987028 26.424762 
L 116.109406 26.424762 
z
" clip-path="url(#pf2ac801466)" style="fill: #1f77b4"/>
   </g>
   <g id="patch_14">
    <path d="M 119.987028 295.72 
L 123.86465 295.72 
L 123.86465 42.831405 
L 119.987028 42.831405 
z
" clip-path="url(#pf2ac801466)" style="fill: #1f77b4"/>
   </g>
   <g id="patch_15">
    <path d="M 123.86465 295.72 
L 127.742273 295.72 
L 127.742273 84.696631 
L 123.86465 84.696631 
z
" clip-path="url(#pf2ac801466)" style="fill: #1f77b4"/>
   </g>
   <g id="patch_16">
    <path d="M 127.742273 295.72 
L 131.619895 295.72 
L 131.619895 102.800512 
L 127.742273 102.800512 
z
" clip-path="url(#pf2ac801466)" style="fill: #1f77b4"/>
   </g>
   <g id="patch_17">
    <path d="M 131.619895 295.72 
L 135.497517 295.72 
L 135.497517 170.124322 
L 131.619895 170.124322 
z
" clip-path="url(#pf2ac801466)" style="fill: #1f77b4"/>
   </g>
   <g id="patch_18">
    <path d="M 135.497517 295.72 
L 139.37514 295.72 
L 139.37514 195.017159 
L 135.497517 195.017159 
z
" clip-path="url(#pf2ac801466)" style="fill: #1f77b4"/>
   </g>
   <g id="patch_19">
    <path d="M 139.37514 295.72 
L 143.252762 295.72 
L 143.252762 227.830444 
L 139.37514 227.830444 
z
" clip-path="url(#pf2ac801466)" style="fill: #1f77b4"/>
   </g>
   <g id="patch_20">
    <path d="M 143.252762 295.72 
L 147.130385 295.72 
L 147.130385 245.934326 
L 143.252762 245.934326 
z
" clip-path="url(#pf2ac801466)" style="fill: #1f77b4"/>
   </g>
   <g id="patch_21">
    <path d="M 147.130385 295.72 
L 151.008007 295.72 
L 151.008007 255.552013 
L 147.130385 255.552013 
z
" clip-path="url(#pf2ac801466)" style="fill: #1f77b4"/>
   </g>
   <g id="patch_22">
    <path d="M 151.008007 295.72 
L 154.885629 295.72 
L 154.885629 269.129924 
L 151.008007 269.129924 
z
" clip-path="url(#pf2ac801466)" style="fill: #1f77b4"/>
   </g>
   <g id="patch_23">
    <path d="M 154.885629 295.72 
L 158.763252 295.72 
L 158.763252 271.958655 
L 154.885629 271.958655 
z
" clip-path="url(#pf2ac801466)" style="fill: #1f77b4"/>
   </g>
   <g id="patch_24">
    <path d="M 158.763252 295.72 
L 162.640874 295.72 
L 162.640874 276.484626 
L 158.763252 276.484626 
z
" clip-path="url(#pf2ac801466)" style="fill: #1f77b4"/>
   </g>
   <g id="patch_25">
    <path d="M 162.640874 295.72 
L 166.518497 295.72 
L 166.518497 279.879104 
L 162.640874 279.879104 
z
" clip-path="url(#pf2ac801466)" style="fill: #1f77b4"/>
   </g>
   <g id="patch_26">
    <path d="M 166.518497 295.72 
L 170.396119 295.72 
L 170.396119 278.181865 
L 166.518497 278.181865 
z
" clip-path="url(#pf2ac801466)" style="fill: #1f77b4"/>
   </g>
   <g id="patch_27">
    <path d="M 170.396119 295.72 
L 174.273741 295.72 
L 174.273741 274.787387 
L 170.396119 274.787387 
z
" clip-path="url(#pf2ac801466)" style="fill: #1f77b4"/>
   </g>
   <g id="patch_28">
    <path d="M 174.273741 295.72 
L 178.151364 295.72 
L 178.151364 265.735446 
L 174.273741 265.735446 
z
" clip-path="url(#pf2ac801466)" style="fill: #1f77b4"/>
   </g>
   <g id="patch_29">
    <path d="M 178.151364 295.72 
L 182.028986 295.72 
L 182.028986 254.986267 
L 178.151364 254.986267 
z
" clip-path="url(#pf2ac801466)" style="fill: #1f77b4"/>
   </g>
   <g id="patch_30">
    <path d="M 182.028986 295.72 
L 185.906608 295.72 
L 185.906608 234.6194 
L 182.028986 234.6194 
z
" clip-path="url(#pf2ac801466)" style="fill: #1f77b4"/>
   </g>
   <g id="patch_31">
    <path d="M 185.906608 295.72 
L 189.784231 295.72 
L 189.784231 243.105594 
L 185.906608 243.105594 
z
" clip-path="url(#pf2ac801466)" style="fill: #1f77b4"/>
   </g>
   <g id="patch_32">
    <path d="M 189.784231 295.72 
L 193.661853 295.72 
L 193.661853 216.515518 
L 189.784231 216.515518 
z
" clip-path="url(#pf2ac801466)" style="fill: #1f77b4"/>
   </g>
   <g id="patch_33">
    <path d="M 193.661853 295.72 
L 197.539476 295.72 
L 197.539476 197.84589 
L 193.661853 197.84589 
z
" clip-path="url(#pf2ac801466)" style="fill: #1f77b4"/>
   </g>
   <g id="patch_34">
    <path d="M 197.539476 295.72 
L 201.417098 295.72 
L 201.417098 205.200592 
L 197.539476 205.200592 
z
" clip-path="url(#pf2ac801466)" style="fill: #1f77b4"/>
   </g>
   <g id="patch_35">
    <path d="M 201.417098 295.72 
L 205.29472 295.72 
L 205.29472 188.79395 
L 201.417098 188.79395 
z
" clip-path="url(#pf2ac801466)" style="fill: #1f77b4"/>
   </g>
   <g id="patch_36">
    <path d="M 205.29472 295.72 
L 209.172343 295.72 
L 209.172343 200.674622 
L 205.29472 200.674622 
z
" clip-path="url(#pf2ac801466)" style="fill: #1f77b4"/>
   </g>
   <g id="patch_37">
    <path d="M 209.172343 295.72 
L 213.049965 295.72 
L 213.049965 214.252533 
L 209.172343 214.252533 
z
" clip-path="url(#pf2ac801466)" style="fill: #1f77b4"/>
   </g>
   <g id="patch_38">
    <path d="M 213.049965 295.72 
L 216.927587 295.72 
L 216.927587 211.989548 
L 213.049965 211.989548 
z
" clip-path="url(#pf2ac801466)" style="fill: #1f77b4"/>
   </g>
   <g id="patch_39">
    <path d="M 216.927587 295.72 
L 220.80521 295.72 
L 220.80521 230.659176 
L 216.927587 230.659176 
z
" clip-path="url(#pf2ac801466)" style="fill: #1f77b4"/>
   </g>
   <g id="patch_40">
    <path d="M 220.80521 295.72 
L 224.682832 295.72 
L 224.682832 247.631565 
L 220.80521 247.631565 
z
" clip-path="url(#pf2ac801466)" style="fill: #1f77b4"/>
   </g>
   <g id="patch_41">
    <path d="M 224.682832 295.72 
L 228.560455 295.72 
L 228.560455 247.631565 
L 224.682832 247.631565 
z
" clip-path="url(#pf2ac801466)" style="fill: #1f77b4"/>
   </g>
   <g id="patch_42">
    <path d="M 228.560455 295.72 
L 232.438077 295.72 
L 232.438077 267.998431 
L 228.560455 267.998431 
z
" clip-path="url(#pf2ac801466)" style="fill: #1f77b4"/>
   </g>
   <g id="patch_43">
    <path d="M 232.438077 295.72 
L 236.315699 295.72 
L 236.315699 269.69567 
L 232.438077 269.69567 
z
" clip-path="url(#pf2ac801466)" style="fill: #1f77b4"/>
   </g>
   <g id="patch_44">
    <path d="M 236.315699 295.72 
L 240.193322 295.72 
L 240.193322 279.313357 
L 236.315699 279.313357 
z
" clip-path="url(#pf2ac801466)" style="fill: #1f77b4"/>
   </g>
   <g id="patch_45">
    <path d="M 240.193322 295.72 
L 244.070944 295.72 
L 244.070944 281.010596 
L 240.193322 281.010596 
z
" clip-path="url(#pf2ac801466)" style="fill: #1f77b4"/>
   </g>
   <g id="patch_46">
    <path d="M 244.070944 295.72 
L 247.948566 295.72 
L 247.948566 279.313357 
L 244.070944 279.313357 
z
" clip-path="url(#pf2ac801466)" style="fill: #1f77b4"/>
   </g>
   <g id="patch_47">
    <path d="M 247.948566 295.72 
L 251.826189 295.72 
L 251.826189 285.536567 
L 247.948566 285.536567 
z
" clip-path="url(#pf2ac801466)" style="fill: #1f77b4"/>
   </g>
   <g id="patch_48">
    <path d="M 251.826189 295.72 
L 255.703811 295.72 
L 255.703811 284.405074 
L 251.826189 284.405074 
z
" clip-path="url(#pf2ac801466)" style="fill: #1f77b4"/>
   </g>
   <g id="patch_49">
    <path d="M 255.703811 295.72 
L 259.581434 295.72 
L 259.581434 284.97082 
L 255.703811 284.97082 
z
" clip-path="url(#pf2ac801466)" style="fill: #1f77b4"/>
   </g>
   <g id="patch_50">
    <path d="M 259.581434 295.72 
L 263.459056 295.72 
L 263.459056 275.91888 
L 259.581434 275.91888 
z
" clip-path="url(#pf2ac801466)" style="fill: #1f77b4"/>
   </g>
   <g id="patch_51">
    <path d="M 263.459056 295.72 
L 267.336678 295.72 
L 267.336678 268.564178 
L 263.459056 268.564178 
z
" clip-path="url(#pf2ac801466)" style="fill: #1f77b4"/>
   </g>
   <g id="patch_52">
    <path d="M 267.336678 295.72 
L 271.214301 295.72 
L 271.214301 267.432685 
L 267.336678 267.432685 
z
" clip-path="url(#pf2ac801466)" style="fill: #1f77b4"/>
   </g>
   <g id="patch_53">
    <path d="M 271.214301 295.72 
L 275.091923 295.72 
L 275.091923 262.340968 
L 271.214301 262.340968 
z
" clip-path="url(#pf2ac801466)" style="fill: #1f77b4"/>
   </g>
   <g id="patch_54">
    <path d="M 275.091923 295.72 
L 278.969545 295.72 
L 278.969545 256.683505 
L 275.091923 256.683505 
z
" clip-path="url(#pf2ac801466)" style="fill: #1f77b4"/>
   </g>
   <g id="patch_55">
    <path d="M 278.969545 295.72 
L 282.847168 295.72 
L 282.847168 239.14537 
L 278.969545 239.14537 
z
" clip-path="url(#pf2ac801466)" style="fill: #1f77b4"/>
   </g>
   <g id="patch_56">
    <path d="M 282.847168 295.72 
L 286.72479 295.72 
L 286.72479 245.368579 
L 282.847168 245.368579 
z
" clip-path="url(#pf2ac801466)" style="fill: #1f77b4"/>
   </g>
   <g id="patch_57">
    <path d="M 286.72479 295.72 
L 290.602413 295.72 
L 290.602413 241.974102 
L 286.72479 241.974102 
z
" clip-path="url(#pf2ac801466)" style="fill: #1f77b4"/>
   </g>
   <g id="patch_58">
    <path d="M 290.602413 295.72 
L 294.480035 295.72 
L 294.480035 241.974102 
L 290.602413 241.974102 
z
" clip-path="url(#pf2ac801466)" style="fill: #1f77b4"/>
   </g>
   <g id="patch_59">
    <path d="M 294.480035 295.72 
L 298.357657 295.72 
L 298.357657 248.763057 
L 294.480035 248.763057 
z
" clip-path="url(#pf2ac801466)" style="fill: #1f77b4"/>
   </g>
   <g id="patch_60">
    <path d="M 298.357657 295.72 
L 302.23528 295.72 
L 302.23528 252.723281 
L 298.357657 252.723281 
z
" clip-path="url(#pf2ac801466)" style="fill: #1f77b4"/>
   </g>
   <g id="patch_61">
    <path d="M 302.23528 295.72 
L 306.112902 295.72 
L 306.112902 266.866939 
L 302.23528 266.866939 
z
" clip-path="url(#pf2ac801466)" style="fill: #1f77b4"/>
   </g>
   <g id="patch_62">
    <path d="M 306.112902 295.72 
L 309.990524 295.72 
L 309.990524 271.392909 
L 306.112902 271.392909 
z
" clip-path="url(#pf2ac801466)" style="fill: #1f77b4"/>
   </g>
   <g id="patch_63">
    <path d="M 309.990524 295.72 
L 313.868147 295.72 
L 313.868147 274.221641 
L 309.990524 274.221641 
z
" clip-path="url(#pf2ac801466)" style="fill: #1f77b4"/>
   </g>
   <g id="patch_64">
    <path d="M 313.868147 295.72 
L 317.745769 295.72 
L 317.745769 271.392909 
L 313.868147 271.392909 
z
" clip-path="url(#pf2ac801466)" style="fill: #1f77b4"/>
   </g>
   <g id="patch_65">
    <path d="M 317.745769 295.72 
L 321.623392 295.72 
L 321.623392 273.090148 
L 317.745769 273.090148 
z
" clip-path="url(#pf2ac801466)" style="fill: #1f77b4"/>
   </g>
   <g id="patch_66">
    <path d="M 321.623392 295.72 
L 325.501014 295.72 
L 325.501014 280.44485 
L 321.623392 280.44485 
z
" clip-path="url(#pf2ac801466)" style="fill: #1f77b4"/>
   </g>
   <g id="patch_67">
    <path d="M 325.501014 295.72 
L 329.378636 295.72 
L 329.378636 280.44485 
L 325.501014 280.44485 
z
" clip-path="url(#pf2ac801466)" style="fill: #1f77b4"/>
   </g>
   <g id="patch_68">
    <path d="M 329.378636 295.72 
L 333.256259 295.72 
L 333.256259 286.102313 
L 329.378636 286.102313 
z
" clip-path="url(#pf2ac801466)" style="fill: #1f77b4"/>
   </g>
   <g id="patch_69">
    <path d="M 333.256259 295.72 
L 337.133881 295.72 
L 337.133881 280.44485 
L 333.256259 280.44485 
z
" clip-path="url(#pf2ac801466)" style="fill: #1f77b4"/>
   </g>
   <g id="patch_70">
    <path d="M 337.133881 295.72 
L 341.011503 295.72 
L 341.011503 284.97082 
L 337.133881 284.97082 
z
" clip-path="url(#pf2ac801466)" style="fill: #1f77b4"/>
   </g>
   <g id="patch_71">
    <path d="M 341.011503 295.72 
L 344.889126 295.72 
L 344.889126 283.839328 
L 341.011503 283.839328 
z
" clip-path="url(#pf2ac801466)" style="fill: #1f77b4"/>
   </g>
   <g id="patch_72">
    <path d="M 344.889126 295.72 
L 348.766748 295.72 
L 348.766748 288.365298 
L 344.889126 288.365298 
z
" clip-path="url(#pf2ac801466)" style="fill: #1f77b4"/>
   </g>
   <g id="patch_73">
    <path d="M 348.766748 295.72 
L 352.644371 295.72 
L 352.644371 283.273581 
L 348.766748 283.273581 
z
" clip-path="url(#pf2ac801466)" style="fill: #1f77b4"/>
   </g>
   <g id="patch_74">
    <path d="M 352.644371 295.72 
L 356.521993 295.72 
L 356.521993 276.484626 
L 352.644371 276.484626 
z
" clip-path="url(#pf2ac801466)" style="fill: #1f77b4"/>
   </g>
   <g id="patch_75">
    <path d="M 356.521993 295.72 
L 360.399615 295.72 
L 360.399615 279.879104 
L 356.521993 279.879104 
z
" clip-path="url(#pf2ac801466)" style="fill: #1f77b4"/>
   </g>
   <g id="patch_76">
    <path d="M 360.399615 295.72 
L 364.277238 295.72 
L 364.277238 274.787387 
L 360.399615 274.787387 
z
" clip-path="url(#pf2ac801466)" style="fill: #1f77b4"/>
   </g>
   <g id="patch_77">
    <path d="M 364.277238 295.72 
L 368.15486 295.72 
L 368.15486 274.221641 
L 364.277238 274.221641 
z
" clip-path="url(#pf2ac801466)" style="fill: #1f77b4"/>
   </g>
   <g id="patch_78">
    <path d="M 368.15486 295.72 
L 372.032483 295.72 
L 372.032483 264.038207 
L 368.15486 264.038207 
z
" clip-path="url(#pf2ac801466)" style="fill: #1f77b4"/>
   </g>
   <g id="patch_79">
    <path d="M 372.032483 295.72 
L 375.910105 295.72 
L 375.910105 269.129924 
L 372.032483 269.129924 
z
" clip-path="url(#pf2ac801466)" style="fill: #1f77b4"/>
   </g>
   <g id="patch_80">
    <path d="M 375.910105 295.72 
L 379.787727 295.72 
L 379.787727 271.392909 
L 375.910105 271.392909 
z
" clip-path="url(#pf2ac801466)" style="fill: #1f77b4"/>
   </g>
   <g id="patch_81">
    <path d="M 379.787727 295.72 
L 383.66535 295.72 
L 383.66535 256.683505 
L 379.787727 256.683505 
z
" clip-path="url(#pf2ac801466)" style="fill: #1f77b4"/>
   </g>
   <g id="patch_82">
    <path d="M 383.66535 295.72 
L 387.542972 295.72 
L 387.542972 271.958655 
L 383.66535 271.958655 
z
" clip-path="url(#pf2ac801466)" style="fill: #1f77b4"/>
   </g>
   <g id="patch_83">
    <path d="M 387.542972 295.72 
L 391.420594 295.72 
L 391.420594 273.655894 
L 387.542972 273.655894 
z
" clip-path="url(#pf2ac801466)" style="fill: #1f77b4"/>
   </g>
   <g id="patch_84">
    <path d="M 391.420594 295.72 
L 395.298217 295.72 
L 395.298217 279.879104 
L 391.420594 279.879104 
z
" clip-path="url(#pf2ac801466)" style="fill: #1f77b4"/>
   </g>
   <g id="patch_85">
    <path d="M 395.298217 295.72 
L 399.175839 295.72 
L 399.175839 282.707835 
L 395.298217 282.707835 
z
" clip-path="url(#pf2ac801466)" style="fill: #1f77b4"/>
   </g>
   <g id="patch_86">
    <path d="M 399.175839 295.72 
L 403.053462 295.72 
L 403.053462 281.576343 
L 399.175839 281.576343 
z
" clip-path="url(#pf2ac801466)" style="fill: #1f77b4"/>
   </g>
   <g id="patch_87">
    <path d="M 403.053462 295.72 
L 406.931084 295.72 
L 406.931084 281.010596 
L 403.053462 281.010596 
z
" clip-path="url(#pf2ac801466)" style="fill: #1f77b4"/>
   </g>
   <g id="patch_88">
    <path d="M 406.931084 295.72 
L 410.808706 295.72 
L 410.808706 282.142089 
L 406.931084 282.142089 
z
" clip-path="url(#pf2ac801466)" style="fill: #1f77b4"/>
   </g>
   <g id="patch_89">
    <path d="M 410.808706 295.72 
L 414.686329 295.72 
L 414.686329 280.44485 
L 410.808706 280.44485 
z
" clip-path="url(#pf2ac801466)" style="fill: #1f77b4"/>
   </g>
   <g id="patch_90">
    <path d="M 414.686329 295.72 
L 418.563951 295.72 
L 418.563951 288.365298 
L 414.686329 288.365298 
z
" clip-path="url(#pf2ac801466)" style="fill: #1f77b4"/>
   </g>
   <g id="patch_91">
    <path d="M 418.563951 295.72 
L 422.441573 295.72 
L 422.441573 283.839328 
L 418.563951 283.839328 
z
" clip-path="url(#pf2ac801466)" style="fill: #1f77b4"/>
   </g>
   <g id="patch_92">
    <path d="M 422.441573 295.72 
L 426.319196 295.72 
L 426.319196 284.97082 
L 422.441573 284.97082 
z
" clip-path="url(#pf2ac801466)" style="fill: #1f77b4"/>
   </g>
   <g id="patch_93">
    <path d="M 426.319196 295.72 
L 430.196818 295.72 
L 430.196818 287.799552 
L 426.319196 287.799552 
z
" clip-path="url(#pf2ac801466)" style="fill: #1f77b4"/>
   </g>
   <g id="matplotlib.axis_1">
    <g id="xtick_1">
     <g id="line2d_1">
      <path d="M 82.458397 295.72 
L 82.458397 12.96 
" clip-path="url(#pf2ac801466)" style="fill: none; stroke: #b0b0b0; stroke-width: 0.8; stroke-linecap: square"/>
     </g>
     <g id="line2d_2">
      <defs>
       <path id="m8c34504ec6" d="M 0 0 
L 0 3.5 
" style="stroke: #000000; stroke-width: 0.8"/>
      </defs>
      <g>
       <use xlink:href="#m8c34504ec6" x="82.458397" y="295.72" style="stroke: #000000; stroke-width: 0.8"/>
      </g>
     </g>
     <g id="text_1">
      <!-- 0.005 -->
      <g transform="translate(65.281522 311.838125) scale(0.12 -0.12)">
       <defs>
        <path id="DejaVuSans-30" d="M 2034 4250 
Q 1547 4250 1301 3770 
Q 1056 3291 1056 2328 
Q 1056 1369 1301 889 
Q 1547 409 2034 409 
Q 2525 409 2770 889 
Q 3016 1369 3016 2328 
Q 3016 3291 2770 3770 
Q 2525 4250 2034 4250 
z
M 2034 4750 
Q 2819 4750 3233 4129 
Q 3647 3509 3647 2328 
Q 3647 1150 3233 529 
Q 2819 -91 2034 -91 
Q 1250 -91 836 529 
Q 422 1150 422 2328 
Q 422 3509 836 4129 
Q 1250 4750 2034 4750 
z
" transform="scale(0.015625)"/>
        <path id="DejaVuSans-2e" d="M 684 794 
L 1344 794 
L 1344 0 
L 684 0 
L 684 794 
z
" transform="scale(0.015625)"/>
        <path id="DejaVuSans-35" d="M 691 4666 
L 3169 4666 
L 3169 4134 
L 1269 4134 
L 1269 2991 
Q 1406 3038 1543 3061 
Q 1681 3084 1819 3084 
Q 2600 3084 3056 2656 
Q 3513 2228 3513 1497 
Q 3513 744 3044 326 
Q 2575 -91 1722 -91 
Q 1428 -91 1123 -41 
Q 819 9 494 109 
L 494 744 
Q 775 591 1075 516 
Q 1375 441 1709 441 
Q 2250 441 2565 725 
Q 2881 1009 2881 1497 
Q 2881 1984 2565 2268 
Q 2250 2553 1709 2553 
Q 1456 2553 1204 2497 
Q 953 2441 691 2322 
L 691 4666 
z
" transform="scale(0.015625)"/>
       </defs>
       <use xlink:href="#DejaVuSans-30"/>
       <use xlink:href="#DejaVuSans-2e" x="63.623047"/>
       <use xlink:href="#DejaVuSans-30" x="95.410156"/>
       <use xlink:href="#DejaVuSans-30" x="159.033203"/>
       <use xlink:href="#DejaVuSans-35" x="222.65625"/>
      </g>
     </g>
    </g>
    <g id="xtick_2">
     <g id="line2d_3">
      <path d="M 137.127166 295.72 
L 137.127166 12.96 
" clip-path="url(#pf2ac801466)" style="fill: none; stroke: #b0b0b0; stroke-width: 0.8; stroke-linecap: square"/>
     </g>
     <g id="line2d_4">
      <g>
       <use xlink:href="#m8c34504ec6" x="137.127166" y="295.72" style="stroke: #000000; stroke-width: 0.8"/>
      </g>
     </g>
     <g id="text_2">
      <!-- 0.010 -->
      <g transform="translate(119.950291 311.838125) scale(0.12 -0.12)">
       <defs>
        <path id="DejaVuSans-31" d="M 794 531 
L 1825 531 
L 1825 4091 
L 703 3866 
L 703 4441 
L 1819 4666 
L 2450 4666 
L 2450 531 
L 3481 531 
L 3481 0 
L 794 0 
L 794 531 
z
" transform="scale(0.015625)"/>
       </defs>
       <use xlink:href="#DejaVuSans-30"/>
       <use xlink:href="#DejaVuSans-2e" x="63.623047"/>
       <use xlink:href="#DejaVuSans-30" x="95.410156"/>
       <use xlink:href="#DejaVuSans-31" x="159.033203"/>
       <use xlink:href="#DejaVuSans-30" x="222.65625"/>
      </g>
     </g>
    </g>
    <g id="xtick_3">
     <g id="line2d_5">
      <path d="M 191.795935 295.72 
L 191.795935 12.96 
" clip-path="url(#pf2ac801466)" style="fill: none; stroke: #b0b0b0; stroke-width: 0.8; stroke-linecap: square"/>
     </g>
     <g id="line2d_6">
      <g>
       <use xlink:href="#m8c34504ec6" x="191.795935" y="295.72" style="stroke: #000000; stroke-width: 0.8"/>
      </g>
     </g>
     <g id="text_3">
      <!-- 0.015 -->
      <g transform="translate(174.61906 311.838125) scale(0.12 -0.12)">
       <use xlink:href="#DejaVuSans-30"/>
       <use xlink:href="#DejaVuSans-2e" x="63.623047"/>
       <use xlink:href="#DejaVuSans-30" x="95.410156"/>
       <use xlink:href="#DejaVuSans-31" x="159.033203"/>
       <use xlink:href="#DejaVuSans-35" x="222.65625"/>
      </g>
     </g>
    </g>
    <g id="xtick_4">
     <g id="line2d_7">
      <path d="M 246.464703 295.72 
L 246.464703 12.96 
" clip-path="url(#pf2ac801466)" style="fill: none; stroke: #b0b0b0; stroke-width: 0.8; stroke-linecap: square"/>
     </g>
     <g id="line2d_8">
      <g>
       <use xlink:href="#m8c34504ec6" x="246.464703" y="295.72" style="stroke: #000000; stroke-width: 0.8"/>
      </g>
     </g>
     <g id="text_4">
      <!-- 0.020 -->
      <g transform="translate(229.287828 311.838125) scale(0.12 -0.12)">
       <defs>
        <path id="DejaVuSans-32" d="M 1228 531 
L 3431 531 
L 3431 0 
L 469 0 
L 469 531 
Q 828 903 1448 1529 
Q 2069 2156 2228 2338 
Q 2531 2678 2651 2914 
Q 2772 3150 2772 3378 
Q 2772 3750 2511 3984 
Q 2250 4219 1831 4219 
Q 1534 4219 1204 4116 
Q 875 4013 500 3803 
L 500 4441 
Q 881 4594 1212 4672 
Q 1544 4750 1819 4750 
Q 2544 4750 2975 4387 
Q 3406 4025 3406 3419 
Q 3406 3131 3298 2873 
Q 3191 2616 2906 2266 
Q 2828 2175 2409 1742 
Q 1991 1309 1228 531 
z
" transform="scale(0.015625)"/>
       </defs>
       <use xlink:href="#DejaVuSans-30"/>
       <use xlink:href="#DejaVuSans-2e" x="63.623047"/>
       <use xlink:href="#DejaVuSans-30" x="95.410156"/>
       <use xlink:href="#DejaVuSans-32" x="159.033203"/>
       <use xlink:href="#DejaVuSans-30" x="222.65625"/>
      </g>
     </g>
    </g>
    <g id="xtick_5">
     <g id="line2d_9">
      <path d="M 301.133472 295.72 
L 301.133472 12.96 
" clip-path="url(#pf2ac801466)" style="fill: none; stroke: #b0b0b0; stroke-width: 0.8; stroke-linecap: square"/>
     </g>
     <g id="line2d_10">
      <g>
       <use xlink:href="#m8c34504ec6" x="301.133472" y="295.72" style="stroke: #000000; stroke-width: 0.8"/>
      </g>
     </g>
     <g id="text_5">
      <!-- 0.025 -->
      <g transform="translate(283.956597 311.838125) scale(0.12 -0.12)">
       <use xlink:href="#DejaVuSans-30"/>
       <use xlink:href="#DejaVuSans-2e" x="63.623047"/>
       <use xlink:href="#DejaVuSans-30" x="95.410156"/>
       <use xlink:href="#DejaVuSans-32" x="159.033203"/>
       <use xlink:href="#DejaVuSans-35" x="222.65625"/>
      </g>
     </g>
    </g>
    <g id="xtick_6">
     <g id="line2d_11">
      <path d="M 355.802241 295.72 
L 355.802241 12.96 
" clip-path="url(#pf2ac801466)" style="fill: none; stroke: #b0b0b0; stroke-width: 0.8; stroke-linecap: square"/>
     </g>
     <g id="line2d_12">
      <g>
       <use xlink:href="#m8c34504ec6" x="355.802241" y="295.72" style="stroke: #000000; stroke-width: 0.8"/>
      </g>
     </g>
     <g id="text_6">
      <!-- 0.030 -->
      <g transform="translate(338.625366 311.838125) scale(0.12 -0.12)">
       <defs>
        <path id="DejaVuSans-33" d="M 2597 2516 
Q 3050 2419 3304 2112 
Q 3559 1806 3559 1356 
Q 3559 666 3084 287 
Q 2609 -91 1734 -91 
Q 1441 -91 1130 -33 
Q 819 25 488 141 
L 488 750 
Q 750 597 1062 519 
Q 1375 441 1716 441 
Q 2309 441 2620 675 
Q 2931 909 2931 1356 
Q 2931 1769 2642 2001 
Q 2353 2234 1838 2234 
L 1294 2234 
L 1294 2753 
L 1863 2753 
Q 2328 2753 2575 2939 
Q 2822 3125 2822 3475 
Q 2822 3834 2567 4026 
Q 2313 4219 1838 4219 
Q 1578 4219 1281 4162 
Q 984 4106 628 3988 
L 628 4550 
Q 988 4650 1302 4700 
Q 1616 4750 1894 4750 
Q 2613 4750 3031 4423 
Q 3450 4097 3450 3541 
Q 3450 3153 3228 2886 
Q 3006 2619 2597 2516 
z
" transform="scale(0.015625)"/>
       </defs>
       <use xlink:href="#DejaVuSans-30"/>
       <use xlink:href="#DejaVuSans-2e" x="63.623047"/>
       <use xlink:href="#DejaVuSans-30" x="95.410156"/>
       <use xlink:href="#DejaVuSans-33" x="159.033203"/>
       <use xlink:href="#DejaVuSans-30" x="222.65625"/>
      </g>
     </g>
    </g>
    <g id="xtick_7">
     <g id="line2d_13">
      <path d="M 410.47101 295.72 
L 410.47101 12.96 
" clip-path="url(#pf2ac801466)" style="fill: none; stroke: #b0b0b0; stroke-width: 0.8; stroke-linecap: square"/>
     </g>
     <g id="line2d_14">
      <g>
       <use xlink:href="#m8c34504ec6" x="410.47101" y="295.72" style="stroke: #000000; stroke-width: 0.8"/>
      </g>
     </g>
     <g id="text_7">
      <!-- 0.035 -->
      <g transform="translate(393.294135 311.838125) scale(0.12 -0.12)">
       <use xlink:href="#DejaVuSans-30"/>
       <use xlink:href="#DejaVuSans-2e" x="63.623047"/>
       <use xlink:href="#DejaVuSans-30" x="95.410156"/>
       <use xlink:href="#DejaVuSans-33" x="159.033203"/>
       <use xlink:href="#DejaVuSans-35" x="222.65625"/>
      </g>
     </g>
    </g>
    <g id="text_8">
     <!-- Pulse Amplitude [V] -->
     <g transform="translate(194.618125 327.451875) scale(0.12 -0.12)">
      <defs>
       <path id="DejaVuSans-50" d="M 1259 4147 
L 1259 2394 
L 2053 2394 
Q 2494 2394 2734 2622 
Q 2975 2850 2975 3272 
Q 2975 3691 2734 3919 
Q 2494 4147 2053 4147 
L 1259 4147 
z
M 628 4666 
L 2053 4666 
Q 2838 4666 3239 4311 
Q 3641 3956 3641 3272 
Q 3641 2581 3239 2228 
Q 2838 1875 2053 1875 
L 1259 1875 
L 1259 0 
L 628 0 
L 628 4666 
z
" transform="scale(0.015625)"/>
       <path id="DejaVuSans-75" d="M 544 1381 
L 544 3500 
L 1119 3500 
L 1119 1403 
Q 1119 906 1312 657 
Q 1506 409 1894 409 
Q 2359 409 2629 706 
Q 2900 1003 2900 1516 
L 2900 3500 
L 3475 3500 
L 3475 0 
L 2900 0 
L 2900 538 
Q 2691 219 2414 64 
Q 2138 -91 1772 -91 
Q 1169 -91 856 284 
Q 544 659 544 1381 
z
M 1991 3584 
L 1991 3584 
z
" transform="scale(0.015625)"/>
       <path id="DejaVuSans-6c" d="M 603 4863 
L 1178 4863 
L 1178 0 
L 603 0 
L 603 4863 
z
" transform="scale(0.015625)"/>
       <path id="DejaVuSans-73" d="M 2834 3397 
L 2834 2853 
Q 2591 2978 2328 3040 
Q 2066 3103 1784 3103 
Q 1356 3103 1142 2972 
Q 928 2841 928 2578 
Q 928 2378 1081 2264 
Q 1234 2150 1697 2047 
L 1894 2003 
Q 2506 1872 2764 1633 
Q 3022 1394 3022 966 
Q 3022 478 2636 193 
Q 2250 -91 1575 -91 
Q 1294 -91 989 -36 
Q 684 19 347 128 
L 347 722 
Q 666 556 975 473 
Q 1284 391 1588 391 
Q 1994 391 2212 530 
Q 2431 669 2431 922 
Q 2431 1156 2273 1281 
Q 2116 1406 1581 1522 
L 1381 1569 
Q 847 1681 609 1914 
Q 372 2147 372 2553 
Q 372 3047 722 3315 
Q 1072 3584 1716 3584 
Q 2034 3584 2315 3537 
Q 2597 3491 2834 3397 
z
" transform="scale(0.015625)"/>
       <path id="DejaVuSans-65" d="M 3597 1894 
L 3597 1613 
L 953 1613 
Q 991 1019 1311 708 
Q 1631 397 2203 397 
Q 2534 397 2845 478 
Q 3156 559 3463 722 
L 3463 178 
Q 3153 47 2828 -22 
Q 2503 -91 2169 -91 
Q 1331 -91 842 396 
Q 353 884 353 1716 
Q 353 2575 817 3079 
Q 1281 3584 2069 3584 
Q 2775 3584 3186 3129 
Q 3597 2675 3597 1894 
z
M 3022 2063 
Q 3016 2534 2758 2815 
Q 2500 3097 2075 3097 
Q 1594 3097 1305 2825 
Q 1016 2553 972 2059 
L 3022 2063 
z
" transform="scale(0.015625)"/>
       <path id="DejaVuSans-20" transform="scale(0.015625)"/>
       <path id="DejaVuSans-41" d="M 2188 4044 
L 1331 1722 
L 3047 1722 
L 2188 4044 
z
M 1831 4666 
L 2547 4666 
L 4325 0 
L 3669 0 
L 3244 1197 
L 1141 1197 
L 716 0 
L 50 0 
L 1831 4666 
z
" transform="scale(0.015625)"/>
       <path id="DejaVuSans-6d" d="M 3328 2828 
Q 3544 3216 3844 3400 
Q 4144 3584 4550 3584 
Q 5097 3584 5394 3201 
Q 5691 2819 5691 2113 
L 5691 0 
L 5113 0 
L 5113 2094 
Q 5113 2597 4934 2840 
Q 4756 3084 4391 3084 
Q 3944 3084 3684 2787 
Q 3425 2491 3425 1978 
L 3425 0 
L 2847 0 
L 2847 2094 
Q 2847 2600 2669 2842 
Q 2491 3084 2119 3084 
Q 1678 3084 1418 2786 
Q 1159 2488 1159 1978 
L 1159 0 
L 581 0 
L 581 3500 
L 1159 3500 
L 1159 2956 
Q 1356 3278 1631 3431 
Q 1906 3584 2284 3584 
Q 2666 3584 2933 3390 
Q 3200 3197 3328 2828 
z
" transform="scale(0.015625)"/>
       <path id="DejaVuSans-70" d="M 1159 525 
L 1159 -1331 
L 581 -1331 
L 581 3500 
L 1159 3500 
L 1159 2969 
Q 1341 3281 1617 3432 
Q 1894 3584 2278 3584 
Q 2916 3584 3314 3078 
Q 3713 2572 3713 1747 
Q 3713 922 3314 415 
Q 2916 -91 2278 -91 
Q 1894 -91 1617 61 
Q 1341 213 1159 525 
z
M 3116 1747 
Q 3116 2381 2855 2742 
Q 2594 3103 2138 3103 
Q 1681 3103 1420 2742 
Q 1159 2381 1159 1747 
Q 1159 1113 1420 752 
Q 1681 391 2138 391 
Q 2594 391 2855 752 
Q 3116 1113 3116 1747 
z
" transform="scale(0.015625)"/>
       <path id="DejaVuSans-69" d="M 603 3500 
L 1178 3500 
L 1178 0 
L 603 0 
L 603 3500 
z
M 603 4863 
L 1178 4863 
L 1178 4134 
L 603 4134 
L 603 4863 
z
" transform="scale(0.015625)"/>
       <path id="DejaVuSans-74" d="M 1172 4494 
L 1172 3500 
L 2356 3500 
L 2356 3053 
L 1172 3053 
L 1172 1153 
Q 1172 725 1289 603 
Q 1406 481 1766 481 
L 2356 481 
L 2356 0 
L 1766 0 
Q 1100 0 847 248 
Q 594 497 594 1153 
L 594 3053 
L 172 3053 
L 172 3500 
L 594 3500 
L 594 4494 
L 1172 4494 
z
" transform="scale(0.015625)"/>
       <path id="DejaVuSans-64" d="M 2906 2969 
L 2906 4863 
L 3481 4863 
L 3481 0 
L 2906 0 
L 2906 525 
Q 2725 213 2448 61 
Q 2172 -91 1784 -91 
Q 1150 -91 751 415 
Q 353 922 353 1747 
Q 353 2572 751 3078 
Q 1150 3584 1784 3584 
Q 2172 3584 2448 3432 
Q 2725 3281 2906 2969 
z
M 947 1747 
Q 947 1113 1208 752 
Q 1469 391 1925 391 
Q 2381 391 2643 752 
Q 2906 1113 2906 1747 
Q 2906 2381 2643 2742 
Q 2381 3103 1925 3103 
Q 1469 3103 1208 2742 
Q 947 2381 947 1747 
z
" transform="scale(0.015625)"/>
       <path id="DejaVuSans-5b" d="M 550 4863 
L 1875 4863 
L 1875 4416 
L 1125 4416 
L 1125 -397 
L 1875 -397 
L 1875 -844 
L 550 -844 
L 550 4863 
z
" transform="scale(0.015625)"/>
       <path id="DejaVuSans-56" d="M 1831 0 
L 50 4666 
L 709 4666 
L 2188 738 
L 3669 4666 
L 4325 4666 
L 2547 0 
L 1831 0 
z
" transform="scale(0.015625)"/>
       <path id="DejaVuSans-5d" d="M 1947 4863 
L 1947 -844 
L 622 -844 
L 622 -397 
L 1369 -397 
L 1369 4416 
L 622 4416 
L 622 4863 
L 1947 4863 
z
" transform="scale(0.015625)"/>
      </defs>
      <use xlink:href="#DejaVuSans-50"/>
      <use xlink:href="#DejaVuSans-75" x="58.552734"/>
      <use xlink:href="#DejaVuSans-6c" x="121.931641"/>
      <use xlink:href="#DejaVuSans-73" x="149.714844"/>
      <use xlink:href="#DejaVuSans-65" x="201.814453"/>
      <use xlink:href="#DejaVuSans-20" x="263.337891"/>
      <use xlink:href="#DejaVuSans-41" x="295.125"/>
      <use xlink:href="#DejaVuSans-6d" x="363.533203"/>
      <use xlink:href="#DejaVuSans-70" x="460.945312"/>
      <use xlink:href="#DejaVuSans-6c" x="524.421875"/>
      <use xlink:href="#DejaVuSans-69" x="552.205078"/>
      <use xlink:href="#DejaVuSans-74" x="579.988281"/>
      <use xlink:href="#DejaVuSans-75" x="619.197266"/>
      <use xlink:href="#DejaVuSans-64" x="682.576172"/>
      <use xlink:href="#DejaVuSans-65" x="746.052734"/>
      <use xlink:href="#DejaVuSans-20" x="807.576172"/>
      <use xlink:href="#DejaVuSans-5b" x="839.363281"/>
      <use xlink:href="#DejaVuSans-56" x="878.376953"/>
      <use xlink:href="#DejaVuSans-5d" x="946.785156"/>
     </g>
    </g>
   </g>
   <g id="matplotlib.axis_2">
    <g id="ytick_1">
     <g id="line2d_15">
      <path d="M 59.69 295.72 
L 447.84 295.72 
" clip-path="url(#pf2ac801466)" style="fill: none; stroke: #b0b0b0; stroke-width: 0.8; stroke-linecap: square"/>
     </g>
     <g id="line2d_16">
      <defs>
       <path id="mf6e3143c1f" d="M 0 0 
L -3.5 0 
" style="stroke: #000000; stroke-width: 0.8"/>
      </defs>
      <g>
       <use xlink:href="#mf6e3143c1f" x="59.69" y="295.72" style="stroke: #000000; stroke-width: 0.8"/>
      </g>
     </g>
     <g id="text_9">
      <!-- 0 -->
      <g transform="translate(45.055 300.279063) scale(0.12 -0.12)">
       <use xlink:href="#DejaVuSans-30"/>
      </g>
     </g>
    </g>
    <g id="ytick_2">
     <g id="line2d_17">
      <path d="M 59.69 239.14537 
L 447.84 239.14537 
" clip-path="url(#pf2ac801466)" style="fill: none; stroke: #b0b0b0; stroke-width: 0.8; stroke-linecap: square"/>
     </g>
     <g id="line2d_18">
      <g>
       <use xlink:href="#mf6e3143c1f" x="59.69" y="239.14537" style="stroke: #000000; stroke-width: 0.8"/>
      </g>
     </g>
     <g id="text_10">
      <!-- 100 -->
      <g transform="translate(29.785 243.704433) scale(0.12 -0.12)">
       <use xlink:href="#DejaVuSans-31"/>
       <use xlink:href="#DejaVuSans-30" x="63.623047"/>
       <use xlink:href="#DejaVuSans-30" x="127.246094"/>
      </g>
     </g>
    </g>
    <g id="ytick_3">
     <g id="line2d_19">
      <path d="M 59.69 182.57074 
L 447.84 182.57074 
" clip-path="url(#pf2ac801466)" style="fill: none; stroke: #b0b0b0; stroke-width: 0.8; stroke-linecap: square"/>
     </g>
     <g id="line2d_20">
      <g>
       <use xlink:href="#mf6e3143c1f" x="59.69" y="182.57074" style="stroke: #000000; stroke-width: 0.8"/>
      </g>
     </g>
     <g id="text_11">
      <!-- 200 -->
      <g transform="translate(29.785 187.129803) scale(0.12 -0.12)">
       <use xlink:href="#DejaVuSans-32"/>
       <use xlink:href="#DejaVuSans-30" x="63.623047"/>
       <use xlink:href="#DejaVuSans-30" x="127.246094"/>
      </g>
     </g>
    </g>
    <g id="ytick_4">
     <g id="line2d_21">
      <path d="M 59.69 125.99611 
L 447.84 125.99611 
" clip-path="url(#pf2ac801466)" style="fill: none; stroke: #b0b0b0; stroke-width: 0.8; stroke-linecap: square"/>
     </g>
     <g id="line2d_22">
      <g>
       <use xlink:href="#mf6e3143c1f" x="59.69" y="125.99611" style="stroke: #000000; stroke-width: 0.8"/>
      </g>
     </g>
     <g id="text_12">
      <!-- 300 -->
      <g transform="translate(29.785 130.555173) scale(0.12 -0.12)">
       <use xlink:href="#DejaVuSans-33"/>
       <use xlink:href="#DejaVuSans-30" x="63.623047"/>
       <use xlink:href="#DejaVuSans-30" x="127.246094"/>
      </g>
     </g>
    </g>
    <g id="ytick_5">
     <g id="line2d_23">
      <path d="M 59.69 69.421481 
L 447.84 69.421481 
" clip-path="url(#pf2ac801466)" style="fill: none; stroke: #b0b0b0; stroke-width: 0.8; stroke-linecap: square"/>
     </g>
     <g id="line2d_24">
      <g>
       <use xlink:href="#mf6e3143c1f" x="59.69" y="69.421481" style="stroke: #000000; stroke-width: 0.8"/>
      </g>
     </g>
     <g id="text_13">
      <!-- 400 -->
      <g transform="translate(29.785 73.980543) scale(0.12 -0.12)">
       <defs>
        <path id="DejaVuSans-34" d="M 2419 4116 
L 825 1625 
L 2419 1625 
L 2419 4116 
z
M 2253 4666 
L 3047 4666 
L 3047 1625 
L 3713 1625 
L 3713 1100 
L 3047 1100 
L 3047 0 
L 2419 0 
L 2419 1100 
L 313 1100 
L 313 1709 
L 2253 4666 
z
" transform="scale(0.015625)"/>
       </defs>
       <use xlink:href="#DejaVuSans-34"/>
       <use xlink:href="#DejaVuSans-30" x="63.623047"/>
       <use xlink:href="#DejaVuSans-30" x="127.246094"/>
      </g>
     </g>
    </g>
    <g id="text_14">
     <!-- Counts -->
     <g transform="translate(23.289375 175.28375) rotate(-90) scale(0.12 -0.12)">
      <defs>
       <path id="DejaVuSans-43" d="M 4122 4306 
L 4122 3641 
Q 3803 3938 3442 4084 
Q 3081 4231 2675 4231 
Q 1875 4231 1450 3742 
Q 1025 3253 1025 2328 
Q 1025 1406 1450 917 
Q 1875 428 2675 428 
Q 3081 428 3442 575 
Q 3803 722 4122 1019 
L 4122 359 
Q 3791 134 3420 21 
Q 3050 -91 2638 -91 
Q 1578 -91 968 557 
Q 359 1206 359 2328 
Q 359 3453 968 4101 
Q 1578 4750 2638 4750 
Q 3056 4750 3426 4639 
Q 3797 4528 4122 4306 
z
" transform="scale(0.015625)"/>
       <path id="DejaVuSans-6f" d="M 1959 3097 
Q 1497 3097 1228 2736 
Q 959 2375 959 1747 
Q 959 1119 1226 758 
Q 1494 397 1959 397 
Q 2419 397 2687 759 
Q 2956 1122 2956 1747 
Q 2956 2369 2687 2733 
Q 2419 3097 1959 3097 
z
M 1959 3584 
Q 2709 3584 3137 3096 
Q 3566 2609 3566 1747 
Q 3566 888 3137 398 
Q 2709 -91 1959 -91 
Q 1206 -91 779 398 
Q 353 888 353 1747 
Q 353 2609 779 3096 
Q 1206 3584 1959 3584 
z
" transform="scale(0.015625)"/>
       <path id="DejaVuSans-6e" d="M 3513 2113 
L 3513 0 
L 2938 0 
L 2938 2094 
Q 2938 2591 2744 2837 
Q 2550 3084 2163 3084 
Q 1697 3084 1428 2787 
Q 1159 2491 1159 1978 
L 1159 0 
L 581 0 
L 581 3500 
L 1159 3500 
L 1159 2956 
Q 1366 3272 1645 3428 
Q 1925 3584 2291 3584 
Q 2894 3584 3203 3211 
Q 3513 2838 3513 2113 
z
" transform="scale(0.015625)"/>
      </defs>
      <use xlink:href="#DejaVuSans-43"/>
      <use xlink:href="#DejaVuSans-6f" x="69.824219"/>
      <use xlink:href="#DejaVuSans-75" x="131.005859"/>
      <use xlink:href="#DejaVuSans-6e" x="194.384766"/>
      <use xlink:href="#DejaVuSans-74" x="257.763672"/>
      <use xlink:href="#DejaVuSans-73" x="296.972656"/>
     </g>
    </g>
   </g>
   <g id="line2d_25">
    <path d="M 79.250919 277.484682 
L 83.086393 270.015564 
L 86.921868 257.385605 
L 90.757342 237.817696 
L 94.592816 210.160507 
L 98.428291 174.735005 
L 102.263765 134.056441 
L 106.099239 92.992775 
L 109.934713 58.026704 
L 113.770188 35.655194 
L 117.605662 30.433829 
L 121.441136 43.466593 
L 125.276611 72.025898 
L 129.112085 110.48159 
L 132.947559 152.105823 
L 136.783034 190.962256 
L 140.618508 223.164834 
L 144.453982 247.199304 
L 148.289457 263.45787 
L 152.124931 273.398032 
L 155.960405 278.732286 
L 159.795879 280.882696 
L 163.631354 280.742349 
L 167.466828 278.671805 
L 171.302302 274.635827 
L 175.137777 268.412843 
L 178.973251 259.837921 
L 182.808725 249.043588 
L 186.6442 236.645377 
L 190.479674 223.803912 
L 194.315148 212.10861 
L 198.150623 203.279902 
L 201.986097 198.761601 
L 205.821571 199.33573 
L 209.657045 204.901392 
L 213.49252 214.503761 
L 217.327994 226.601784 
L 221.163468 239.471452 
L 224.998943 251.59982 
L 228.834417 261.948464 
L 232.669891 270.033742 
L 236.505366 275.845647 
L 240.34084 279.673546 
L 244.176314 281.914126 
L 248.011789 282.915327 
L 251.847263 282.880907 
L 255.682737 281.840157 
L 259.518211 279.680341 
L 263.353686 276.23781 
L 267.18916 271.435619 
L 271.024634 265.435056 
L 274.860109 258.744121 
L 278.695583 252.2178 
L 282.531057 246.912185 
L 286.366532 243.816351 
L 290.202006 243.554157 
L 294.03748 246.179979 
L 297.872955 251.160529 
L 301.708429 257.551324 
L 305.543903 264.287985 
L 309.379377 270.46963 
L 313.214852 275.53369 
L 317.050326 279.286853 
L 320.8858 281.822946 
L 324.721275 283.392102 
L 328.556749 284.280201 
L 332.392223 284.72918 
L 336.227698 284.899376 
L 340.063172 284.858557 
L 343.898646 284.582005 
L 347.734121 283.959507 
L 351.569595 282.82024 
L 355.405069 280.993766 
L 359.240543 278.41302 
L 363.076018 275.230779 
L 366.911492 271.883396 
L 370.746966 269.031078 
L 374.582441 267.358215 
L 378.417915 267.309131 
L 382.253389 268.897298 
L 386.088864 271.699369 
L 389.924338 275.037623 
L 393.759812 278.244003 
L 397.595287 280.866552 
L 401.430761 282.737899 
L 405.266235 283.917921 
L 409.101709 284.580523 
L 412.937184 284.913475 
L 416.772658 285.063696 
L 420.608132 285.124698 
L 424.443607 285.147033 
L 428.279081 285.154416 
" clip-path="url(#pf2ac801466)" style="fill: none; stroke: #ff0000; stroke-width: 1.5; stroke-linecap: square"/>
   </g>
   <g id="line2d_26">
    <path d="M 79.250919 285.157403 
L 83.086393 285.157403 
L 86.921868 285.157403 
L 90.757342 285.157403 
L 94.592816 285.157403 
L 98.428291 285.157403 
L 102.263765 285.157403 
L 106.099239 285.157403 
L 109.934713 285.157403 
L 113.770188 285.157403 
L 117.605662 285.157403 
L 121.441136 285.157403 
L 125.276611 285.157403 
L 129.112085 285.157403 
L 132.947559 285.157403 
L 136.783034 285.157403 
L 140.618508 285.157403 
L 144.453982 285.157403 
L 148.289457 285.157403 
L 152.124931 285.157403 
L 155.960405 285.157403 
L 159.795879 285.157403 
L 163.631354 285.157403 
L 167.466828 285.157403 
L 171.302302 285.157403 
L 175.137777 285.157403 
L 178.973251 285.157403 
L 182.808725 285.157403 
L 186.6442 285.157403 
L 190.479674 285.157403 
L 194.315148 285.157403 
L 198.150623 285.157403 
L 201.986097 285.157403 
L 205.821571 285.157403 
L 209.657045 285.157403 
L 213.49252 285.157403 
L 217.327994 285.157403 
L 221.163468 285.157403 
L 224.998943 285.157403 
L 228.834417 285.157403 
L 232.669891 285.157403 
L 236.505366 285.157403 
L 240.34084 285.157403 
L 244.176314 285.157403 
L 248.011789 285.157403 
L 251.847263 285.157403 
L 255.682737 285.157403 
L 259.518211 285.157403 
L 263.353686 285.157403 
L 267.18916 285.157403 
L 271.024634 285.157403 
L 274.860109 285.157403 
L 278.695583 285.157403 
L 282.531057 285.157403 
L 286.366532 285.157403 
L 290.202006 285.157403 
L 294.03748 285.157403 
L 297.872955 285.157403 
L 301.708429 285.157403 
L 305.543903 285.157403 
L 309.379377 285.157403 
L 313.214852 285.157403 
L 317.050326 285.157403 
L 320.8858 285.157403 
L 324.721275 285.157403 
L 328.556749 285.157403 
L 332.392223 285.157403 
L 336.227698 285.157403 
L 340.063172 285.157403 
L 343.898646 285.157403 
L 347.734121 285.157403 
L 351.569595 285.157403 
L 355.405069 285.157403 
L 359.240543 285.157403 
L 363.076018 285.157403 
L 366.911492 285.157403 
L 370.746966 285.157403 
L 374.582441 285.157403 
L 378.417915 285.157403 
L 382.253389 285.157403 
L 386.088864 285.157403 
L 389.924338 285.157403 
L 393.759812 285.157403 
L 397.595287 285.157403 
L 401.430761 285.157403 
L 405.266235 285.157403 
L 409.101709 285.157403 
L 412.937184 285.157403 
L 416.772658 285.157403 
L 420.608132 285.157403 
L 424.443607 285.157403 
L 428.279081 285.157403 
" clip-path="url(#pf2ac801466)" style="fill: none; stroke: #0000ff; stroke-width: 1.5; stroke-linecap: square"/>
   </g>
   <g id="patch_94">
    <path d="M 59.69 295.72 
L 59.69 12.96 
" style="fill: none; stroke: #000000; stroke-width: 0.8; stroke-linejoin: miter; stroke-linecap: square"/>
   </g>
   <g id="patch_95">
    <path d="M 447.84 295.72 
L 447.84 12.96 
" style="fill: none; stroke: #000000; stroke-width: 0.8; stroke-linejoin: miter; stroke-linecap: square"/>
   </g>
   <g id="patch_96">
    <path d="M 59.69 295.72 
L 447.84 295.72 
" style="fill: none; stroke: #000000; stroke-width: 0.8; stroke-linejoin: miter; stroke-linecap: square"/>
   </g>
   <g id="patch_97">
    <path d="M 59.69 12.96 
L 447.84 12.96 
" style="fill: none; stroke: #000000; stroke-width: 0.8; stroke-linejoin: miter; stroke-linecap: square"/>
   </g>
  </g>
  <g id="text_15">
   <g id="patch_98">
    <path d="M 253.44 224.38475 
L 409.09375 224.38475 
Q 411.49375 224.38475 411.49375 221.98475 
L 411.49375 27.648 
Q 411.49375 25.248 409.09375 25.248 
L 253.44 25.248 
Q 251.04 25.248 251.04 27.648 
L 251.04 221.98475 
Q 251.04 224.38475 253.44 224.38475 
z
" style="fill: #1f77b4; opacity: 0.4; stroke: #000000; stroke-linejoin: miter"/>
   </g>
   <!-- Date: 10/17/2024 17:07:28  -->
   <g transform="translate(253.44 33.72675) scale(0.08 -0.08)">
    <defs>
     <path id="DejaVuSans-44" d="M 1259 4147 
L 1259 519 
L 2022 519 
Q 2988 519 3436 956 
Q 3884 1394 3884 2338 
Q 3884 3275 3436 3711 
Q 2988 4147 2022 4147 
L 1259 4147 
z
M 628 4666 
L 1925 4666 
Q 3281 4666 3915 4102 
Q 4550 3538 4550 2338 
Q 4550 1131 3912 565 
Q 3275 0 1925 0 
L 628 0 
L 628 4666 
z
" transform="scale(0.015625)"/>
     <path id="DejaVuSans-61" d="M 2194 1759 
Q 1497 1759 1228 1600 
Q 959 1441 959 1056 
Q 959 750 1161 570 
Q 1363 391 1709 391 
Q 2188 391 2477 730 
Q 2766 1069 2766 1631 
L 2766 1759 
L 2194 1759 
z
M 3341 1997 
L 3341 0 
L 2766 0 
L 2766 531 
Q 2569 213 2275 61 
Q 1981 -91 1556 -91 
Q 1019 -91 701 211 
Q 384 513 384 1019 
Q 384 1609 779 1909 
Q 1175 2209 1959 2209 
L 2766 2209 
L 2766 2266 
Q 2766 2663 2505 2880 
Q 2244 3097 1772 3097 
Q 1472 3097 1187 3025 
Q 903 2953 641 2809 
L 641 3341 
Q 956 3463 1253 3523 
Q 1550 3584 1831 3584 
Q 2591 3584 2966 3190 
Q 3341 2797 3341 1997 
z
" transform="scale(0.015625)"/>
     <path id="DejaVuSans-3a" d="M 750 794 
L 1409 794 
L 1409 0 
L 750 0 
L 750 794 
z
M 750 3309 
L 1409 3309 
L 1409 2516 
L 750 2516 
L 750 3309 
z
" transform="scale(0.015625)"/>
     <path id="DejaVuSans-2f" d="M 1625 4666 
L 2156 4666 
L 531 -594 
L 0 -594 
L 1625 4666 
z
" transform="scale(0.015625)"/>
     <path id="DejaVuSans-37" d="M 525 4666 
L 3525 4666 
L 3525 4397 
L 1831 0 
L 1172 0 
L 2766 4134 
L 525 4134 
L 525 4666 
z
" transform="scale(0.015625)"/>
     <path id="DejaVuSans-38" d="M 2034 2216 
Q 1584 2216 1326 1975 
Q 1069 1734 1069 1313 
Q 1069 891 1326 650 
Q 1584 409 2034 409 
Q 2484 409 2743 651 
Q 3003 894 3003 1313 
Q 3003 1734 2745 1975 
Q 2488 2216 2034 2216 
z
M 1403 2484 
Q 997 2584 770 2862 
Q 544 3141 544 3541 
Q 544 4100 942 4425 
Q 1341 4750 2034 4750 
Q 2731 4750 3128 4425 
Q 3525 4100 3525 3541 
Q 3525 3141 3298 2862 
Q 3072 2584 2669 2484 
Q 3125 2378 3379 2068 
Q 3634 1759 3634 1313 
Q 3634 634 3220 271 
Q 2806 -91 2034 -91 
Q 1263 -91 848 271 
Q 434 634 434 1313 
Q 434 1759 690 2068 
Q 947 2378 1403 2484 
z
M 1172 3481 
Q 1172 3119 1398 2916 
Q 1625 2713 2034 2713 
Q 2441 2713 2670 2916 
Q 2900 3119 2900 3481 
Q 2900 3844 2670 4047 
Q 2441 4250 2034 4250 
Q 1625 4250 1398 4047 
Q 1172 3844 1172 3481 
z
" transform="scale(0.015625)"/>
    </defs>
    <use xlink:href="#DejaVuSans-44"/>
    <use xlink:href="#DejaVuSans-61" x="77.001953"/>
    <use xlink:href="#DejaVuSans-74" x="138.28125"/>
    <use xlink:href="#DejaVuSans-65" x="177.490234"/>
    <use xlink:href="#DejaVuSans-3a" x="239.013672"/>
    <use xlink:href="#DejaVuSans-20" x="272.705078"/>
    <use xlink:href="#DejaVuSans-31" x="304.492188"/>
    <use xlink:href="#DejaVuSans-30" x="368.115234"/>
    <use xlink:href="#DejaVuSans-2f" x="431.738281"/>
    <use xlink:href="#DejaVuSans-31" x="465.429688"/>
    <use xlink:href="#DejaVuSans-37" x="529.052734"/>
    <use xlink:href="#DejaVuSans-2f" x="592.675781"/>
    <use xlink:href="#DejaVuSans-32" x="626.367188"/>
    <use xlink:href="#DejaVuSans-30" x="689.990234"/>
    <use xlink:href="#DejaVuSans-32" x="753.613281"/>
    <use xlink:href="#DejaVuSans-34" x="817.236328"/>
    <use xlink:href="#DejaVuSans-20" x="880.859375"/>
    <use xlink:href="#DejaVuSans-31" x="912.646484"/>
    <use xlink:href="#DejaVuSans-37" x="976.269531"/>
    <use xlink:href="#DejaVuSans-3a" x="1039.892578"/>
    <use xlink:href="#DejaVuSans-30" x="1073.583984"/>
    <use xlink:href="#DejaVuSans-37" x="1137.207031"/>
    <use xlink:href="#DejaVuSans-3a" x="1200.830078"/>
    <use xlink:href="#DejaVuSans-32" x="1234.521484"/>
    <use xlink:href="#DejaVuSans-38" x="1298.144531"/>
    <use xlink:href="#DejaVuSans-20" x="1361.767578"/>
   </g>
   <!-- Condition: LXe -->
   <g transform="translate(253.44 42.685) scale(0.08 -0.08)">
    <defs>
     <path id="DejaVuSans-4c" d="M 628 4666 
L 1259 4666 
L 1259 531 
L 3531 531 
L 3531 0 
L 628 0 
L 628 4666 
z
" transform="scale(0.015625)"/>
     <path id="DejaVuSans-58" d="M 403 4666 
L 1081 4666 
L 2241 2931 
L 3406 4666 
L 4084 4666 
L 2584 2425 
L 4184 0 
L 3506 0 
L 2194 1984 
L 872 0 
L 191 0 
L 1856 2491 
L 403 4666 
z
" transform="scale(0.015625)"/>
    </defs>
    <use xlink:href="#DejaVuSans-43"/>
    <use xlink:href="#DejaVuSans-6f" x="69.824219"/>
    <use xlink:href="#DejaVuSans-6e" x="131.005859"/>
    <use xlink:href="#DejaVuSans-64" x="194.384766"/>
    <use xlink:href="#DejaVuSans-69" x="257.861328"/>
    <use xlink:href="#DejaVuSans-74" x="285.644531"/>
    <use xlink:href="#DejaVuSans-69" x="324.853516"/>
    <use xlink:href="#DejaVuSans-6f" x="352.636719"/>
    <use xlink:href="#DejaVuSans-6e" x="413.818359"/>
    <use xlink:href="#DejaVuSans-3a" x="477.197266"/>
    <use xlink:href="#DejaVuSans-20" x="510.888672"/>
    <use xlink:href="#DejaVuSans-4c" x="542.675781"/>
    <use xlink:href="#DejaVuSans-58" x="598.388672"/>
    <use xlink:href="#DejaVuSans-65" x="662.394531"/>
   </g>
   <!-- Bias: 34.5 [V] -->
   <g transform="translate(253.44 51.64325) scale(0.08 -0.08)">
    <defs>
     <path id="DejaVuSans-42" d="M 1259 2228 
L 1259 519 
L 2272 519 
Q 2781 519 3026 730 
Q 3272 941 3272 1375 
Q 3272 1813 3026 2020 
Q 2781 2228 2272 2228 
L 1259 2228 
z
M 1259 4147 
L 1259 2741 
L 2194 2741 
Q 2656 2741 2882 2914 
Q 3109 3088 3109 3444 
Q 3109 3797 2882 3972 
Q 2656 4147 2194 4147 
L 1259 4147 
z
M 628 4666 
L 2241 4666 
Q 2963 4666 3353 4366 
Q 3744 4066 3744 3513 
Q 3744 3084 3544 2831 
Q 3344 2578 2956 2516 
Q 3422 2416 3680 2098 
Q 3938 1781 3938 1306 
Q 3938 681 3513 340 
Q 3088 0 2303 0 
L 628 0 
L 628 4666 
z
" transform="scale(0.015625)"/>
    </defs>
    <use xlink:href="#DejaVuSans-42"/>
    <use xlink:href="#DejaVuSans-69" x="68.603516"/>
    <use xlink:href="#DejaVuSans-61" x="96.386719"/>
    <use xlink:href="#DejaVuSans-73" x="157.666016"/>
    <use xlink:href="#DejaVuSans-3a" x="209.765625"/>
    <use xlink:href="#DejaVuSans-20" x="243.457031"/>
    <use xlink:href="#DejaVuSans-33" x="275.244141"/>
    <use xlink:href="#DejaVuSans-34" x="338.867188"/>
    <use xlink:href="#DejaVuSans-2e" x="402.490234"/>
    <use xlink:href="#DejaVuSans-35" x="434.277344"/>
    <use xlink:href="#DejaVuSans-20" x="497.900391"/>
    <use xlink:href="#DejaVuSans-5b" x="529.6875"/>
    <use xlink:href="#DejaVuSans-56" x="568.701172"/>
    <use xlink:href="#DejaVuSans-5d" x="637.109375"/>
   </g>
   <!-- RTD4: 169.6 [K] -->
   <g transform="translate(253.44 60.6015) scale(0.08 -0.08)">
    <defs>
     <path id="DejaVuSans-52" d="M 2841 2188 
Q 3044 2119 3236 1894 
Q 3428 1669 3622 1275 
L 4263 0 
L 3584 0 
L 2988 1197 
Q 2756 1666 2539 1819 
Q 2322 1972 1947 1972 
L 1259 1972 
L 1259 0 
L 628 0 
L 628 4666 
L 2053 4666 
Q 2853 4666 3247 4331 
Q 3641 3997 3641 3322 
Q 3641 2881 3436 2590 
Q 3231 2300 2841 2188 
z
M 1259 4147 
L 1259 2491 
L 2053 2491 
Q 2509 2491 2742 2702 
Q 2975 2913 2975 3322 
Q 2975 3731 2742 3939 
Q 2509 4147 2053 4147 
L 1259 4147 
z
" transform="scale(0.015625)"/>
     <path id="DejaVuSans-54" d="M -19 4666 
L 3928 4666 
L 3928 4134 
L 2272 4134 
L 2272 0 
L 1638 0 
L 1638 4134 
L -19 4134 
L -19 4666 
z
" transform="scale(0.015625)"/>
     <path id="DejaVuSans-36" d="M 2113 2584 
Q 1688 2584 1439 2293 
Q 1191 2003 1191 1497 
Q 1191 994 1439 701 
Q 1688 409 2113 409 
Q 2538 409 2786 701 
Q 3034 994 3034 1497 
Q 3034 2003 2786 2293 
Q 2538 2584 2113 2584 
z
M 3366 4563 
L 3366 3988 
Q 3128 4100 2886 4159 
Q 2644 4219 2406 4219 
Q 1781 4219 1451 3797 
Q 1122 3375 1075 2522 
Q 1259 2794 1537 2939 
Q 1816 3084 2150 3084 
Q 2853 3084 3261 2657 
Q 3669 2231 3669 1497 
Q 3669 778 3244 343 
Q 2819 -91 2113 -91 
Q 1303 -91 875 529 
Q 447 1150 447 2328 
Q 447 3434 972 4092 
Q 1497 4750 2381 4750 
Q 2619 4750 2861 4703 
Q 3103 4656 3366 4563 
z
" transform="scale(0.015625)"/>
     <path id="DejaVuSans-39" d="M 703 97 
L 703 672 
Q 941 559 1184 500 
Q 1428 441 1663 441 
Q 2288 441 2617 861 
Q 2947 1281 2994 2138 
Q 2813 1869 2534 1725 
Q 2256 1581 1919 1581 
Q 1219 1581 811 2004 
Q 403 2428 403 3163 
Q 403 3881 828 4315 
Q 1253 4750 1959 4750 
Q 2769 4750 3195 4129 
Q 3622 3509 3622 2328 
Q 3622 1225 3098 567 
Q 2575 -91 1691 -91 
Q 1453 -91 1209 -44 
Q 966 3 703 97 
z
M 1959 2075 
Q 2384 2075 2632 2365 
Q 2881 2656 2881 3163 
Q 2881 3666 2632 3958 
Q 2384 4250 1959 4250 
Q 1534 4250 1286 3958 
Q 1038 3666 1038 3163 
Q 1038 2656 1286 2365 
Q 1534 2075 1959 2075 
z
" transform="scale(0.015625)"/>
     <path id="DejaVuSans-4b" d="M 628 4666 
L 1259 4666 
L 1259 2694 
L 3353 4666 
L 4166 4666 
L 1850 2491 
L 4331 0 
L 3500 0 
L 1259 2247 
L 1259 0 
L 628 0 
L 628 4666 
z
" transform="scale(0.015625)"/>
    </defs>
    <use xlink:href="#DejaVuSans-52"/>
    <use xlink:href="#DejaVuSans-54" x="62.232422"/>
    <use xlink:href="#DejaVuSans-44" x="123.316406"/>
    <use xlink:href="#DejaVuSans-34" x="200.318359"/>
    <use xlink:href="#DejaVuSans-3a" x="263.941406"/>
    <use xlink:href="#DejaVuSans-20" x="297.632812"/>
    <use xlink:href="#DejaVuSans-31" x="329.419922"/>
    <use xlink:href="#DejaVuSans-36" x="393.042969"/>
    <use xlink:href="#DejaVuSans-39" x="456.666016"/>
    <use xlink:href="#DejaVuSans-2e" x="520.289062"/>
    <use xlink:href="#DejaVuSans-36" x="552.076172"/>
    <use xlink:href="#DejaVuSans-20" x="615.699219"/>
    <use xlink:href="#DejaVuSans-5b" x="647.486328"/>
    <use xlink:href="#DejaVuSans-4b" x="686.5"/>
    <use xlink:href="#DejaVuSans-5d" x="752.076172"/>
   </g>
   <!-- Prominence: 0.0051060606060606 [V] -->
   <g transform="translate(253.44 69.55975) scale(0.08 -0.08)">
    <defs>
     <path id="DejaVuSans-72" d="M 2631 2963 
Q 2534 3019 2420 3045 
Q 2306 3072 2169 3072 
Q 1681 3072 1420 2755 
Q 1159 2438 1159 1844 
L 1159 0 
L 581 0 
L 581 3500 
L 1159 3500 
L 1159 2956 
Q 1341 3275 1631 3429 
Q 1922 3584 2338 3584 
Q 2397 3584 2469 3576 
Q 2541 3569 2628 3553 
L 2631 2963 
z
" transform="scale(0.015625)"/>
     <path id="DejaVuSans-63" d="M 3122 3366 
L 3122 2828 
Q 2878 2963 2633 3030 
Q 2388 3097 2138 3097 
Q 1578 3097 1268 2742 
Q 959 2388 959 1747 
Q 959 1106 1268 751 
Q 1578 397 2138 397 
Q 2388 397 2633 464 
Q 2878 531 3122 666 
L 3122 134 
Q 2881 22 2623 -34 
Q 2366 -91 2075 -91 
Q 1284 -91 818 406 
Q 353 903 353 1747 
Q 353 2603 823 3093 
Q 1294 3584 2113 3584 
Q 2378 3584 2631 3529 
Q 2884 3475 3122 3366 
z
" transform="scale(0.015625)"/>
    </defs>
    <use xlink:href="#DejaVuSans-50"/>
    <use xlink:href="#DejaVuSans-72" x="58.552734"/>
    <use xlink:href="#DejaVuSans-6f" x="97.416016"/>
    <use xlink:href="#DejaVuSans-6d" x="158.597656"/>
    <use xlink:href="#DejaVuSans-69" x="256.009766"/>
    <use xlink:href="#DejaVuSans-6e" x="283.792969"/>
    <use xlink:href="#DejaVuSans-65" x="347.171875"/>
    <use xlink:href="#DejaVuSans-6e" x="408.695312"/>
    <use xlink:href="#DejaVuSans-63" x="472.074219"/>
    <use xlink:href="#DejaVuSans-65" x="527.054688"/>
    <use xlink:href="#DejaVuSans-3a" x="588.578125"/>
    <use xlink:href="#DejaVuSans-20" x="622.269531"/>
    <use xlink:href="#DejaVuSans-30" x="654.056641"/>
    <use xlink:href="#DejaVuSans-2e" x="717.679688"/>
    <use xlink:href="#DejaVuSans-30" x="749.466797"/>
    <use xlink:href="#DejaVuSans-30" x="813.089844"/>
    <use xlink:href="#DejaVuSans-35" x="876.712891"/>
    <use xlink:href="#DejaVuSans-31" x="940.335938"/>
    <use xlink:href="#DejaVuSans-30" x="1003.958984"/>
    <use xlink:href="#DejaVuSans-36" x="1067.582031"/>
    <use xlink:href="#DejaVuSans-30" x="1131.205078"/>
    <use xlink:href="#DejaVuSans-36" x="1194.828125"/>
    <use xlink:href="#DejaVuSans-30" x="1258.451172"/>
    <use xlink:href="#DejaVuSans-36" x="1322.074219"/>
    <use xlink:href="#DejaVuSans-30" x="1385.697266"/>
    <use xlink:href="#DejaVuSans-36" x="1449.320312"/>
    <use xlink:href="#DejaVuSans-30" x="1512.943359"/>
    <use xlink:href="#DejaVuSans-36" x="1576.566406"/>
    <use xlink:href="#DejaVuSans-30" x="1640.189453"/>
    <use xlink:href="#DejaVuSans-36" x="1703.8125"/>
    <use xlink:href="#DejaVuSans-20" x="1767.435547"/>
    <use xlink:href="#DejaVuSans-5b" x="1799.222656"/>
    <use xlink:href="#DejaVuSans-56" x="1838.236328"/>
    <use xlink:href="#DejaVuSans-5d" x="1906.644531"/>
   </g>
   <!-- - - -->
   <g transform="translate(253.44 78.518) scale(0.08 -0.08)">
    <defs>
     <path id="DejaVuSans-2d" d="M 313 2009 
L 1997 2009 
L 1997 1497 
L 313 1497 
L 313 2009 
z
" transform="scale(0.015625)"/>
    </defs>
    <use xlink:href="#DejaVuSans-2d"/>
    <use xlink:href="#DejaVuSans-2d" x="36.083984"/>
   </g>
   <!-- Peak Locations ($\mu$) [V] -->
   <g transform="translate(253.44 87.47775) scale(0.08 -0.08)">
    <defs>
     <path id="DejaVuSans-6b" d="M 581 4863 
L 1159 4863 
L 1159 1991 
L 2875 3500 
L 3609 3500 
L 1753 1863 
L 3688 0 
L 2938 0 
L 1159 1709 
L 1159 0 
L 581 0 
L 581 4863 
z
" transform="scale(0.015625)"/>
     <path id="DejaVuSans-28" d="M 1984 4856 
Q 1566 4138 1362 3434 
Q 1159 2731 1159 2009 
Q 1159 1288 1364 580 
Q 1569 -128 1984 -844 
L 1484 -844 
Q 1016 -109 783 600 
Q 550 1309 550 2009 
Q 550 2706 781 3412 
Q 1013 4119 1484 4856 
L 1984 4856 
z
" transform="scale(0.015625)"/>
     <path id="DejaVuSans-Oblique-3bc" d="M -84 -1331 
L 856 3500 
L 1434 3500 
L 1009 1322 
Q 997 1256 987 1175 
Q 978 1094 978 1013 
Q 978 722 1161 565 
Q 1344 409 1684 409 
Q 2147 409 2431 671 
Q 2716 934 2816 1459 
L 3213 3500 
L 3788 3500 
L 3266 809 
Q 3253 750 3248 706 
Q 3244 663 3244 628 
Q 3244 531 3283 486 
Q 3322 441 3406 441 
Q 3438 441 3492 456 
Q 3547 472 3647 513 
L 3559 50 
Q 3422 -19 3297 -55 
Q 3172 -91 3053 -91 
Q 2847 -91 2730 40 
Q 2613 172 2613 403 
Q 2438 153 2195 31 
Q 1953 -91 1625 -91 
Q 1334 -91 1117 43 
Q 900 178 831 397 
L 494 -1331 
L -84 -1331 
z
" transform="scale(0.015625)"/>
     <path id="DejaVuSans-29" d="M 513 4856 
L 1013 4856 
Q 1481 4119 1714 3412 
Q 1947 2706 1947 2009 
Q 1947 1309 1714 600 
Q 1481 -109 1013 -844 
L 513 -844 
Q 928 -128 1133 580 
Q 1338 1288 1338 2009 
Q 1338 2731 1133 3434 
Q 928 4138 513 4856 
z
" transform="scale(0.015625)"/>
    </defs>
    <use xlink:href="#DejaVuSans-50" transform="translate(0 0.015625)"/>
    <use xlink:href="#DejaVuSans-65" transform="translate(60.302734 0.015625)"/>
    <use xlink:href="#DejaVuSans-61" transform="translate(121.826172 0.015625)"/>
    <use xlink:href="#DejaVuSans-6b" transform="translate(183.105469 0.015625)"/>
    <use xlink:href="#DejaVuSans-20" transform="translate(241.015625 0.015625)"/>
    <use xlink:href="#DejaVuSans-4c" transform="translate(272.802734 0.015625)"/>
    <use xlink:href="#DejaVuSans-6f" transform="translate(328.515625 0.015625)"/>
    <use xlink:href="#DejaVuSans-63" transform="translate(389.697266 0.015625)"/>
    <use xlink:href="#DejaVuSans-61" transform="translate(444.677734 0.015625)"/>
    <use xlink:href="#DejaVuSans-74" transform="translate(505.957031 0.015625)"/>
    <use xlink:href="#DejaVuSans-69" transform="translate(545.166016 0.015625)"/>
    <use xlink:href="#DejaVuSans-6f" transform="translate(572.949219 0.015625)"/>
    <use xlink:href="#DejaVuSans-6e" transform="translate(634.130859 0.015625)"/>
    <use xlink:href="#DejaVuSans-73" transform="translate(697.509766 0.015625)"/>
    <use xlink:href="#DejaVuSans-20" transform="translate(749.609375 0.015625)"/>
    <use xlink:href="#DejaVuSans-28" transform="translate(781.396484 0.015625)"/>
    <use xlink:href="#DejaVuSans-Oblique-3bc" transform="translate(820.410156 0.015625)"/>
    <use xlink:href="#DejaVuSans-29" transform="translate(884.033203 0.015625)"/>
    <use xlink:href="#DejaVuSans-20" transform="translate(923.046875 0.015625)"/>
    <use xlink:href="#DejaVuSans-5b" transform="translate(954.833984 0.015625)"/>
    <use xlink:href="#DejaVuSans-56" transform="translate(993.847656 0.015625)"/>
    <use xlink:href="#DejaVuSans-5d" transform="translate(1062.255859 0.015625)"/>
   </g>
   <!-- Peak 1: 0.0081 $\pm$ 2.6e-05 -->
   <g transform="translate(253.44 96.45225) scale(0.08 -0.08)">
    <defs>
     <path id="DejaVuSans-b1" d="M 2944 4013 
L 2944 2803 
L 4684 2803 
L 4684 2272 
L 2944 2272 
L 2944 1063 
L 2419 1063 
L 2419 2272 
L 678 2272 
L 678 2803 
L 2419 2803 
L 2419 4013 
L 2944 4013 
z
M 678 531 
L 4684 531 
L 4684 0 
L 678 0 
L 678 531 
z
" transform="scale(0.015625)"/>
    </defs>
    <use xlink:href="#DejaVuSans-50" transform="translate(0 0.015625)"/>
    <use xlink:href="#DejaVuSans-65" transform="translate(60.302734 0.015625)"/>
    <use xlink:href="#DejaVuSans-61" transform="translate(121.826172 0.015625)"/>
    <use xlink:href="#DejaVuSans-6b" transform="translate(183.105469 0.015625)"/>
    <use xlink:href="#DejaVuSans-20" transform="translate(241.015625 0.015625)"/>
    <use xlink:href="#DejaVuSans-31" transform="translate(272.802734 0.015625)"/>
    <use xlink:href="#DejaVuSans-3a" transform="translate(336.425781 0.015625)"/>
    <use xlink:href="#DejaVuSans-20" transform="translate(370.117188 0.015625)"/>
    <use xlink:href="#DejaVuSans-30" transform="translate(401.904297 0.015625)"/>
    <use xlink:href="#DejaVuSans-2e" transform="translate(465.527344 0.015625)"/>
    <use xlink:href="#DejaVuSans-30" transform="translate(497.314453 0.015625)"/>
    <use xlink:href="#DejaVuSans-30" transform="translate(560.9375 0.015625)"/>
    <use xlink:href="#DejaVuSans-38" transform="translate(624.560547 0.015625)"/>
    <use xlink:href="#DejaVuSans-31" transform="translate(688.183594 0.015625)"/>
    <use xlink:href="#DejaVuSans-20" transform="translate(751.806641 0.015625)"/>
    <use xlink:href="#DejaVuSans-b1" transform="translate(783.59375 0.015625)"/>
    <use xlink:href="#DejaVuSans-20" transform="translate(867.382812 0.015625)"/>
    <use xlink:href="#DejaVuSans-32" transform="translate(899.169922 0.015625)"/>
    <use xlink:href="#DejaVuSans-2e" transform="translate(962.792969 0.015625)"/>
    <use xlink:href="#DejaVuSans-36" transform="translate(994.580078 0.015625)"/>
    <use xlink:href="#DejaVuSans-65" transform="translate(1058.203125 0.015625)"/>
    <use xlink:href="#DejaVuSans-2d" transform="translate(1119.726562 0.015625)"/>
    <use xlink:href="#DejaVuSans-30" transform="translate(1155.810547 0.015625)"/>
    <use xlink:href="#DejaVuSans-35" transform="translate(1219.433594 0.015625)"/>
   </g>
   <!-- Peak 2: 0.016 $\pm$ 5.1e-05 -->
   <g transform="translate(253.44 105.4105) scale(0.08 -0.08)">
    <use xlink:href="#DejaVuSans-50" transform="translate(0 0.015625)"/>
    <use xlink:href="#DejaVuSans-65" transform="translate(60.302734 0.015625)"/>
    <use xlink:href="#DejaVuSans-61" transform="translate(121.826172 0.015625)"/>
    <use xlink:href="#DejaVuSans-6b" transform="translate(183.105469 0.015625)"/>
    <use xlink:href="#DejaVuSans-20" transform="translate(241.015625 0.015625)"/>
    <use xlink:href="#DejaVuSans-32" transform="translate(272.802734 0.015625)"/>
    <use xlink:href="#DejaVuSans-3a" transform="translate(336.425781 0.015625)"/>
    <use xlink:href="#DejaVuSans-20" transform="translate(370.117188 0.015625)"/>
    <use xlink:href="#DejaVuSans-30" transform="translate(401.904297 0.015625)"/>
    <use xlink:href="#DejaVuSans-2e" transform="translate(465.527344 0.015625)"/>
    <use xlink:href="#DejaVuSans-30" transform="translate(497.314453 0.015625)"/>
    <use xlink:href="#DejaVuSans-31" transform="translate(560.9375 0.015625)"/>
    <use xlink:href="#DejaVuSans-36" transform="translate(624.560547 0.015625)"/>
    <use xlink:href="#DejaVuSans-20" transform="translate(688.183594 0.015625)"/>
    <use xlink:href="#DejaVuSans-b1" transform="translate(719.970703 0.015625)"/>
    <use xlink:href="#DejaVuSans-20" transform="translate(803.759766 0.015625)"/>
    <use xlink:href="#DejaVuSans-35" transform="translate(835.546875 0.015625)"/>
    <use xlink:href="#DejaVuSans-2e" transform="translate(899.169922 0.015625)"/>
    <use xlink:href="#DejaVuSans-31" transform="translate(930.957031 0.015625)"/>
    <use xlink:href="#DejaVuSans-65" transform="translate(994.580078 0.015625)"/>
    <use xlink:href="#DejaVuSans-2d" transform="translate(1056.103516 0.015625)"/>
    <use xlink:href="#DejaVuSans-30" transform="translate(1092.1875 0.015625)"/>
    <use xlink:href="#DejaVuSans-35" transform="translate(1155.810547 0.015625)"/>
   </g>
   <!-- Peak 3: 0.024 $\pm$ 8e-05 -->
   <g transform="translate(253.44 114.36875) scale(0.08 -0.08)">
    <use xlink:href="#DejaVuSans-50" transform="translate(0 0.015625)"/>
    <use xlink:href="#DejaVuSans-65" transform="translate(60.302734 0.015625)"/>
    <use xlink:href="#DejaVuSans-61" transform="translate(121.826172 0.015625)"/>
    <use xlink:href="#DejaVuSans-6b" transform="translate(183.105469 0.015625)"/>
    <use xlink:href="#DejaVuSans-20" transform="translate(241.015625 0.015625)"/>
    <use xlink:href="#DejaVuSans-33" transform="translate(272.802734 0.015625)"/>
    <use xlink:href="#DejaVuSans-3a" transform="translate(336.425781 0.015625)"/>
    <use xlink:href="#DejaVuSans-20" transform="translate(370.117188 0.015625)"/>
    <use xlink:href="#DejaVuSans-30" transform="translate(401.904297 0.015625)"/>
    <use xlink:href="#DejaVuSans-2e" transform="translate(465.527344 0.015625)"/>
    <use xlink:href="#DejaVuSans-30" transform="translate(497.314453 0.015625)"/>
    <use xlink:href="#DejaVuSans-32" transform="translate(560.9375 0.015625)"/>
    <use xlink:href="#DejaVuSans-34" transform="translate(624.560547 0.015625)"/>
    <use xlink:href="#DejaVuSans-20" transform="translate(688.183594 0.015625)"/>
    <use xlink:href="#DejaVuSans-b1" transform="translate(719.970703 0.015625)"/>
    <use xlink:href="#DejaVuSans-20" transform="translate(803.759766 0.015625)"/>
    <use xlink:href="#DejaVuSans-38" transform="translate(835.546875 0.015625)"/>
    <use xlink:href="#DejaVuSans-65" transform="translate(899.169922 0.015625)"/>
    <use xlink:href="#DejaVuSans-2d" transform="translate(960.693359 0.015625)"/>
    <use xlink:href="#DejaVuSans-30" transform="translate(996.777344 0.015625)"/>
    <use xlink:href="#DejaVuSans-35" transform="translate(1060.400391 0.015625)"/>
   </g>
   <!-- Peak 4: 0.032 $\pm$ 0.00014 -->
   <g transform="translate(253.44 123.327) scale(0.08 -0.08)">
    <use xlink:href="#DejaVuSans-50" transform="translate(0 0.015625)"/>
    <use xlink:href="#DejaVuSans-65" transform="translate(60.302734 0.015625)"/>
    <use xlink:href="#DejaVuSans-61" transform="translate(121.826172 0.015625)"/>
    <use xlink:href="#DejaVuSans-6b" transform="translate(183.105469 0.015625)"/>
    <use xlink:href="#DejaVuSans-20" transform="translate(241.015625 0.015625)"/>
    <use xlink:href="#DejaVuSans-34" transform="translate(272.802734 0.015625)"/>
    <use xlink:href="#DejaVuSans-3a" transform="translate(336.425781 0.015625)"/>
    <use xlink:href="#DejaVuSans-20" transform="translate(370.117188 0.015625)"/>
    <use xlink:href="#DejaVuSans-30" transform="translate(401.904297 0.015625)"/>
    <use xlink:href="#DejaVuSans-2e" transform="translate(465.527344 0.015625)"/>
    <use xlink:href="#DejaVuSans-30" transform="translate(497.314453 0.015625)"/>
    <use xlink:href="#DejaVuSans-33" transform="translate(560.9375 0.015625)"/>
    <use xlink:href="#DejaVuSans-32" transform="translate(624.560547 0.015625)"/>
    <use xlink:href="#DejaVuSans-20" transform="translate(688.183594 0.015625)"/>
    <use xlink:href="#DejaVuSans-b1" transform="translate(719.970703 0.015625)"/>
    <use xlink:href="#DejaVuSans-20" transform="translate(803.759766 0.015625)"/>
    <use xlink:href="#DejaVuSans-30" transform="translate(835.546875 0.015625)"/>
    <use xlink:href="#DejaVuSans-2e" transform="translate(899.169922 0.015625)"/>
    <use xlink:href="#DejaVuSans-30" transform="translate(930.957031 0.015625)"/>
    <use xlink:href="#DejaVuSans-30" transform="translate(994.580078 0.015625)"/>
    <use xlink:href="#DejaVuSans-30" transform="translate(1058.203125 0.015625)"/>
    <use xlink:href="#DejaVuSans-31" transform="translate(1121.826172 0.015625)"/>
    <use xlink:href="#DejaVuSans-34" transform="translate(1185.449219 0.015625)"/>
   </g>
   <!-- - - -->
   <g transform="translate(253.44 132.28525) scale(0.08 -0.08)">
    <use xlink:href="#DejaVuSans-2d"/>
    <use xlink:href="#DejaVuSans-2d" x="36.083984"/>
   </g>
   <!-- Peak Width () [V] -->
   <g transform="translate(253.44 141.2435) scale(0.08 -0.08)">
    <defs>
     <path id="DejaVuSans-57" d="M 213 4666 
L 850 4666 
L 1831 722 
L 2809 4666 
L 3519 4666 
L 4500 722 
L 5478 4666 
L 6119 4666 
L 4947 0 
L 4153 0 
L 3169 4050 
L 2175 0 
L 1381 0 
L 213 4666 
z
" transform="scale(0.015625)"/>
     <path id="DejaVuSans-68" d="M 3513 2113 
L 3513 0 
L 2938 0 
L 2938 2094 
Q 2938 2591 2744 2837 
Q 2550 3084 2163 3084 
Q 1697 3084 1428 2787 
Q 1159 2491 1159 1978 
L 1159 0 
L 581 0 
L 581 4863 
L 1159 4863 
L 1159 2956 
Q 1366 3272 1645 3428 
Q 1925 3584 2291 3584 
Q 2894 3584 3203 3211 
Q 3513 2838 3513 2113 
z
" transform="scale(0.015625)"/>
     <path id="DejaVuSans-3c3" d="M 1959 3044 
Q 1484 3044 1228 2700 
Q 959 2341 959 1747 
Q 959 1119 1226 758 
Q 1494 397 1959 397 
Q 2419 397 2687 759 
Q 2956 1122 2956 1747 
Q 2956 2319 2688 2700 
Q 2441 3044 1959 3044 
z
M 1959 3500 
L 3869 3500 
L 3869 2925 
L 3225 2925 
Q 3566 2438 3566 1747 
Q 3566 888 3138 400 
Q 2709 -91 1959 -91 
Q 1206 -91 781 400 
Q 353 888 353 1747 
Q 353 2613 781 3097 
Q 1134 3500 1959 3500 
z
" transform="scale(0.015625)"/>
    </defs>
    <use xlink:href="#DejaVuSans-50"/>
    <use xlink:href="#DejaVuSans-65" x="56.677734"/>
    <use xlink:href="#DejaVuSans-61" x="118.201172"/>
    <use xlink:href="#DejaVuSans-6b" x="179.480469"/>
    <use xlink:href="#DejaVuSans-20" x="237.390625"/>
    <use xlink:href="#DejaVuSans-57" x="269.177734"/>
    <use xlink:href="#DejaVuSans-69" x="365.804688"/>
    <use xlink:href="#DejaVuSans-64" x="393.587891"/>
    <use xlink:href="#DejaVuSans-74" x="457.064453"/>
    <use xlink:href="#DejaVuSans-68" x="496.273438"/>
    <use xlink:href="#DejaVuSans-20" x="559.652344"/>
    <use xlink:href="#DejaVuSans-28" x="591.439453"/>
    <use xlink:href="#DejaVuSans-3c3" x="630.453125"/>
    <use xlink:href="#DejaVuSans-29" x="693.832031"/>
    <use xlink:href="#DejaVuSans-20" x="732.845703"/>
    <use xlink:href="#DejaVuSans-5b" x="764.632812"/>
    <use xlink:href="#DejaVuSans-56" x="803.646484"/>
    <use xlink:href="#DejaVuSans-5d" x="872.054688"/>
   </g>
   <!-- 1: 0.0013 $\pm$ 2.9e-05 -->
   <g transform="translate(253.44 150.20175) scale(0.08 -0.08)">
    <use xlink:href="#DejaVuSans-31" transform="translate(0 0.78125)"/>
    <use xlink:href="#DejaVuSans-3a" transform="translate(63.623047 0.78125)"/>
    <use xlink:href="#DejaVuSans-20" transform="translate(97.314453 0.78125)"/>
    <use xlink:href="#DejaVuSans-30" transform="translate(129.101562 0.78125)"/>
    <use xlink:href="#DejaVuSans-2e" transform="translate(192.724609 0.78125)"/>
    <use xlink:href="#DejaVuSans-30" transform="translate(224.511719 0.78125)"/>
    <use xlink:href="#DejaVuSans-30" transform="translate(288.134766 0.78125)"/>
    <use xlink:href="#DejaVuSans-31" transform="translate(351.757812 0.78125)"/>
    <use xlink:href="#DejaVuSans-33" transform="translate(415.380859 0.78125)"/>
    <use xlink:href="#DejaVuSans-20" transform="translate(479.003906 0.78125)"/>
    <use xlink:href="#DejaVuSans-b1" transform="translate(510.791016 0.78125)"/>
    <use xlink:href="#DejaVuSans-20" transform="translate(594.580078 0.78125)"/>
    <use xlink:href="#DejaVuSans-32" transform="translate(626.367188 0.78125)"/>
    <use xlink:href="#DejaVuSans-2e" transform="translate(689.990234 0.78125)"/>
    <use xlink:href="#DejaVuSans-39" transform="translate(721.777344 0.78125)"/>
    <use xlink:href="#DejaVuSans-65" transform="translate(785.400391 0.78125)"/>
    <use xlink:href="#DejaVuSans-2d" transform="translate(846.923828 0.78125)"/>
    <use xlink:href="#DejaVuSans-30" transform="translate(883.007812 0.78125)"/>
    <use xlink:href="#DejaVuSans-35" transform="translate(946.630859 0.78125)"/>
   </g>
   <!-- 2: 0.00143 $\pm$ 6e-05 -->
   <g transform="translate(253.44 159.16) scale(0.08 -0.08)">
    <use xlink:href="#DejaVuSans-32" transform="translate(0 0.78125)"/>
    <use xlink:href="#DejaVuSans-3a" transform="translate(63.623047 0.78125)"/>
    <use xlink:href="#DejaVuSans-20" transform="translate(97.314453 0.78125)"/>
    <use xlink:href="#DejaVuSans-30" transform="translate(129.101562 0.78125)"/>
    <use xlink:href="#DejaVuSans-2e" transform="translate(192.724609 0.78125)"/>
    <use xlink:href="#DejaVuSans-30" transform="translate(224.511719 0.78125)"/>
    <use xlink:href="#DejaVuSans-30" transform="translate(288.134766 0.78125)"/>
    <use xlink:href="#DejaVuSans-31" transform="translate(351.757812 0.78125)"/>
    <use xlink:href="#DejaVuSans-34" transform="translate(415.380859 0.78125)"/>
    <use xlink:href="#DejaVuSans-33" transform="translate(479.003906 0.78125)"/>
    <use xlink:href="#DejaVuSans-20" transform="translate(542.626953 0.78125)"/>
    <use xlink:href="#DejaVuSans-b1" transform="translate(574.414062 0.78125)"/>
    <use xlink:href="#DejaVuSans-20" transform="translate(658.203125 0.78125)"/>
    <use xlink:href="#DejaVuSans-36" transform="translate(689.990234 0.78125)"/>
    <use xlink:href="#DejaVuSans-65" transform="translate(753.613281 0.78125)"/>
    <use xlink:href="#DejaVuSans-2d" transform="translate(815.136719 0.78125)"/>
    <use xlink:href="#DejaVuSans-30" transform="translate(851.220703 0.78125)"/>
    <use xlink:href="#DejaVuSans-35" transform="translate(914.84375 0.78125)"/>
   </g>
   <!-- 3: 0.00131 $\pm$ 8.8e-05 -->
   <g transform="translate(253.44 168.11825) scale(0.08 -0.08)">
    <use xlink:href="#DejaVuSans-33" transform="translate(0 0.78125)"/>
    <use xlink:href="#DejaVuSans-3a" transform="translate(63.623047 0.78125)"/>
    <use xlink:href="#DejaVuSans-20" transform="translate(97.314453 0.78125)"/>
    <use xlink:href="#DejaVuSans-30" transform="translate(129.101562 0.78125)"/>
    <use xlink:href="#DejaVuSans-2e" transform="translate(192.724609 0.78125)"/>
    <use xlink:href="#DejaVuSans-30" transform="translate(224.511719 0.78125)"/>
    <use xlink:href="#DejaVuSans-30" transform="translate(288.134766 0.78125)"/>
    <use xlink:href="#DejaVuSans-31" transform="translate(351.757812 0.78125)"/>
    <use xlink:href="#DejaVuSans-33" transform="translate(415.380859 0.78125)"/>
    <use xlink:href="#DejaVuSans-31" transform="translate(479.003906 0.78125)"/>
    <use xlink:href="#DejaVuSans-20" transform="translate(542.626953 0.78125)"/>
    <use xlink:href="#DejaVuSans-b1" transform="translate(574.414062 0.78125)"/>
    <use xlink:href="#DejaVuSans-20" transform="translate(658.203125 0.78125)"/>
    <use xlink:href="#DejaVuSans-38" transform="translate(689.990234 0.78125)"/>
    <use xlink:href="#DejaVuSans-2e" transform="translate(753.613281 0.78125)"/>
    <use xlink:href="#DejaVuSans-38" transform="translate(782.775391 0.78125)"/>
    <use xlink:href="#DejaVuSans-65" transform="translate(846.398438 0.78125)"/>
    <use xlink:href="#DejaVuSans-2d" transform="translate(907.921875 0.78125)"/>
    <use xlink:href="#DejaVuSans-30" transform="translate(944.005859 0.78125)"/>
    <use xlink:href="#DejaVuSans-35" transform="translate(1007.628906 0.78125)"/>
   </g>
   <!-- 4: 0.00113 $\pm$ 0.00015 -->
   <g transform="translate(253.44 177.0765) scale(0.08 -0.08)">
    <use xlink:href="#DejaVuSans-34" transform="translate(0 0.78125)"/>
    <use xlink:href="#DejaVuSans-3a" transform="translate(63.623047 0.78125)"/>
    <use xlink:href="#DejaVuSans-20" transform="translate(97.314453 0.78125)"/>
    <use xlink:href="#DejaVuSans-30" transform="translate(129.101562 0.78125)"/>
    <use xlink:href="#DejaVuSans-2e" transform="translate(192.724609 0.78125)"/>
    <use xlink:href="#DejaVuSans-30" transform="translate(224.511719 0.78125)"/>
    <use xlink:href="#DejaVuSans-30" transform="translate(288.134766 0.78125)"/>
    <use xlink:href="#DejaVuSans-31" transform="translate(351.757812 0.78125)"/>
    <use xlink:href="#DejaVuSans-31" transform="translate(415.380859 0.78125)"/>
    <use xlink:href="#DejaVuSans-33" transform="translate(479.003906 0.78125)"/>
    <use xlink:href="#DejaVuSans-20" transform="translate(542.626953 0.78125)"/>
    <use xlink:href="#DejaVuSans-b1" transform="translate(574.414062 0.78125)"/>
    <use xlink:href="#DejaVuSans-20" transform="translate(658.203125 0.78125)"/>
    <use xlink:href="#DejaVuSans-30" transform="translate(689.990234 0.78125)"/>
    <use xlink:href="#DejaVuSans-2e" transform="translate(753.613281 0.78125)"/>
    <use xlink:href="#DejaVuSans-30" transform="translate(785.400391 0.78125)"/>
    <use xlink:href="#DejaVuSans-30" transform="translate(849.023438 0.78125)"/>
    <use xlink:href="#DejaVuSans-30" transform="translate(912.646484 0.78125)"/>
    <use xlink:href="#DejaVuSans-31" transform="translate(976.269531 0.78125)"/>
    <use xlink:href="#DejaVuSans-35" transform="translate(1039.892578 0.78125)"/>
   </g>
   <!-- - - -->
   <g transform="translate(253.44 186.03475) scale(0.08 -0.08)">
    <use xlink:href="#DejaVuSans-2d"/>
    <use xlink:href="#DejaVuSans-2d" x="36.083984"/>
   </g>
   <!-- Reduced $\chi^2$: 1.3 -->
   <g transform="translate(253.44 196.4345) scale(0.08 -0.08)">
    <defs>
     <path id="DejaVuSans-Oblique-3c7" d="M 1922 -781 
L 1691 416 
L 394 -1334 
L -284 -1334 
L 1553 1141 
L 1269 2613 
Q 1194 3006 713 3006 
L 559 3006 
L 653 3500 
L 872 3494 
Q 1675 3472 1775 2950 
L 2006 1753 
L 3303 3503 
L 3981 3503 
L 2144 1028 
L 2428 -444 
Q 2503 -838 2984 -838 
L 3138 -838 
L 3044 -1331 
L 2825 -1325 
Q 2022 -1303 1922 -781 
z
" transform="scale(0.015625)"/>
    </defs>
    <use xlink:href="#DejaVuSans-52" transform="translate(0 0.765625)"/>
    <use xlink:href="#DejaVuSans-65" transform="translate(69.482422 0.765625)"/>
    <use xlink:href="#DejaVuSans-64" transform="translate(131.005859 0.765625)"/>
    <use xlink:href="#DejaVuSans-75" transform="translate(194.482422 0.765625)"/>
    <use xlink:href="#DejaVuSans-63" transform="translate(257.861328 0.765625)"/>
    <use xlink:href="#DejaVuSans-65" transform="translate(312.841797 0.765625)"/>
    <use xlink:href="#DejaVuSans-64" transform="translate(374.365234 0.765625)"/>
    <use xlink:href="#DejaVuSans-20" transform="translate(437.841797 0.765625)"/>
    <use xlink:href="#DejaVuSans-Oblique-3c7" transform="translate(469.628906 0.765625)"/>
    <use xlink:href="#DejaVuSans-32" transform="translate(533.281302 39.046875) scale(0.7)"/>
    <use xlink:href="#DejaVuSans-3a" transform="translate(580.55181 0.765625)"/>
    <use xlink:href="#DejaVuSans-20" transform="translate(614.243216 0.765625)"/>
    <use xlink:href="#DejaVuSans-31" transform="translate(646.030326 0.765625)"/>
    <use xlink:href="#DejaVuSans-2e" transform="translate(709.653372 0.765625)"/>
    <use xlink:href="#DejaVuSans-33" transform="translate(741.440482 0.765625)"/>
   </g>
   <!-- $\frac{\mu_{i+1}-\mu_{i}}{\sqrt{\sigma_{i+1}+\sigma_{i}}}$ =  1-2: 4.1; 2-3: 4.0; -->
   <g transform="translate(253.44 207.4265) scale(0.08 -0.08)">
    <defs>
     <path id="DejaVuSans-Oblique-69" d="M 1172 4863 
L 1747 4863 
L 1606 4134 
L 1031 4134 
L 1172 4863 
z
M 909 3500 
L 1484 3500 
L 800 0 
L 225 0 
L 909 3500 
z
" transform="scale(0.015625)"/>
     <path id="DejaVuSans-2b" d="M 2944 4013 
L 2944 2272 
L 4684 2272 
L 4684 1741 
L 2944 1741 
L 2944 0 
L 2419 0 
L 2419 1741 
L 678 1741 
L 678 2272 
L 2419 2272 
L 2419 4013 
L 2944 4013 
z
" transform="scale(0.015625)"/>
     <path id="DejaVuSans-2212" d="M 678 2272 
L 4684 2272 
L 4684 1741 
L 678 1741 
L 678 2272 
z
" transform="scale(0.015625)"/>
     <path id="STIXSizeOneSym-Regular-221a" d="M 6970 9933 
L 3373 -1888 
L 3104 -1888 
L 1626 2918 
Q 1555 3149 1465 3251 
Q 1376 3354 1229 3354 
Q 1011 3354 794 3181 
L 717 3309 
L 1766 4115 
L 1926 4115 
L 3379 -602 
L 3405 -602 
L 6605 9933 
L 6970 9933 
z
" transform="scale(0.015625)"/>
     <path id="DejaVuSans-Oblique-3c3" d="M 2219 3044 
Q 1744 3044 1422 2700 
Q 1081 2341 969 1747 
Q 844 1119 1044 756 
Q 1241 397 1706 397 
Q 2166 397 2503 759 
Q 2844 1122 2966 1747 
Q 3075 2319 2881 2700 
Q 2700 3044 2219 3044 
z
M 2309 3503 
L 4219 3500 
L 4106 2925 
L 3463 2925 
Q 3706 2438 3575 1747 
Q 3406 888 2884 400 
Q 2359 -91 1609 -91 
Q 856 -91 525 400 
Q 194 888 363 1747 
Q 528 2609 1050 3097 
Q 1484 3503 2309 3503 
z
" transform="scale(0.015625)"/>
     <path id="DejaVuSans-3d" d="M 678 2906 
L 4684 2906 
L 4684 2381 
L 678 2381 
L 678 2906 
z
M 678 1631 
L 4684 1631 
L 4684 1100 
L 678 1100 
L 678 1631 
z
" transform="scale(0.015625)"/>
     <path id="DejaVuSans-3b" d="M 750 3309 
L 1409 3309 
L 1409 2516 
L 750 2516 
L 750 3309 
z
M 750 794 
L 1409 794 
L 1409 256 
L 897 -744 
L 494 -744 
L 750 256 
L 750 794 
z
" transform="scale(0.015625)"/>
    </defs>
    <use xlink:href="#DejaVuSans-Oblique-3bc" transform="translate(31 58.71875) scale(0.7)"/>
    <use xlink:href="#DejaVuSans-Oblique-69" transform="translate(75.536133 47.234375) scale(0.49)"/>
    <use xlink:href="#DejaVuSans-2b" transform="translate(98.696289 47.234375) scale(0.49)"/>
    <use xlink:href="#DejaVuSans-31" transform="translate(149.299316 47.234375) scale(0.49)"/>
    <use xlink:href="#DejaVuSans-2212" transform="translate(196.026367 58.71875) scale(0.7)"/>
    <use xlink:href="#DejaVuSans-Oblique-3bc" transform="translate(268.316406 58.71875) scale(0.7)"/>
    <use xlink:href="#DejaVuSans-Oblique-69" transform="translate(312.852539 47.234375) scale(0.49)"/>
    <use xlink:href="#STIXSizeOneSym-Regular-221a" transform="translate(0 -56.476562) scale(0.418247)"/>
    <use xlink:href="#DejaVuSans-Oblique-3c3" transform="translate(52.959012 -57.35625) scale(0.7)"/>
    <use xlink:href="#DejaVuSans-Oblique-69" transform="translate(97.324246 -68.840625) scale(0.49)"/>
    <use xlink:href="#DejaVuSans-2b" transform="translate(120.484402 -68.840625) scale(0.49)"/>
    <use xlink:href="#DejaVuSans-31" transform="translate(171.08743 -68.840625) scale(0.49)"/>
    <use xlink:href="#DejaVuSans-2b" transform="translate(217.814481 -57.35625) scale(0.7)"/>
    <use xlink:href="#DejaVuSans-Oblique-3c3" transform="translate(290.10452 -57.35625) scale(0.7)"/>
    <use xlink:href="#DejaVuSans-Oblique-69" transform="translate(334.469754 -68.840625) scale(0.49)"/>
    <use xlink:href="#DejaVuSans-20" transform="translate(371.247586 0.364063)"/>
    <use xlink:href="#DejaVuSans-3d" transform="translate(403.034695 0.364063)"/>
    <use xlink:href="#DejaVuSans-20" transform="translate(486.823758 0.364063)"/>
    <use xlink:href="#DejaVuSans-20" transform="translate(518.610867 0.364063)"/>
    <use xlink:href="#DejaVuSans-31" transform="translate(550.397977 0.364063)"/>
    <use xlink:href="#DejaVuSans-2d" transform="translate(614.021024 0.364063)"/>
    <use xlink:href="#DejaVuSans-32" transform="translate(650.105008 0.364063)"/>
    <use xlink:href="#DejaVuSans-3a" transform="translate(713.728055 0.364063)"/>
    <use xlink:href="#DejaVuSans-20" transform="translate(747.419461 0.364063)"/>
    <use xlink:href="#DejaVuSans-34" transform="translate(779.20657 0.364063)"/>
    <use xlink:href="#DejaVuSans-2e" transform="translate(842.829617 0.364063)"/>
    <use xlink:href="#DejaVuSans-31" transform="translate(874.616727 0.364063)"/>
    <use xlink:href="#DejaVuSans-3b" transform="translate(938.239774 0.364063)"/>
    <use xlink:href="#DejaVuSans-20" transform="translate(971.93118 0.364063)"/>
    <use xlink:href="#DejaVuSans-32" transform="translate(1003.718289 0.364063)"/>
    <use xlink:href="#DejaVuSans-2d" transform="translate(1067.341336 0.364063)"/>
    <use xlink:href="#DejaVuSans-33" transform="translate(1103.42532 0.364063)"/>
    <use xlink:href="#DejaVuSans-3a" transform="translate(1167.048367 0.364063)"/>
    <use xlink:href="#DejaVuSans-20" transform="translate(1200.739774 0.364063)"/>
    <use xlink:href="#DejaVuSans-34" transform="translate(1232.526883 0.364063)"/>
    <use xlink:href="#DejaVuSans-2e" transform="translate(1296.14993 0.364063)"/>
    <use xlink:href="#DejaVuSans-30" transform="translate(1327.937039 0.364063)"/>
    <use xlink:href="#DejaVuSans-3b" transform="translate(1391.560086 0.364063)"/>
    <path d="M 0 19.160938 
L 0 25.410938 
L 358.747586 25.410938 
L 358.747586 19.160938 
L 0 19.160938 
z
"/>
    <path d="M 44.209012 4.160938 
L 44.209012 8.535938 
L 358.747586 8.535938 
L 358.747586 4.160938 
L 44.209012 4.160938 
z
"/>
   </g>
   <!--  3-4: 4.6 -->
   <g transform="translate(253.44 220.321) scale(0.08 -0.08)">
    <use xlink:href="#DejaVuSans-20"/>
    <use xlink:href="#DejaVuSans-33" x="31.787109"/>
    <use xlink:href="#DejaVuSans-2d" x="95.410156"/>
    <use xlink:href="#DejaVuSans-34" x="131.494141"/>
    <use xlink:href="#DejaVuSans-3a" x="195.117188"/>
    <use xlink:href="#DejaVuSans-20" x="228.808594"/>
    <use xlink:href="#DejaVuSans-34" x="260.595703"/>
    <use xlink:href="#DejaVuSans-2e" x="324.21875"/>
    <use xlink:href="#DejaVuSans-36" x="356.005859"/>
   </g>
  </g>
 </g>
 <defs>
  <clipPath id="pf2ac801466">
   <rect x="59.69" y="12.96" width="388.15" height="282.76"/>
  </clipPath>
 </defs>
</svg>
