<?xml version="1.0" encoding="utf-8" standalone="no"?>
<!DOCTYPE svg PUBLIC "-//W3C//DTD SVG 1.1//EN"
  "http://www.w3.org/Graphics/SVG/1.1/DTD/svg11.dtd">
<svg xmlns:xlink="http://www.w3.org/1999/xlink" width="460.8pt" height="345.6pt" viewBox="0 0 460.8 345.6" xmlns="http://www.w3.org/2000/svg" version="1.1">
 <metadata>
  <rdf:RDF xmlns:dc="http://purl.org/dc/elements/1.1/" xmlns:cc="http://creativecommons.org/ns#" xmlns:rdf="http://www.w3.org/1999/02/22-rdf-syntax-ns#">
   <cc:Work>
    <dc:type rdf:resource="http://purl.org/dc/dcmitype/StillImage"/>
    <dc:date>2025-07-23T11:22:48.380821</dc:date>
    <dc:format>image/svg+xml</dc:format>
    <dc:creator>
     <cc:Agent>
      <dc:title>Matplotlib v3.9.2, https://matplotlib.org/</dc:title>
     </cc:Agent>
    </dc:creator>
   </cc:Work>
  </rdf:RDF>
 </metadata>
 <defs>
  <style type="text/css">*{stroke-linejoin: round; stroke-linecap: butt}</style>
 </defs>
 <g id="figure_1">
  <g id="patch_1">
   <path d="M 0 345.6 
L 460.8 345.6 
L 460.8 0 
L 0 0 
z
" style="fill: #ffffff"/>
  </g>
  <g id="axes_1">
   <g id="patch_2">
    <path d="M 59.69 295.72 
L 447.84 295.72 
L 447.84 12.96 
L 59.69 12.96 
z
" style="fill: #ffffff"/>
   </g>
   <g id="patch_3">
    <path d="M 77.333182 295.72 
L 81.79981 295.72 
L 81.79981 116.189841 
L 77.333182 116.189841 
z
" clip-path="url(#p695a67c451)" style="fill: #1f77b4"/>
   </g>
   <g id="patch_4">
    <path d="M 81.79981 295.72 
L 86.266438 295.72 
L 86.266438 115.350915 
L 81.79981 115.350915 
z
" clip-path="url(#p695a67c451)" style="fill: #1f77b4"/>
   </g>
   <g id="patch_5">
    <path d="M 86.266438 295.72 
L 90.733067 295.72 
L 90.733067 77.599246 
L 86.266438 77.599246 
z
" clip-path="url(#p695a67c451)" style="fill: #1f77b4"/>
   </g>
   <g id="patch_6">
    <path d="M 90.733067 295.72 
L 95.199695 295.72 
L 95.199695 33.975096 
L 90.733067 33.975096 
z
" clip-path="url(#p695a67c451)" style="fill: #1f77b4"/>
   </g>
   <g id="patch_7">
    <path d="M 95.199695 295.72 
L 99.666323 295.72 
L 99.666323 26.424762 
L 95.199695 26.424762 
z
" clip-path="url(#p695a67c451)" style="fill: #1f77b4"/>
   </g>
   <g id="patch_8">
    <path d="M 99.666323 295.72 
L 104.132952 295.72 
L 104.132952 53.270393 
L 99.666323 53.270393 
z
" clip-path="url(#p695a67c451)" style="fill: #1f77b4"/>
   </g>
   <g id="patch_9">
    <path d="M 104.132952 295.72 
L 108.59958 295.72 
L 108.59958 26.424762 
L 104.132952 26.424762 
z
" clip-path="url(#p695a67c451)" style="fill: #1f77b4"/>
   </g>
   <g id="patch_10">
    <path d="M 108.59958 295.72 
L 113.066208 295.72 
L 113.066208 37.3308 
L 108.59958 37.3308 
z
" clip-path="url(#p695a67c451)" style="fill: #1f77b4"/>
   </g>
   <g id="patch_11">
    <path d="M 113.066208 295.72 
L 117.532837 295.72 
L 117.532837 70.887839 
L 113.066208 70.887839 
z
" clip-path="url(#p695a67c451)" style="fill: #1f77b4"/>
   </g>
   <g id="patch_12">
    <path d="M 117.532837 295.72 
L 121.999465 295.72 
L 121.999465 101.9281 
L 117.532837 101.9281 
z
" clip-path="url(#p695a67c451)" style="fill: #1f77b4"/>
   </g>
   <g id="patch_13">
    <path d="M 121.999465 295.72 
L 126.466093 295.72 
L 126.466093 122.901249 
L 121.999465 122.901249 
z
" clip-path="url(#p695a67c451)" style="fill: #1f77b4"/>
   </g>
   <g id="patch_14">
    <path d="M 126.466093 295.72 
L 130.932722 295.72 
L 130.932722 138.001917 
L 126.466093 138.001917 
z
" clip-path="url(#p695a67c451)" style="fill: #1f77b4"/>
   </g>
   <g id="patch_15">
    <path d="M 130.932722 295.72 
L 135.39935 295.72 
L 135.39935 190.854253 
L 130.932722 190.854253 
z
" clip-path="url(#p695a67c451)" style="fill: #1f77b4"/>
   </g>
   <g id="patch_16">
    <path d="M 135.39935 295.72 
L 139.865978 295.72 
L 139.865978 192.532105 
L 135.39935 192.532105 
z
" clip-path="url(#p695a67c451)" style="fill: #1f77b4"/>
   </g>
   <g id="patch_17">
    <path d="M 139.865978 295.72 
L 144.332606 295.72 
L 144.332606 216.022032 
L 139.865978 216.022032 
z
" clip-path="url(#p695a67c451)" style="fill: #1f77b4"/>
   </g>
   <g id="patch_18">
    <path d="M 144.332606 295.72 
L 148.799235 295.72 
L 148.799235 233.639478 
L 144.332606 233.639478 
z
" clip-path="url(#p695a67c451)" style="fill: #1f77b4"/>
   </g>
   <g id="patch_19">
    <path d="M 148.799235 295.72 
L 153.265863 295.72 
L 153.265863 239.51196 
L 148.799235 239.51196 
z
" clip-path="url(#p695a67c451)" style="fill: #1f77b4"/>
   </g>
   <g id="patch_20">
    <path d="M 153.265863 295.72 
L 157.732491 295.72 
L 157.732491 235.31733 
L 153.265863 235.31733 
z
" clip-path="url(#p695a67c451)" style="fill: #1f77b4"/>
   </g>
   <g id="patch_21">
    <path d="M 157.732491 295.72 
L 162.19912 295.72 
L 162.19912 247.062293 
L 157.732491 247.062293 
z
" clip-path="url(#p695a67c451)" style="fill: #1f77b4"/>
   </g>
   <g id="patch_22">
    <path d="M 162.19912 295.72 
L 166.665748 295.72 
L 166.665748 240.350886 
L 162.19912 240.350886 
z
" clip-path="url(#p695a67c451)" style="fill: #1f77b4"/>
   </g>
   <g id="patch_23">
    <path d="M 166.665748 295.72 
L 171.132376 295.72 
L 171.132376 233.639478 
L 166.665748 233.639478 
z
" clip-path="url(#p695a67c451)" style="fill: #1f77b4"/>
   </g>
   <g id="patch_24">
    <path d="M 171.132376 295.72 
L 175.599005 295.72 
L 175.599005 229.444848 
L 171.132376 229.444848 
z
" clip-path="url(#p695a67c451)" style="fill: #1f77b4"/>
   </g>
   <g id="patch_25">
    <path d="M 175.599005 295.72 
L 180.065633 295.72 
L 180.065633 205.954921 
L 175.599005 205.954921 
z
" clip-path="url(#p695a67c451)" style="fill: #1f77b4"/>
   </g>
   <g id="patch_26">
    <path d="M 180.065633 295.72 
L 184.532261 295.72 
L 184.532261 204.277069 
L 180.065633 204.277069 
z
" clip-path="url(#p695a67c451)" style="fill: #1f77b4"/>
   </g>
   <g id="patch_27">
    <path d="M 184.532261 295.72 
L 188.99889 295.72 
L 188.99889 210.149551 
L 184.532261 210.149551 
z
" clip-path="url(#p695a67c451)" style="fill: #1f77b4"/>
   </g>
   <g id="patch_28">
    <path d="M 188.99889 295.72 
L 193.465518 295.72 
L 193.465518 214.34418 
L 188.99889 214.34418 
z
" clip-path="url(#p695a67c451)" style="fill: #1f77b4"/>
   </g>
   <g id="patch_29">
    <path d="M 193.465518 295.72 
L 197.932146 295.72 
L 197.932146 199.243513 
L 193.465518 199.243513 
z
" clip-path="url(#p695a67c451)" style="fill: #1f77b4"/>
   </g>
   <g id="patch_30">
    <path d="M 197.932146 295.72 
L 202.398774 295.72 
L 202.398774 194.209957 
L 197.932146 194.209957 
z
" clip-path="url(#p695a67c451)" style="fill: #1f77b4"/>
   </g>
   <g id="patch_31">
    <path d="M 202.398774 295.72 
L 206.865403 295.72 
L 206.865403 210.988476 
L 202.398774 210.988476 
z
" clip-path="url(#p695a67c451)" style="fill: #1f77b4"/>
   </g>
   <g id="patch_32">
    <path d="M 206.865403 295.72 
L 211.332031 295.72 
L 211.332031 199.243513 
L 206.865403 199.243513 
z
" clip-path="url(#p695a67c451)" style="fill: #1f77b4"/>
   </g>
   <g id="patch_33">
    <path d="M 211.332031 295.72 
L 215.798659 295.72 
L 215.798659 214.34418 
L 211.332031 214.34418 
z
" clip-path="url(#p695a67c451)" style="fill: #1f77b4"/>
   </g>
   <g id="patch_34">
    <path d="M 215.798659 295.72 
L 220.265288 295.72 
L 220.265288 229.444848 
L 215.798659 229.444848 
z
" clip-path="url(#p695a67c451)" style="fill: #1f77b4"/>
   </g>
   <g id="patch_35">
    <path d="M 220.265288 295.72 
L 224.731916 295.72 
L 224.731916 242.867664 
L 220.265288 242.867664 
z
" clip-path="url(#p695a67c451)" style="fill: #1f77b4"/>
   </g>
   <g id="patch_36">
    <path d="M 224.731916 295.72 
L 229.198544 295.72 
L 229.198544 242.028738 
L 224.731916 242.028738 
z
" clip-path="url(#p695a67c451)" style="fill: #1f77b4"/>
   </g>
   <g id="patch_37">
    <path d="M 229.198544 295.72 
L 233.665173 295.72 
L 233.665173 254.612627 
L 229.198544 254.612627 
z
" clip-path="url(#p695a67c451)" style="fill: #1f77b4"/>
   </g>
   <g id="patch_38">
    <path d="M 233.665173 295.72 
L 238.131801 295.72 
L 238.131801 268.035443 
L 233.665173 268.035443 
z
" clip-path="url(#p695a67c451)" style="fill: #1f77b4"/>
   </g>
   <g id="patch_39">
    <path d="M 238.131801 295.72 
L 242.598429 295.72 
L 242.598429 253.773701 
L 238.131801 253.773701 
z
" clip-path="url(#p695a67c451)" style="fill: #1f77b4"/>
   </g>
   <g id="patch_40">
    <path d="M 242.598429 295.72 
L 247.065058 295.72 
L 247.065058 269.713295 
L 242.598429 269.713295 
z
" clip-path="url(#p695a67c451)" style="fill: #1f77b4"/>
   </g>
   <g id="patch_41">
    <path d="M 247.065058 295.72 
L 251.531686 295.72 
L 251.531686 268.035443 
L 247.065058 268.035443 
z
" clip-path="url(#p695a67c451)" style="fill: #1f77b4"/>
   </g>
   <g id="patch_42">
    <path d="M 251.531686 295.72 
L 255.998314 295.72 
L 255.998314 274.746851 
L 251.531686 274.746851 
z
" clip-path="url(#p695a67c451)" style="fill: #1f77b4"/>
   </g>
   <g id="patch_43">
    <path d="M 255.998314 295.72 
L 260.464942 295.72 
L 260.464942 270.552221 
L 255.998314 270.552221 
z
" clip-path="url(#p695a67c451)" style="fill: #1f77b4"/>
   </g>
   <g id="patch_44">
    <path d="M 260.464942 295.72 
L 264.931571 295.72 
L 264.931571 273.907925 
L 260.464942 273.907925 
z
" clip-path="url(#p695a67c451)" style="fill: #1f77b4"/>
   </g>
   <g id="patch_45">
    <path d="M 264.931571 295.72 
L 269.398199 295.72 
L 269.398199 270.552221 
L 264.931571 270.552221 
z
" clip-path="url(#p695a67c451)" style="fill: #1f77b4"/>
   </g>
   <g id="patch_46">
    <path d="M 269.398199 295.72 
L 273.864827 295.72 
L 273.864827 257.968331 
L 269.398199 257.968331 
z
" clip-path="url(#p695a67c451)" style="fill: #1f77b4"/>
   </g>
   <g id="patch_47">
    <path d="M 273.864827 295.72 
L 278.331456 295.72 
L 278.331456 260.485109 
L 273.864827 260.485109 
z
" clip-path="url(#p695a67c451)" style="fill: #1f77b4"/>
   </g>
   <g id="patch_48">
    <path d="M 278.331456 295.72 
L 282.798084 295.72 
L 282.798084 249.579071 
L 278.331456 249.579071 
z
" clip-path="url(#p695a67c451)" style="fill: #1f77b4"/>
   </g>
   <g id="patch_49">
    <path d="M 282.798084 295.72 
L 287.264712 295.72 
L 287.264712 250.417997 
L 282.798084 250.417997 
z
" clip-path="url(#p695a67c451)" style="fill: #1f77b4"/>
   </g>
   <g id="patch_50">
    <path d="M 287.264712 295.72 
L 291.731341 295.72 
L 291.731341 250.417997 
L 287.264712 250.417997 
z
" clip-path="url(#p695a67c451)" style="fill: #1f77b4"/>
   </g>
   <g id="patch_51">
    <path d="M 291.731341 295.72 
L 296.197969 295.72 
L 296.197969 253.773701 
L 291.731341 253.773701 
z
" clip-path="url(#p695a67c451)" style="fill: #1f77b4"/>
   </g>
   <g id="patch_52">
    <path d="M 296.197969 295.72 
L 300.664597 295.72 
L 300.664597 249.579071 
L 296.197969 249.579071 
z
" clip-path="url(#p695a67c451)" style="fill: #1f77b4"/>
   </g>
   <g id="patch_53">
    <path d="M 300.664597 295.72 
L 305.131226 295.72 
L 305.131226 253.773701 
L 300.664597 253.773701 
z
" clip-path="url(#p695a67c451)" style="fill: #1f77b4"/>
   </g>
   <g id="patch_54">
    <path d="M 305.131226 295.72 
L 309.597854 295.72 
L 309.597854 255.451553 
L 305.131226 255.451553 
z
" clip-path="url(#p695a67c451)" style="fill: #1f77b4"/>
   </g>
   <g id="patch_55">
    <path d="M 309.597854 295.72 
L 314.064482 295.72 
L 314.064482 262.162961 
L 309.597854 262.162961 
z
" clip-path="url(#p695a67c451)" style="fill: #1f77b4"/>
   </g>
   <g id="patch_56">
    <path d="M 314.064482 295.72 
L 318.53111 295.72 
L 318.53111 250.417997 
L 314.064482 250.417997 
z
" clip-path="url(#p695a67c451)" style="fill: #1f77b4"/>
   </g>
   <g id="patch_57">
    <path d="M 318.53111 295.72 
L 322.997739 295.72 
L 322.997739 275.585777 
L 318.53111 275.585777 
z
" clip-path="url(#p695a67c451)" style="fill: #1f77b4"/>
   </g>
   <g id="patch_58">
    <path d="M 322.997739 295.72 
L 327.464367 295.72 
L 327.464367 270.552221 
L 322.997739 270.552221 
z
" clip-path="url(#p695a67c451)" style="fill: #1f77b4"/>
   </g>
   <g id="patch_59">
    <path d="M 327.464367 295.72 
L 331.930995 295.72 
L 331.930995 273.068999 
L 327.464367 273.068999 
z
" clip-path="url(#p695a67c451)" style="fill: #1f77b4"/>
   </g>
   <g id="patch_60">
    <path d="M 331.930995 295.72 
L 336.397624 295.72 
L 336.397624 283.975036 
L 331.930995 283.975036 
z
" clip-path="url(#p695a67c451)" style="fill: #1f77b4"/>
   </g>
   <g id="patch_61">
    <path d="M 336.397624 295.72 
L 340.864252 295.72 
L 340.864252 278.94148 
L 336.397624 278.94148 
z
" clip-path="url(#p695a67c451)" style="fill: #1f77b4"/>
   </g>
   <g id="patch_62">
    <path d="M 340.864252 295.72 
L 345.33088 295.72 
L 345.33088 277.263629 
L 340.864252 277.263629 
z
" clip-path="url(#p695a67c451)" style="fill: #1f77b4"/>
   </g>
   <g id="patch_63">
    <path d="M 345.33088 295.72 
L 349.797509 295.72 
L 349.797509 284.813962 
L 345.33088 284.813962 
z
" clip-path="url(#p695a67c451)" style="fill: #1f77b4"/>
   </g>
   <g id="patch_64">
    <path d="M 349.797509 295.72 
L 354.264137 295.72 
L 354.264137 283.975036 
L 349.797509 283.975036 
z
" clip-path="url(#p695a67c451)" style="fill: #1f77b4"/>
   </g>
   <g id="patch_65">
    <path d="M 354.264137 295.72 
L 358.730765 295.72 
L 358.730765 286.491814 
L 354.264137 286.491814 
z
" clip-path="url(#p695a67c451)" style="fill: #1f77b4"/>
   </g>
   <g id="patch_66">
    <path d="M 358.730765 295.72 
L 363.197394 295.72 
L 363.197394 277.263629 
L 358.730765 277.263629 
z
" clip-path="url(#p695a67c451)" style="fill: #1f77b4"/>
   </g>
   <g id="patch_67">
    <path d="M 363.197394 295.72 
L 367.664022 295.72 
L 367.664022 281.458258 
L 363.197394 281.458258 
z
" clip-path="url(#p695a67c451)" style="fill: #1f77b4"/>
   </g>
   <g id="patch_68">
    <path d="M 367.664022 295.72 
L 372.13065 295.72 
L 372.13065 283.13611 
L 367.664022 283.13611 
z
" clip-path="url(#p695a67c451)" style="fill: #1f77b4"/>
   </g>
   <g id="patch_69">
    <path d="M 372.13065 295.72 
L 376.597278 295.72 
L 376.597278 280.619332 
L 372.13065 280.619332 
z
" clip-path="url(#p695a67c451)" style="fill: #1f77b4"/>
   </g>
   <g id="patch_70">
    <path d="M 376.597278 295.72 
L 381.063907 295.72 
L 381.063907 278.102555 
L 376.597278 278.102555 
z
" clip-path="url(#p695a67c451)" style="fill: #1f77b4"/>
   </g>
   <g id="patch_71">
    <path d="M 381.063907 295.72 
L 385.530535 295.72 
L 385.530535 274.746851 
L 381.063907 274.746851 
z
" clip-path="url(#p695a67c451)" style="fill: #1f77b4"/>
   </g>
   <g id="patch_72">
    <path d="M 385.530535 295.72 
L 389.997163 295.72 
L 389.997163 273.907925 
L 385.530535 273.907925 
z
" clip-path="url(#p695a67c451)" style="fill: #1f77b4"/>
   </g>
   <g id="patch_73">
    <path d="M 389.997163 295.72 
L 394.463792 295.72 
L 394.463792 281.458258 
L 389.997163 281.458258 
z
" clip-path="url(#p695a67c451)" style="fill: #1f77b4"/>
   </g>
   <g id="patch_74">
    <path d="M 394.463792 295.72 
L 398.93042 295.72 
L 398.93042 282.297184 
L 394.463792 282.297184 
z
" clip-path="url(#p695a67c451)" style="fill: #1f77b4"/>
   </g>
   <g id="patch_75">
    <path d="M 398.93042 295.72 
L 403.397048 295.72 
L 403.397048 272.230073 
L 398.93042 272.230073 
z
" clip-path="url(#p695a67c451)" style="fill: #1f77b4"/>
   </g>
   <g id="patch_76">
    <path d="M 403.397048 295.72 
L 407.863677 295.72 
L 407.863677 269.713295 
L 403.397048 269.713295 
z
" clip-path="url(#p695a67c451)" style="fill: #1f77b4"/>
   </g>
   <g id="patch_77">
    <path d="M 407.863677 295.72 
L 412.330305 295.72 
L 412.330305 276.424703 
L 407.863677 276.424703 
z
" clip-path="url(#p695a67c451)" style="fill: #1f77b4"/>
   </g>
   <g id="patch_78">
    <path d="M 412.330305 295.72 
L 416.796933 295.72 
L 416.796933 288.169666 
L 412.330305 288.169666 
z
" clip-path="url(#p695a67c451)" style="fill: #1f77b4"/>
   </g>
   <g id="patch_79">
    <path d="M 416.796933 295.72 
L 421.263562 295.72 
L 421.263562 279.780406 
L 416.796933 279.780406 
z
" clip-path="url(#p695a67c451)" style="fill: #1f77b4"/>
   </g>
   <g id="patch_80">
    <path d="M 421.263562 295.72 
L 425.73019 295.72 
L 425.73019 283.13611 
L 421.263562 283.13611 
z
" clip-path="url(#p695a67c451)" style="fill: #1f77b4"/>
   </g>
   <g id="patch_81">
    <path d="M 425.73019 295.72 
L 430.196818 295.72 
L 430.196818 286.491814 
L 425.73019 286.491814 
z
" clip-path="url(#p695a67c451)" style="fill: #1f77b4"/>
   </g>
   <g id="matplotlib.axis_1">
    <g id="xtick_1">
     <g id="line2d_1">
      <path d="M 91.00977 295.72 
L 91.00977 12.96 
" clip-path="url(#p695a67c451)" style="fill: none; stroke: #b0b0b0; stroke-width: 0.8; stroke-linecap: square"/>
     </g>
     <g id="line2d_2">
      <defs>
       <path id="m70ff1f2e4d" d="M 0 0 
L 0 3.5 
" style="stroke: #000000; stroke-width: 0.8"/>
      </defs>
      <g>
       <use xlink:href="#m70ff1f2e4d" x="91.00977" y="295.72" style="stroke: #000000; stroke-width: 0.8"/>
      </g>
     </g>
     <g id="text_1">
      <!-- 0.0050 -->
      <g transform="translate(70.015395 311.838125) scale(0.12 -0.12)">
       <defs>
        <path id="DejaVuSans-30" d="M 2034 4250 
Q 1547 4250 1301 3770 
Q 1056 3291 1056 2328 
Q 1056 1369 1301 889 
Q 1547 409 2034 409 
Q 2525 409 2770 889 
Q 3016 1369 3016 2328 
Q 3016 3291 2770 3770 
Q 2525 4250 2034 4250 
z
M 2034 4750 
Q 2819 4750 3233 4129 
Q 3647 3509 3647 2328 
Q 3647 1150 3233 529 
Q 2819 -91 2034 -91 
Q 1250 -91 836 529 
Q 422 1150 422 2328 
Q 422 3509 836 4129 
Q 1250 4750 2034 4750 
z
" transform="scale(0.015625)"/>
        <path id="DejaVuSans-2e" d="M 684 794 
L 1344 794 
L 1344 0 
L 684 0 
L 684 794 
z
" transform="scale(0.015625)"/>
        <path id="DejaVuSans-35" d="M 691 4666 
L 3169 4666 
L 3169 4134 
L 1269 4134 
L 1269 2991 
Q 1406 3038 1543 3061 
Q 1681 3084 1819 3084 
Q 2600 3084 3056 2656 
Q 3513 2228 3513 1497 
Q 3513 744 3044 326 
Q 2575 -91 1722 -91 
Q 1428 -91 1123 -41 
Q 819 9 494 109 
L 494 744 
Q 775 591 1075 516 
Q 1375 441 1709 441 
Q 2250 441 2565 725 
Q 2881 1009 2881 1497 
Q 2881 1984 2565 2268 
Q 2250 2553 1709 2553 
Q 1456 2553 1204 2497 
Q 953 2441 691 2322 
L 691 4666 
z
" transform="scale(0.015625)"/>
       </defs>
       <use xlink:href="#DejaVuSans-30"/>
       <use xlink:href="#DejaVuSans-2e" x="63.623047"/>
       <use xlink:href="#DejaVuSans-30" x="95.410156"/>
       <use xlink:href="#DejaVuSans-30" x="159.033203"/>
       <use xlink:href="#DejaVuSans-35" x="222.65625"/>
       <use xlink:href="#DejaVuSans-30" x="286.279297"/>
      </g>
     </g>
    </g>
    <g id="xtick_2">
     <g id="line2d_3">
      <path d="M 138.202932 295.72 
L 138.202932 12.96 
" clip-path="url(#p695a67c451)" style="fill: none; stroke: #b0b0b0; stroke-width: 0.8; stroke-linecap: square"/>
     </g>
     <g id="line2d_4">
      <g>
       <use xlink:href="#m70ff1f2e4d" x="138.202932" y="295.72" style="stroke: #000000; stroke-width: 0.8"/>
      </g>
     </g>
     <g id="text_2">
      <!-- 0.0075 -->
      <g transform="translate(117.208557 311.838125) scale(0.12 -0.12)">
       <defs>
        <path id="DejaVuSans-37" d="M 525 4666 
L 3525 4666 
L 3525 4397 
L 1831 0 
L 1172 0 
L 2766 4134 
L 525 4134 
L 525 4666 
z
" transform="scale(0.015625)"/>
       </defs>
       <use xlink:href="#DejaVuSans-30"/>
       <use xlink:href="#DejaVuSans-2e" x="63.623047"/>
       <use xlink:href="#DejaVuSans-30" x="95.410156"/>
       <use xlink:href="#DejaVuSans-30" x="159.033203"/>
       <use xlink:href="#DejaVuSans-37" x="222.65625"/>
       <use xlink:href="#DejaVuSans-35" x="286.279297"/>
      </g>
     </g>
    </g>
    <g id="xtick_3">
     <g id="line2d_5">
      <path d="M 185.396094 295.72 
L 185.396094 12.96 
" clip-path="url(#p695a67c451)" style="fill: none; stroke: #b0b0b0; stroke-width: 0.8; stroke-linecap: square"/>
     </g>
     <g id="line2d_6">
      <g>
       <use xlink:href="#m70ff1f2e4d" x="185.396094" y="295.72" style="stroke: #000000; stroke-width: 0.8"/>
      </g>
     </g>
     <g id="text_3">
      <!-- 0.0100 -->
      <g transform="translate(164.401719 311.838125) scale(0.12 -0.12)">
       <defs>
        <path id="DejaVuSans-31" d="M 794 531 
L 1825 531 
L 1825 4091 
L 703 3866 
L 703 4441 
L 1819 4666 
L 2450 4666 
L 2450 531 
L 3481 531 
L 3481 0 
L 794 0 
L 794 531 
z
" transform="scale(0.015625)"/>
       </defs>
       <use xlink:href="#DejaVuSans-30"/>
       <use xlink:href="#DejaVuSans-2e" x="63.623047"/>
       <use xlink:href="#DejaVuSans-30" x="95.410156"/>
       <use xlink:href="#DejaVuSans-31" x="159.033203"/>
       <use xlink:href="#DejaVuSans-30" x="222.65625"/>
       <use xlink:href="#DejaVuSans-30" x="286.279297"/>
      </g>
     </g>
    </g>
    <g id="xtick_4">
     <g id="line2d_7">
      <path d="M 232.589257 295.72 
L 232.589257 12.96 
" clip-path="url(#p695a67c451)" style="fill: none; stroke: #b0b0b0; stroke-width: 0.8; stroke-linecap: square"/>
     </g>
     <g id="line2d_8">
      <g>
       <use xlink:href="#m70ff1f2e4d" x="232.589257" y="295.72" style="stroke: #000000; stroke-width: 0.8"/>
      </g>
     </g>
     <g id="text_4">
      <!-- 0.0125 -->
      <g transform="translate(211.594882 311.838125) scale(0.12 -0.12)">
       <defs>
        <path id="DejaVuSans-32" d="M 1228 531 
L 3431 531 
L 3431 0 
L 469 0 
L 469 531 
Q 828 903 1448 1529 
Q 2069 2156 2228 2338 
Q 2531 2678 2651 2914 
Q 2772 3150 2772 3378 
Q 2772 3750 2511 3984 
Q 2250 4219 1831 4219 
Q 1534 4219 1204 4116 
Q 875 4013 500 3803 
L 500 4441 
Q 881 4594 1212 4672 
Q 1544 4750 1819 4750 
Q 2544 4750 2975 4387 
Q 3406 4025 3406 3419 
Q 3406 3131 3298 2873 
Q 3191 2616 2906 2266 
Q 2828 2175 2409 1742 
Q 1991 1309 1228 531 
z
" transform="scale(0.015625)"/>
       </defs>
       <use xlink:href="#DejaVuSans-30"/>
       <use xlink:href="#DejaVuSans-2e" x="63.623047"/>
       <use xlink:href="#DejaVuSans-30" x="95.410156"/>
       <use xlink:href="#DejaVuSans-31" x="159.033203"/>
       <use xlink:href="#DejaVuSans-32" x="222.65625"/>
       <use xlink:href="#DejaVuSans-35" x="286.279297"/>
      </g>
     </g>
    </g>
    <g id="xtick_5">
     <g id="line2d_9">
      <path d="M 279.782419 295.72 
L 279.782419 12.96 
" clip-path="url(#p695a67c451)" style="fill: none; stroke: #b0b0b0; stroke-width: 0.8; stroke-linecap: square"/>
     </g>
     <g id="line2d_10">
      <g>
       <use xlink:href="#m70ff1f2e4d" x="279.782419" y="295.72" style="stroke: #000000; stroke-width: 0.8"/>
      </g>
     </g>
     <g id="text_5">
      <!-- 0.0150 -->
      <g transform="translate(258.788044 311.838125) scale(0.12 -0.12)">
       <use xlink:href="#DejaVuSans-30"/>
       <use xlink:href="#DejaVuSans-2e" x="63.623047"/>
       <use xlink:href="#DejaVuSans-30" x="95.410156"/>
       <use xlink:href="#DejaVuSans-31" x="159.033203"/>
       <use xlink:href="#DejaVuSans-35" x="222.65625"/>
       <use xlink:href="#DejaVuSans-30" x="286.279297"/>
      </g>
     </g>
    </g>
    <g id="xtick_6">
     <g id="line2d_11">
      <path d="M 326.975581 295.72 
L 326.975581 12.96 
" clip-path="url(#p695a67c451)" style="fill: none; stroke: #b0b0b0; stroke-width: 0.8; stroke-linecap: square"/>
     </g>
     <g id="line2d_12">
      <g>
       <use xlink:href="#m70ff1f2e4d" x="326.975581" y="295.72" style="stroke: #000000; stroke-width: 0.8"/>
      </g>
     </g>
     <g id="text_6">
      <!-- 0.0175 -->
      <g transform="translate(305.981206 311.838125) scale(0.12 -0.12)">
       <use xlink:href="#DejaVuSans-30"/>
       <use xlink:href="#DejaVuSans-2e" x="63.623047"/>
       <use xlink:href="#DejaVuSans-30" x="95.410156"/>
       <use xlink:href="#DejaVuSans-31" x="159.033203"/>
       <use xlink:href="#DejaVuSans-37" x="222.65625"/>
       <use xlink:href="#DejaVuSans-35" x="286.279297"/>
      </g>
     </g>
    </g>
    <g id="xtick_7">
     <g id="line2d_13">
      <path d="M 374.168744 295.72 
L 374.168744 12.96 
" clip-path="url(#p695a67c451)" style="fill: none; stroke: #b0b0b0; stroke-width: 0.8; stroke-linecap: square"/>
     </g>
     <g id="line2d_14">
      <g>
       <use xlink:href="#m70ff1f2e4d" x="374.168744" y="295.72" style="stroke: #000000; stroke-width: 0.8"/>
      </g>
     </g>
     <g id="text_7">
      <!-- 0.0200 -->
      <g transform="translate(353.174369 311.838125) scale(0.12 -0.12)">
       <use xlink:href="#DejaVuSans-30"/>
       <use xlink:href="#DejaVuSans-2e" x="63.623047"/>
       <use xlink:href="#DejaVuSans-30" x="95.410156"/>
       <use xlink:href="#DejaVuSans-32" x="159.033203"/>
       <use xlink:href="#DejaVuSans-30" x="222.65625"/>
       <use xlink:href="#DejaVuSans-30" x="286.279297"/>
      </g>
     </g>
    </g>
    <g id="xtick_8">
     <g id="line2d_15">
      <path d="M 421.361906 295.72 
L 421.361906 12.96 
" clip-path="url(#p695a67c451)" style="fill: none; stroke: #b0b0b0; stroke-width: 0.8; stroke-linecap: square"/>
     </g>
     <g id="line2d_16">
      <g>
       <use xlink:href="#m70ff1f2e4d" x="421.361906" y="295.72" style="stroke: #000000; stroke-width: 0.8"/>
      </g>
     </g>
     <g id="text_8">
      <!-- 0.0225 -->
      <g transform="translate(400.367531 311.838125) scale(0.12 -0.12)">
       <use xlink:href="#DejaVuSans-30"/>
       <use xlink:href="#DejaVuSans-2e" x="63.623047"/>
       <use xlink:href="#DejaVuSans-30" x="95.410156"/>
       <use xlink:href="#DejaVuSans-32" x="159.033203"/>
       <use xlink:href="#DejaVuSans-32" x="222.65625"/>
       <use xlink:href="#DejaVuSans-35" x="286.279297"/>
      </g>
     </g>
    </g>
    <g id="text_9">
     <!-- Pulse Amplitude [V] -->
     <g transform="translate(194.618125 327.451875) scale(0.12 -0.12)">
      <defs>
       <path id="DejaVuSans-50" d="M 1259 4147 
L 1259 2394 
L 2053 2394 
Q 2494 2394 2734 2622 
Q 2975 2850 2975 3272 
Q 2975 3691 2734 3919 
Q 2494 4147 2053 4147 
L 1259 4147 
z
M 628 4666 
L 2053 4666 
Q 2838 4666 3239 4311 
Q 3641 3956 3641 3272 
Q 3641 2581 3239 2228 
Q 2838 1875 2053 1875 
L 1259 1875 
L 1259 0 
L 628 0 
L 628 4666 
z
" transform="scale(0.015625)"/>
       <path id="DejaVuSans-75" d="M 544 1381 
L 544 3500 
L 1119 3500 
L 1119 1403 
Q 1119 906 1312 657 
Q 1506 409 1894 409 
Q 2359 409 2629 706 
Q 2900 1003 2900 1516 
L 2900 3500 
L 3475 3500 
L 3475 0 
L 2900 0 
L 2900 538 
Q 2691 219 2414 64 
Q 2138 -91 1772 -91 
Q 1169 -91 856 284 
Q 544 659 544 1381 
z
M 1991 3584 
L 1991 3584 
z
" transform="scale(0.015625)"/>
       <path id="DejaVuSans-6c" d="M 603 4863 
L 1178 4863 
L 1178 0 
L 603 0 
L 603 4863 
z
" transform="scale(0.015625)"/>
       <path id="DejaVuSans-73" d="M 2834 3397 
L 2834 2853 
Q 2591 2978 2328 3040 
Q 2066 3103 1784 3103 
Q 1356 3103 1142 2972 
Q 928 2841 928 2578 
Q 928 2378 1081 2264 
Q 1234 2150 1697 2047 
L 1894 2003 
Q 2506 1872 2764 1633 
Q 3022 1394 3022 966 
Q 3022 478 2636 193 
Q 2250 -91 1575 -91 
Q 1294 -91 989 -36 
Q 684 19 347 128 
L 347 722 
Q 666 556 975 473 
Q 1284 391 1588 391 
Q 1994 391 2212 530 
Q 2431 669 2431 922 
Q 2431 1156 2273 1281 
Q 2116 1406 1581 1522 
L 1381 1569 
Q 847 1681 609 1914 
Q 372 2147 372 2553 
Q 372 3047 722 3315 
Q 1072 3584 1716 3584 
Q 2034 3584 2315 3537 
Q 2597 3491 2834 3397 
z
" transform="scale(0.015625)"/>
       <path id="DejaVuSans-65" d="M 3597 1894 
L 3597 1613 
L 953 1613 
Q 991 1019 1311 708 
Q 1631 397 2203 397 
Q 2534 397 2845 478 
Q 3156 559 3463 722 
L 3463 178 
Q 3153 47 2828 -22 
Q 2503 -91 2169 -91 
Q 1331 -91 842 396 
Q 353 884 353 1716 
Q 353 2575 817 3079 
Q 1281 3584 2069 3584 
Q 2775 3584 3186 3129 
Q 3597 2675 3597 1894 
z
M 3022 2063 
Q 3016 2534 2758 2815 
Q 2500 3097 2075 3097 
Q 1594 3097 1305 2825 
Q 1016 2553 972 2059 
L 3022 2063 
z
" transform="scale(0.015625)"/>
       <path id="DejaVuSans-20" transform="scale(0.015625)"/>
       <path id="DejaVuSans-41" d="M 2188 4044 
L 1331 1722 
L 3047 1722 
L 2188 4044 
z
M 1831 4666 
L 2547 4666 
L 4325 0 
L 3669 0 
L 3244 1197 
L 1141 1197 
L 716 0 
L 50 0 
L 1831 4666 
z
" transform="scale(0.015625)"/>
       <path id="DejaVuSans-6d" d="M 3328 2828 
Q 3544 3216 3844 3400 
Q 4144 3584 4550 3584 
Q 5097 3584 5394 3201 
Q 5691 2819 5691 2113 
L 5691 0 
L 5113 0 
L 5113 2094 
Q 5113 2597 4934 2840 
Q 4756 3084 4391 3084 
Q 3944 3084 3684 2787 
Q 3425 2491 3425 1978 
L 3425 0 
L 2847 0 
L 2847 2094 
Q 2847 2600 2669 2842 
Q 2491 3084 2119 3084 
Q 1678 3084 1418 2786 
Q 1159 2488 1159 1978 
L 1159 0 
L 581 0 
L 581 3500 
L 1159 3500 
L 1159 2956 
Q 1356 3278 1631 3431 
Q 1906 3584 2284 3584 
Q 2666 3584 2933 3390 
Q 3200 3197 3328 2828 
z
" transform="scale(0.015625)"/>
       <path id="DejaVuSans-70" d="M 1159 525 
L 1159 -1331 
L 581 -1331 
L 581 3500 
L 1159 3500 
L 1159 2969 
Q 1341 3281 1617 3432 
Q 1894 3584 2278 3584 
Q 2916 3584 3314 3078 
Q 3713 2572 3713 1747 
Q 3713 922 3314 415 
Q 2916 -91 2278 -91 
Q 1894 -91 1617 61 
Q 1341 213 1159 525 
z
M 3116 1747 
Q 3116 2381 2855 2742 
Q 2594 3103 2138 3103 
Q 1681 3103 1420 2742 
Q 1159 2381 1159 1747 
Q 1159 1113 1420 752 
Q 1681 391 2138 391 
Q 2594 391 2855 752 
Q 3116 1113 3116 1747 
z
" transform="scale(0.015625)"/>
       <path id="DejaVuSans-69" d="M 603 3500 
L 1178 3500 
L 1178 0 
L 603 0 
L 603 3500 
z
M 603 4863 
L 1178 4863 
L 1178 4134 
L 603 4134 
L 603 4863 
z
" transform="scale(0.015625)"/>
       <path id="DejaVuSans-74" d="M 1172 4494 
L 1172 3500 
L 2356 3500 
L 2356 3053 
L 1172 3053 
L 1172 1153 
Q 1172 725 1289 603 
Q 1406 481 1766 481 
L 2356 481 
L 2356 0 
L 1766 0 
Q 1100 0 847 248 
Q 594 497 594 1153 
L 594 3053 
L 172 3053 
L 172 3500 
L 594 3500 
L 594 4494 
L 1172 4494 
z
" transform="scale(0.015625)"/>
       <path id="DejaVuSans-64" d="M 2906 2969 
L 2906 4863 
L 3481 4863 
L 3481 0 
L 2906 0 
L 2906 525 
Q 2725 213 2448 61 
Q 2172 -91 1784 -91 
Q 1150 -91 751 415 
Q 353 922 353 1747 
Q 353 2572 751 3078 
Q 1150 3584 1784 3584 
Q 2172 3584 2448 3432 
Q 2725 3281 2906 2969 
z
M 947 1747 
Q 947 1113 1208 752 
Q 1469 391 1925 391 
Q 2381 391 2643 752 
Q 2906 1113 2906 1747 
Q 2906 2381 2643 2742 
Q 2381 3103 1925 3103 
Q 1469 3103 1208 2742 
Q 947 2381 947 1747 
z
" transform="scale(0.015625)"/>
       <path id="DejaVuSans-5b" d="M 550 4863 
L 1875 4863 
L 1875 4416 
L 1125 4416 
L 1125 -397 
L 1875 -397 
L 1875 -844 
L 550 -844 
L 550 4863 
z
" transform="scale(0.015625)"/>
       <path id="DejaVuSans-56" d="M 1831 0 
L 50 4666 
L 709 4666 
L 2188 738 
L 3669 4666 
L 4325 4666 
L 2547 0 
L 1831 0 
z
" transform="scale(0.015625)"/>
       <path id="DejaVuSans-5d" d="M 1947 4863 
L 1947 -844 
L 622 -844 
L 622 -397 
L 1369 -397 
L 1369 4416 
L 622 4416 
L 622 4863 
L 1947 4863 
z
" transform="scale(0.015625)"/>
      </defs>
      <use xlink:href="#DejaVuSans-50"/>
      <use xlink:href="#DejaVuSans-75" x="58.552734"/>
      <use xlink:href="#DejaVuSans-6c" x="121.931641"/>
      <use xlink:href="#DejaVuSans-73" x="149.714844"/>
      <use xlink:href="#DejaVuSans-65" x="201.814453"/>
      <use xlink:href="#DejaVuSans-20" x="263.337891"/>
      <use xlink:href="#DejaVuSans-41" x="295.125"/>
      <use xlink:href="#DejaVuSans-6d" x="363.533203"/>
      <use xlink:href="#DejaVuSans-70" x="460.945312"/>
      <use xlink:href="#DejaVuSans-6c" x="524.421875"/>
      <use xlink:href="#DejaVuSans-69" x="552.205078"/>
      <use xlink:href="#DejaVuSans-74" x="579.988281"/>
      <use xlink:href="#DejaVuSans-75" x="619.197266"/>
      <use xlink:href="#DejaVuSans-64" x="682.576172"/>
      <use xlink:href="#DejaVuSans-65" x="746.052734"/>
      <use xlink:href="#DejaVuSans-20" x="807.576172"/>
      <use xlink:href="#DejaVuSans-5b" x="839.363281"/>
      <use xlink:href="#DejaVuSans-56" x="878.376953"/>
      <use xlink:href="#DejaVuSans-5d" x="946.785156"/>
     </g>
    </g>
   </g>
   <g id="matplotlib.axis_2">
    <g id="ytick_1">
     <g id="line2d_17">
      <path d="M 59.69 295.72 
L 447.84 295.72 
" clip-path="url(#p695a67c451)" style="fill: none; stroke: #b0b0b0; stroke-width: 0.8; stroke-linecap: square"/>
     </g>
     <g id="line2d_18">
      <defs>
       <path id="maaa7ee5314" d="M 0 0 
L -3.5 0 
" style="stroke: #000000; stroke-width: 0.8"/>
      </defs>
      <g>
       <use xlink:href="#maaa7ee5314" x="59.69" y="295.72" style="stroke: #000000; stroke-width: 0.8"/>
      </g>
     </g>
     <g id="text_10">
      <!-- 0 -->
      <g transform="translate(45.055 300.279063) scale(0.12 -0.12)">
       <use xlink:href="#DejaVuSans-30"/>
      </g>
     </g>
    </g>
    <g id="ytick_2">
     <g id="line2d_19">
      <path d="M 59.69 253.773701 
L 447.84 253.773701 
" clip-path="url(#p695a67c451)" style="fill: none; stroke: #b0b0b0; stroke-width: 0.8; stroke-linecap: square"/>
     </g>
     <g id="line2d_20">
      <g>
       <use xlink:href="#maaa7ee5314" x="59.69" y="253.773701" style="stroke: #000000; stroke-width: 0.8"/>
      </g>
     </g>
     <g id="text_11">
      <!-- 50 -->
      <g transform="translate(37.42 258.332764) scale(0.12 -0.12)">
       <use xlink:href="#DejaVuSans-35"/>
       <use xlink:href="#DejaVuSans-30" x="63.623047"/>
      </g>
     </g>
    </g>
    <g id="ytick_3">
     <g id="line2d_21">
      <path d="M 59.69 211.827402 
L 447.84 211.827402 
" clip-path="url(#p695a67c451)" style="fill: none; stroke: #b0b0b0; stroke-width: 0.8; stroke-linecap: square"/>
     </g>
     <g id="line2d_22">
      <g>
       <use xlink:href="#maaa7ee5314" x="59.69" y="211.827402" style="stroke: #000000; stroke-width: 0.8"/>
      </g>
     </g>
     <g id="text_12">
      <!-- 100 -->
      <g transform="translate(29.785 216.386465) scale(0.12 -0.12)">
       <use xlink:href="#DejaVuSans-31"/>
       <use xlink:href="#DejaVuSans-30" x="63.623047"/>
       <use xlink:href="#DejaVuSans-30" x="127.246094"/>
      </g>
     </g>
    </g>
    <g id="ytick_4">
     <g id="line2d_23">
      <path d="M 59.69 169.881104 
L 447.84 169.881104 
" clip-path="url(#p695a67c451)" style="fill: none; stroke: #b0b0b0; stroke-width: 0.8; stroke-linecap: square"/>
     </g>
     <g id="line2d_24">
      <g>
       <use xlink:href="#maaa7ee5314" x="59.69" y="169.881104" style="stroke: #000000; stroke-width: 0.8"/>
      </g>
     </g>
     <g id="text_13">
      <!-- 150 -->
      <g transform="translate(29.785 174.440166) scale(0.12 -0.12)">
       <use xlink:href="#DejaVuSans-31"/>
       <use xlink:href="#DejaVuSans-35" x="63.623047"/>
       <use xlink:href="#DejaVuSans-30" x="127.246094"/>
      </g>
     </g>
    </g>
    <g id="ytick_5">
     <g id="line2d_25">
      <path d="M 59.69 127.934805 
L 447.84 127.934805 
" clip-path="url(#p695a67c451)" style="fill: none; stroke: #b0b0b0; stroke-width: 0.8; stroke-linecap: square"/>
     </g>
     <g id="line2d_26">
      <g>
       <use xlink:href="#maaa7ee5314" x="59.69" y="127.934805" style="stroke: #000000; stroke-width: 0.8"/>
      </g>
     </g>
     <g id="text_14">
      <!-- 200 -->
      <g transform="translate(29.785 132.493867) scale(0.12 -0.12)">
       <use xlink:href="#DejaVuSans-32"/>
       <use xlink:href="#DejaVuSans-30" x="63.623047"/>
       <use xlink:href="#DejaVuSans-30" x="127.246094"/>
      </g>
     </g>
    </g>
    <g id="ytick_6">
     <g id="line2d_27">
      <path d="M 59.69 85.988506 
L 447.84 85.988506 
" clip-path="url(#p695a67c451)" style="fill: none; stroke: #b0b0b0; stroke-width: 0.8; stroke-linecap: square"/>
     </g>
     <g id="line2d_28">
      <g>
       <use xlink:href="#maaa7ee5314" x="59.69" y="85.988506" style="stroke: #000000; stroke-width: 0.8"/>
      </g>
     </g>
     <g id="text_15">
      <!-- 250 -->
      <g transform="translate(29.785 90.547569) scale(0.12 -0.12)">
       <use xlink:href="#DejaVuSans-32"/>
       <use xlink:href="#DejaVuSans-35" x="63.623047"/>
       <use xlink:href="#DejaVuSans-30" x="127.246094"/>
      </g>
     </g>
    </g>
    <g id="ytick_7">
     <g id="line2d_29">
      <path d="M 59.69 44.042207 
L 447.84 44.042207 
" clip-path="url(#p695a67c451)" style="fill: none; stroke: #b0b0b0; stroke-width: 0.8; stroke-linecap: square"/>
     </g>
     <g id="line2d_30">
      <g>
       <use xlink:href="#maaa7ee5314" x="59.69" y="44.042207" style="stroke: #000000; stroke-width: 0.8"/>
      </g>
     </g>
     <g id="text_16">
      <!-- 300 -->
      <g transform="translate(29.785 48.60127) scale(0.12 -0.12)">
       <defs>
        <path id="DejaVuSans-33" d="M 2597 2516 
Q 3050 2419 3304 2112 
Q 3559 1806 3559 1356 
Q 3559 666 3084 287 
Q 2609 -91 1734 -91 
Q 1441 -91 1130 -33 
Q 819 25 488 141 
L 488 750 
Q 750 597 1062 519 
Q 1375 441 1716 441 
Q 2309 441 2620 675 
Q 2931 909 2931 1356 
Q 2931 1769 2642 2001 
Q 2353 2234 1838 2234 
L 1294 2234 
L 1294 2753 
L 1863 2753 
Q 2328 2753 2575 2939 
Q 2822 3125 2822 3475 
Q 2822 3834 2567 4026 
Q 2313 4219 1838 4219 
Q 1578 4219 1281 4162 
Q 984 4106 628 3988 
L 628 4550 
Q 988 4650 1302 4700 
Q 1616 4750 1894 4750 
Q 2613 4750 3031 4423 
Q 3450 4097 3450 3541 
Q 3450 3153 3228 2886 
Q 3006 2619 2597 2516 
z
" transform="scale(0.015625)"/>
       </defs>
       <use xlink:href="#DejaVuSans-33"/>
       <use xlink:href="#DejaVuSans-30" x="63.623047"/>
       <use xlink:href="#DejaVuSans-30" x="127.246094"/>
      </g>
     </g>
    </g>
    <g id="text_17">
     <!-- Counts -->
     <g transform="translate(23.289375 175.28375) rotate(-90) scale(0.12 -0.12)">
      <defs>
       <path id="DejaVuSans-43" d="M 4122 4306 
L 4122 3641 
Q 3803 3938 3442 4084 
Q 3081 4231 2675 4231 
Q 1875 4231 1450 3742 
Q 1025 3253 1025 2328 
Q 1025 1406 1450 917 
Q 1875 428 2675 428 
Q 3081 428 3442 575 
Q 3803 722 4122 1019 
L 4122 359 
Q 3791 134 3420 21 
Q 3050 -91 2638 -91 
Q 1578 -91 968 557 
Q 359 1206 359 2328 
Q 359 3453 968 4101 
Q 1578 4750 2638 4750 
Q 3056 4750 3426 4639 
Q 3797 4528 4122 4306 
z
" transform="scale(0.015625)"/>
       <path id="DejaVuSans-6f" d="M 1959 3097 
Q 1497 3097 1228 2736 
Q 959 2375 959 1747 
Q 959 1119 1226 758 
Q 1494 397 1959 397 
Q 2419 397 2687 759 
Q 2956 1122 2956 1747 
Q 2956 2369 2687 2733 
Q 2419 3097 1959 3097 
z
M 1959 3584 
Q 2709 3584 3137 3096 
Q 3566 2609 3566 1747 
Q 3566 888 3137 398 
Q 2709 -91 1959 -91 
Q 1206 -91 779 398 
Q 353 888 353 1747 
Q 353 2609 779 3096 
Q 1206 3584 1959 3584 
z
" transform="scale(0.015625)"/>
       <path id="DejaVuSans-6e" d="M 3513 2113 
L 3513 0 
L 2938 0 
L 2938 2094 
Q 2938 2591 2744 2837 
Q 2550 3084 2163 3084 
Q 1697 3084 1428 2787 
Q 1159 2491 1159 1978 
L 1159 0 
L 581 0 
L 581 3500 
L 1159 3500 
L 1159 2956 
Q 1366 3272 1645 3428 
Q 1925 3584 2291 3584 
Q 2894 3584 3203 3211 
Q 3513 2838 3513 2113 
z
" transform="scale(0.015625)"/>
      </defs>
      <use xlink:href="#DejaVuSans-43"/>
      <use xlink:href="#DejaVuSans-6f" x="69.824219"/>
      <use xlink:href="#DejaVuSans-75" x="131.005859"/>
      <use xlink:href="#DejaVuSans-6e" x="194.384766"/>
      <use xlink:href="#DejaVuSans-74" x="257.763672"/>
      <use xlink:href="#DejaVuSans-73" x="296.972656"/>
     </g>
    </g>
   </g>
   <g id="line2d_31">
    <path d="M 79.53858 128.51399 
L 83.949375 101.015177 
L 88.36017 75.915575 
L 92.770966 55.487009 
L 97.181761 41.745485 
L 101.592557 36.124855 
L 106.003352 39.229763 
L 110.414148 50.725554 
L 114.824943 69.391103 
L 119.235739 93.320767 
L 123.646534 120.226379 
L 128.05733 147.770045 
L 132.468125 173.858698 
L 136.87892 196.850041 
L 141.289716 215.648814 
L 145.700511 229.702085 
L 150.111307 238.92367 
L 154.522102 243.58609 
L 158.932898 244.214017 
L 163.343693 241.500057 
L 167.754489 236.24795 
L 172.165284 229.335306 
L 176.57608 221.681494 
L 180.986875 214.207031 
L 185.39767 207.777508 
L 189.808466 203.134477 
L 194.219261 200.824301 
L 198.630057 201.140714 
L 203.040852 204.096159 
L 207.451648 209.431151 
L 211.862443 216.661955 
L 216.273239 225.157586 
L 220.684034 234.230482 
L 225.09483 243.222943 
L 229.505625 251.574027 
L 233.91642 258.857891 
L 238.327216 264.792498 
L 242.738011 269.224886 
L 247.148807 272.103991 
L 251.559602 273.453221 
L 255.970398 273.352638 
L 260.381193 271.935406 
L 264.791989 269.396661 
L 269.202784 266.007018 
L 273.61358 262.119471 
L 278.024375 258.159002 
L 282.43517 254.588979 
L 286.845966 251.856348 
L 291.256761 250.326012 
L 295.667557 250.220517 
L 300.078352 251.581764 
L 304.489148 254.26621 
L 308.899943 257.975687 
L 313.310739 262.315769 
L 317.721534 266.866373 
L 322.13233 271.24721 
L 326.543125 275.16424 
L 330.95392 278.430424 
L 335.364716 280.962023 
L 339.775511 282.75768 
L 344.186307 283.870201 
L 348.597102 284.38008 
L 353.007898 284.37678 
L 357.418693 283.949816 
L 361.829489 283.188245 
L 366.240284 282.185014 
L 370.65108 281.041867 
L 375.061875 279.871129 
L 379.47267 278.792194 
L 383.883466 277.922513 
L 388.294261 277.364762 
L 392.705057 277.193244 
L 397.115852 277.443007 
L 401.526648 278.104655 
L 405.937443 279.126361 
L 410.348239 280.422832 
L 414.759034 281.889217 
L 419.16983 283.416909 
L 423.580625 284.908011 
L 427.99142 286.285898 
" clip-path="url(#p695a67c451)" style="fill: none; stroke: #ff0000; stroke-width: 1.5; stroke-linecap: square"/>
   </g>
   <g id="line2d_32">
    <path d="M 79.53858 278.303882 
L 83.949375 278.458035 
L 88.36017 278.612189 
L 92.770966 278.766342 
L 97.181761 278.920495 
L 101.592557 279.074648 
L 106.003352 279.228801 
L 110.414148 279.382954 
L 114.824943 279.537108 
L 119.235739 279.691261 
L 123.646534 279.845414 
L 128.05733 279.999567 
L 132.468125 280.15372 
L 136.87892 280.307873 
L 141.289716 280.462027 
L 145.700511 280.61618 
L 150.111307 280.770333 
L 154.522102 280.924486 
L 158.932898 281.078639 
L 163.343693 281.232793 
L 167.754489 281.386946 
L 172.165284 281.541099 
L 176.57608 281.695252 
L 180.986875 281.849405 
L 185.39767 282.003558 
L 189.808466 282.157712 
L 194.219261 282.311865 
L 198.630057 282.466018 
L 203.040852 282.620171 
L 207.451648 282.774324 
L 211.862443 282.928477 
L 216.273239 283.082631 
L 220.684034 283.236784 
L 225.09483 283.390937 
L 229.505625 283.54509 
L 233.91642 283.699243 
L 238.327216 283.853396 
L 242.738011 284.00755 
L 247.148807 284.161703 
L 251.559602 284.315856 
L 255.970398 284.470009 
L 260.381193 284.624162 
L 264.791989 284.778315 
L 269.202784 284.932469 
L 273.61358 285.086622 
L 278.024375 285.240775 
L 282.43517 285.394928 
L 286.845966 285.549081 
L 291.256761 285.703235 
L 295.667557 285.857388 
L 300.078352 286.011541 
L 304.489148 286.165694 
L 308.899943 286.319847 
L 313.310739 286.474 
L 317.721534 286.628154 
L 322.13233 286.782307 
L 326.543125 286.93646 
L 330.95392 287.090613 
L 335.364716 287.244766 
L 339.775511 287.398919 
L 344.186307 287.553073 
L 348.597102 287.707226 
L 353.007898 287.861379 
L 357.418693 288.015532 
L 361.829489 288.169685 
L 366.240284 288.323838 
L 370.65108 288.477992 
L 375.061875 288.632145 
L 379.47267 288.786298 
L 383.883466 288.940451 
L 388.294261 289.094604 
L 392.705057 289.248757 
L 397.115852 289.402911 
L 401.526648 289.557064 
L 405.937443 289.711217 
L 410.348239 289.86537 
L 414.759034 290.019523 
L 419.16983 290.173676 
L 423.580625 290.32783 
L 427.99142 290.481983 
" clip-path="url(#p695a67c451)" style="fill: none; stroke: #0000ff; stroke-width: 1.5; stroke-linecap: square"/>
   </g>
   <g id="patch_82">
    <path d="M 59.69 295.72 
L 59.69 12.96 
" style="fill: none; stroke: #000000; stroke-width: 0.8; stroke-linejoin: miter; stroke-linecap: square"/>
   </g>
   <g id="patch_83">
    <path d="M 447.84 295.72 
L 447.84 12.96 
" style="fill: none; stroke: #000000; stroke-width: 0.8; stroke-linejoin: miter; stroke-linecap: square"/>
   </g>
   <g id="patch_84">
    <path d="M 59.69 295.72 
L 447.84 295.72 
" style="fill: none; stroke: #000000; stroke-width: 0.8; stroke-linejoin: miter; stroke-linecap: square"/>
   </g>
   <g id="patch_85">
    <path d="M 59.69 12.96 
L 447.84 12.96 
" style="fill: none; stroke: #000000; stroke-width: 0.8; stroke-linejoin: miter; stroke-linecap: square"/>
   </g>
  </g>
  <g id="text_18">
   <g id="patch_86">
    <path d="M 253.44 224.38475 
L 409.09375 224.38475 
Q 411.49375 224.38475 411.49375 221.98475 
L 411.49375 27.648 
Q 411.49375 25.248 409.09375 25.248 
L 253.44 25.248 
Q 251.04 25.248 251.04 27.648 
L 251.04 221.98475 
Q 251.04 224.38475 253.44 224.38475 
z
" style="fill: #1f77b4; opacity: 0.4; stroke: #000000; stroke-linejoin: miter"/>
   </g>
   <!-- Date: 10/17/2024 16:59:40  -->
   <g transform="translate(253.44 33.72675) scale(0.08 -0.08)">
    <defs>
     <path id="DejaVuSans-44" d="M 1259 4147 
L 1259 519 
L 2022 519 
Q 2988 519 3436 956 
Q 3884 1394 3884 2338 
Q 3884 3275 3436 3711 
Q 2988 4147 2022 4147 
L 1259 4147 
z
M 628 4666 
L 1925 4666 
Q 3281 4666 3915 4102 
Q 4550 3538 4550 2338 
Q 4550 1131 3912 565 
Q 3275 0 1925 0 
L 628 0 
L 628 4666 
z
" transform="scale(0.015625)"/>
     <path id="DejaVuSans-61" d="M 2194 1759 
Q 1497 1759 1228 1600 
Q 959 1441 959 1056 
Q 959 750 1161 570 
Q 1363 391 1709 391 
Q 2188 391 2477 730 
Q 2766 1069 2766 1631 
L 2766 1759 
L 2194 1759 
z
M 3341 1997 
L 3341 0 
L 2766 0 
L 2766 531 
Q 2569 213 2275 61 
Q 1981 -91 1556 -91 
Q 1019 -91 701 211 
Q 384 513 384 1019 
Q 384 1609 779 1909 
Q 1175 2209 1959 2209 
L 2766 2209 
L 2766 2266 
Q 2766 2663 2505 2880 
Q 2244 3097 1772 3097 
Q 1472 3097 1187 3025 
Q 903 2953 641 2809 
L 641 3341 
Q 956 3463 1253 3523 
Q 1550 3584 1831 3584 
Q 2591 3584 2966 3190 
Q 3341 2797 3341 1997 
z
" transform="scale(0.015625)"/>
     <path id="DejaVuSans-3a" d="M 750 794 
L 1409 794 
L 1409 0 
L 750 0 
L 750 794 
z
M 750 3309 
L 1409 3309 
L 1409 2516 
L 750 2516 
L 750 3309 
z
" transform="scale(0.015625)"/>
     <path id="DejaVuSans-2f" d="M 1625 4666 
L 2156 4666 
L 531 -594 
L 0 -594 
L 1625 4666 
z
" transform="scale(0.015625)"/>
     <path id="DejaVuSans-34" d="M 2419 4116 
L 825 1625 
L 2419 1625 
L 2419 4116 
z
M 2253 4666 
L 3047 4666 
L 3047 1625 
L 3713 1625 
L 3713 1100 
L 3047 1100 
L 3047 0 
L 2419 0 
L 2419 1100 
L 313 1100 
L 313 1709 
L 2253 4666 
z
" transform="scale(0.015625)"/>
     <path id="DejaVuSans-36" d="M 2113 2584 
Q 1688 2584 1439 2293 
Q 1191 2003 1191 1497 
Q 1191 994 1439 701 
Q 1688 409 2113 409 
Q 2538 409 2786 701 
Q 3034 994 3034 1497 
Q 3034 2003 2786 2293 
Q 2538 2584 2113 2584 
z
M 3366 4563 
L 3366 3988 
Q 3128 4100 2886 4159 
Q 2644 4219 2406 4219 
Q 1781 4219 1451 3797 
Q 1122 3375 1075 2522 
Q 1259 2794 1537 2939 
Q 1816 3084 2150 3084 
Q 2853 3084 3261 2657 
Q 3669 2231 3669 1497 
Q 3669 778 3244 343 
Q 2819 -91 2113 -91 
Q 1303 -91 875 529 
Q 447 1150 447 2328 
Q 447 3434 972 4092 
Q 1497 4750 2381 4750 
Q 2619 4750 2861 4703 
Q 3103 4656 3366 4563 
z
" transform="scale(0.015625)"/>
     <path id="DejaVuSans-39" d="M 703 97 
L 703 672 
Q 941 559 1184 500 
Q 1428 441 1663 441 
Q 2288 441 2617 861 
Q 2947 1281 2994 2138 
Q 2813 1869 2534 1725 
Q 2256 1581 1919 1581 
Q 1219 1581 811 2004 
Q 403 2428 403 3163 
Q 403 3881 828 4315 
Q 1253 4750 1959 4750 
Q 2769 4750 3195 4129 
Q 3622 3509 3622 2328 
Q 3622 1225 3098 567 
Q 2575 -91 1691 -91 
Q 1453 -91 1209 -44 
Q 966 3 703 97 
z
M 1959 2075 
Q 2384 2075 2632 2365 
Q 2881 2656 2881 3163 
Q 2881 3666 2632 3958 
Q 2384 4250 1959 4250 
Q 1534 4250 1286 3958 
Q 1038 3666 1038 3163 
Q 1038 2656 1286 2365 
Q 1534 2075 1959 2075 
z
" transform="scale(0.015625)"/>
    </defs>
    <use xlink:href="#DejaVuSans-44"/>
    <use xlink:href="#DejaVuSans-61" x="77.001953"/>
    <use xlink:href="#DejaVuSans-74" x="138.28125"/>
    <use xlink:href="#DejaVuSans-65" x="177.490234"/>
    <use xlink:href="#DejaVuSans-3a" x="239.013672"/>
    <use xlink:href="#DejaVuSans-20" x="272.705078"/>
    <use xlink:href="#DejaVuSans-31" x="304.492188"/>
    <use xlink:href="#DejaVuSans-30" x="368.115234"/>
    <use xlink:href="#DejaVuSans-2f" x="431.738281"/>
    <use xlink:href="#DejaVuSans-31" x="465.429688"/>
    <use xlink:href="#DejaVuSans-37" x="529.052734"/>
    <use xlink:href="#DejaVuSans-2f" x="592.675781"/>
    <use xlink:href="#DejaVuSans-32" x="626.367188"/>
    <use xlink:href="#DejaVuSans-30" x="689.990234"/>
    <use xlink:href="#DejaVuSans-32" x="753.613281"/>
    <use xlink:href="#DejaVuSans-34" x="817.236328"/>
    <use xlink:href="#DejaVuSans-20" x="880.859375"/>
    <use xlink:href="#DejaVuSans-31" x="912.646484"/>
    <use xlink:href="#DejaVuSans-36" x="976.269531"/>
    <use xlink:href="#DejaVuSans-3a" x="1039.892578"/>
    <use xlink:href="#DejaVuSans-35" x="1073.583984"/>
    <use xlink:href="#DejaVuSans-39" x="1137.207031"/>
    <use xlink:href="#DejaVuSans-3a" x="1200.830078"/>
    <use xlink:href="#DejaVuSans-34" x="1234.521484"/>
    <use xlink:href="#DejaVuSans-30" x="1298.144531"/>
    <use xlink:href="#DejaVuSans-20" x="1361.767578"/>
   </g>
   <!-- Condition: LXe -->
   <g transform="translate(253.44 42.685) scale(0.08 -0.08)">
    <defs>
     <path id="DejaVuSans-4c" d="M 628 4666 
L 1259 4666 
L 1259 531 
L 3531 531 
L 3531 0 
L 628 0 
L 628 4666 
z
" transform="scale(0.015625)"/>
     <path id="DejaVuSans-58" d="M 403 4666 
L 1081 4666 
L 2241 2931 
L 3406 4666 
L 4084 4666 
L 2584 2425 
L 4184 0 
L 3506 0 
L 2194 1984 
L 872 0 
L 191 0 
L 1856 2491 
L 403 4666 
z
" transform="scale(0.015625)"/>
    </defs>
    <use xlink:href="#DejaVuSans-43"/>
    <use xlink:href="#DejaVuSans-6f" x="69.824219"/>
    <use xlink:href="#DejaVuSans-6e" x="131.005859"/>
    <use xlink:href="#DejaVuSans-64" x="194.384766"/>
    <use xlink:href="#DejaVuSans-69" x="257.861328"/>
    <use xlink:href="#DejaVuSans-74" x="285.644531"/>
    <use xlink:href="#DejaVuSans-69" x="324.853516"/>
    <use xlink:href="#DejaVuSans-6f" x="352.636719"/>
    <use xlink:href="#DejaVuSans-6e" x="413.818359"/>
    <use xlink:href="#DejaVuSans-3a" x="477.197266"/>
    <use xlink:href="#DejaVuSans-20" x="510.888672"/>
    <use xlink:href="#DejaVuSans-4c" x="542.675781"/>
    <use xlink:href="#DejaVuSans-58" x="598.388672"/>
    <use xlink:href="#DejaVuSans-65" x="662.394531"/>
   </g>
   <!-- Bias: 32.0 [V] -->
   <g transform="translate(253.44 51.64325) scale(0.08 -0.08)">
    <defs>
     <path id="DejaVuSans-42" d="M 1259 2228 
L 1259 519 
L 2272 519 
Q 2781 519 3026 730 
Q 3272 941 3272 1375 
Q 3272 1813 3026 2020 
Q 2781 2228 2272 2228 
L 1259 2228 
z
M 1259 4147 
L 1259 2741 
L 2194 2741 
Q 2656 2741 2882 2914 
Q 3109 3088 3109 3444 
Q 3109 3797 2882 3972 
Q 2656 4147 2194 4147 
L 1259 4147 
z
M 628 4666 
L 2241 4666 
Q 2963 4666 3353 4366 
Q 3744 4066 3744 3513 
Q 3744 3084 3544 2831 
Q 3344 2578 2956 2516 
Q 3422 2416 3680 2098 
Q 3938 1781 3938 1306 
Q 3938 681 3513 340 
Q 3088 0 2303 0 
L 628 0 
L 628 4666 
z
" transform="scale(0.015625)"/>
    </defs>
    <use xlink:href="#DejaVuSans-42"/>
    <use xlink:href="#DejaVuSans-69" x="68.603516"/>
    <use xlink:href="#DejaVuSans-61" x="96.386719"/>
    <use xlink:href="#DejaVuSans-73" x="157.666016"/>
    <use xlink:href="#DejaVuSans-3a" x="209.765625"/>
    <use xlink:href="#DejaVuSans-20" x="243.457031"/>
    <use xlink:href="#DejaVuSans-33" x="275.244141"/>
    <use xlink:href="#DejaVuSans-32" x="338.867188"/>
    <use xlink:href="#DejaVuSans-2e" x="402.490234"/>
    <use xlink:href="#DejaVuSans-30" x="434.277344"/>
    <use xlink:href="#DejaVuSans-20" x="497.900391"/>
    <use xlink:href="#DejaVuSans-5b" x="529.6875"/>
    <use xlink:href="#DejaVuSans-56" x="568.701172"/>
    <use xlink:href="#DejaVuSans-5d" x="637.109375"/>
   </g>
   <!-- RTD4: 169.6 [K] -->
   <g transform="translate(253.44 60.6015) scale(0.08 -0.08)">
    <defs>
     <path id="DejaVuSans-52" d="M 2841 2188 
Q 3044 2119 3236 1894 
Q 3428 1669 3622 1275 
L 4263 0 
L 3584 0 
L 2988 1197 
Q 2756 1666 2539 1819 
Q 2322 1972 1947 1972 
L 1259 1972 
L 1259 0 
L 628 0 
L 628 4666 
L 2053 4666 
Q 2853 4666 3247 4331 
Q 3641 3997 3641 3322 
Q 3641 2881 3436 2590 
Q 3231 2300 2841 2188 
z
M 1259 4147 
L 1259 2491 
L 2053 2491 
Q 2509 2491 2742 2702 
Q 2975 2913 2975 3322 
Q 2975 3731 2742 3939 
Q 2509 4147 2053 4147 
L 1259 4147 
z
" transform="scale(0.015625)"/>
     <path id="DejaVuSans-54" d="M -19 4666 
L 3928 4666 
L 3928 4134 
L 2272 4134 
L 2272 0 
L 1638 0 
L 1638 4134 
L -19 4134 
L -19 4666 
z
" transform="scale(0.015625)"/>
     <path id="DejaVuSans-4b" d="M 628 4666 
L 1259 4666 
L 1259 2694 
L 3353 4666 
L 4166 4666 
L 1850 2491 
L 4331 0 
L 3500 0 
L 1259 2247 
L 1259 0 
L 628 0 
L 628 4666 
z
" transform="scale(0.015625)"/>
    </defs>
    <use xlink:href="#DejaVuSans-52"/>
    <use xlink:href="#DejaVuSans-54" x="62.232422"/>
    <use xlink:href="#DejaVuSans-44" x="123.316406"/>
    <use xlink:href="#DejaVuSans-34" x="200.318359"/>
    <use xlink:href="#DejaVuSans-3a" x="263.941406"/>
    <use xlink:href="#DejaVuSans-20" x="297.632812"/>
    <use xlink:href="#DejaVuSans-31" x="329.419922"/>
    <use xlink:href="#DejaVuSans-36" x="393.042969"/>
    <use xlink:href="#DejaVuSans-39" x="456.666016"/>
    <use xlink:href="#DejaVuSans-2e" x="520.289062"/>
    <use xlink:href="#DejaVuSans-36" x="552.076172"/>
    <use xlink:href="#DejaVuSans-20" x="615.699219"/>
    <use xlink:href="#DejaVuSans-5b" x="647.486328"/>
    <use xlink:href="#DejaVuSans-4b" x="686.5"/>
    <use xlink:href="#DejaVuSans-5d" x="752.076172"/>
   </g>
   <!-- Prominence: 0.0051060606060606 [V] -->
   <g transform="translate(253.44 69.55975) scale(0.08 -0.08)">
    <defs>
     <path id="DejaVuSans-72" d="M 2631 2963 
Q 2534 3019 2420 3045 
Q 2306 3072 2169 3072 
Q 1681 3072 1420 2755 
Q 1159 2438 1159 1844 
L 1159 0 
L 581 0 
L 581 3500 
L 1159 3500 
L 1159 2956 
Q 1341 3275 1631 3429 
Q 1922 3584 2338 3584 
Q 2397 3584 2469 3576 
Q 2541 3569 2628 3553 
L 2631 2963 
z
" transform="scale(0.015625)"/>
     <path id="DejaVuSans-63" d="M 3122 3366 
L 3122 2828 
Q 2878 2963 2633 3030 
Q 2388 3097 2138 3097 
Q 1578 3097 1268 2742 
Q 959 2388 959 1747 
Q 959 1106 1268 751 
Q 1578 397 2138 397 
Q 2388 397 2633 464 
Q 2878 531 3122 666 
L 3122 134 
Q 2881 22 2623 -34 
Q 2366 -91 2075 -91 
Q 1284 -91 818 406 
Q 353 903 353 1747 
Q 353 2603 823 3093 
Q 1294 3584 2113 3584 
Q 2378 3584 2631 3529 
Q 2884 3475 3122 3366 
z
" transform="scale(0.015625)"/>
    </defs>
    <use xlink:href="#DejaVuSans-50"/>
    <use xlink:href="#DejaVuSans-72" x="58.552734"/>
    <use xlink:href="#DejaVuSans-6f" x="97.416016"/>
    <use xlink:href="#DejaVuSans-6d" x="158.597656"/>
    <use xlink:href="#DejaVuSans-69" x="256.009766"/>
    <use xlink:href="#DejaVuSans-6e" x="283.792969"/>
    <use xlink:href="#DejaVuSans-65" x="347.171875"/>
    <use xlink:href="#DejaVuSans-6e" x="408.695312"/>
    <use xlink:href="#DejaVuSans-63" x="472.074219"/>
    <use xlink:href="#DejaVuSans-65" x="527.054688"/>
    <use xlink:href="#DejaVuSans-3a" x="588.578125"/>
    <use xlink:href="#DejaVuSans-20" x="622.269531"/>
    <use xlink:href="#DejaVuSans-30" x="654.056641"/>
    <use xlink:href="#DejaVuSans-2e" x="717.679688"/>
    <use xlink:href="#DejaVuSans-30" x="749.466797"/>
    <use xlink:href="#DejaVuSans-30" x="813.089844"/>
    <use xlink:href="#DejaVuSans-35" x="876.712891"/>
    <use xlink:href="#DejaVuSans-31" x="940.335938"/>
    <use xlink:href="#DejaVuSans-30" x="1003.958984"/>
    <use xlink:href="#DejaVuSans-36" x="1067.582031"/>
    <use xlink:href="#DejaVuSans-30" x="1131.205078"/>
    <use xlink:href="#DejaVuSans-36" x="1194.828125"/>
    <use xlink:href="#DejaVuSans-30" x="1258.451172"/>
    <use xlink:href="#DejaVuSans-36" x="1322.074219"/>
    <use xlink:href="#DejaVuSans-30" x="1385.697266"/>
    <use xlink:href="#DejaVuSans-36" x="1449.320312"/>
    <use xlink:href="#DejaVuSans-30" x="1512.943359"/>
    <use xlink:href="#DejaVuSans-36" x="1576.566406"/>
    <use xlink:href="#DejaVuSans-30" x="1640.189453"/>
    <use xlink:href="#DejaVuSans-36" x="1703.8125"/>
    <use xlink:href="#DejaVuSans-20" x="1767.435547"/>
    <use xlink:href="#DejaVuSans-5b" x="1799.222656"/>
    <use xlink:href="#DejaVuSans-56" x="1838.236328"/>
    <use xlink:href="#DejaVuSans-5d" x="1906.644531"/>
   </g>
   <!-- - - -->
   <g transform="translate(253.44 78.518) scale(0.08 -0.08)">
    <defs>
     <path id="DejaVuSans-2d" d="M 313 2009 
L 1997 2009 
L 1997 1497 
L 313 1497 
L 313 2009 
z
" transform="scale(0.015625)"/>
    </defs>
    <use xlink:href="#DejaVuSans-2d"/>
    <use xlink:href="#DejaVuSans-2d" x="36.083984"/>
   </g>
   <!-- Peak Locations ($\mu$) [V] -->
   <g transform="translate(253.44 87.47775) scale(0.08 -0.08)">
    <defs>
     <path id="DejaVuSans-6b" d="M 581 4863 
L 1159 4863 
L 1159 1991 
L 2875 3500 
L 3609 3500 
L 1753 1863 
L 3688 0 
L 2938 0 
L 1159 1709 
L 1159 0 
L 581 0 
L 581 4863 
z
" transform="scale(0.015625)"/>
     <path id="DejaVuSans-28" d="M 1984 4856 
Q 1566 4138 1362 3434 
Q 1159 2731 1159 2009 
Q 1159 1288 1364 580 
Q 1569 -128 1984 -844 
L 1484 -844 
Q 1016 -109 783 600 
Q 550 1309 550 2009 
Q 550 2706 781 3412 
Q 1013 4119 1484 4856 
L 1984 4856 
z
" transform="scale(0.015625)"/>
     <path id="DejaVuSans-Oblique-3bc" d="M -84 -1331 
L 856 3500 
L 1434 3500 
L 1009 1322 
Q 997 1256 987 1175 
Q 978 1094 978 1013 
Q 978 722 1161 565 
Q 1344 409 1684 409 
Q 2147 409 2431 671 
Q 2716 934 2816 1459 
L 3213 3500 
L 3788 3500 
L 3266 809 
Q 3253 750 3248 706 
Q 3244 663 3244 628 
Q 3244 531 3283 486 
Q 3322 441 3406 441 
Q 3438 441 3492 456 
Q 3547 472 3647 513 
L 3559 50 
Q 3422 -19 3297 -55 
Q 3172 -91 3053 -91 
Q 2847 -91 2730 40 
Q 2613 172 2613 403 
Q 2438 153 2195 31 
Q 1953 -91 1625 -91 
Q 1334 -91 1117 43 
Q 900 178 831 397 
L 494 -1331 
L -84 -1331 
z
" transform="scale(0.015625)"/>
     <path id="DejaVuSans-29" d="M 513 4856 
L 1013 4856 
Q 1481 4119 1714 3412 
Q 1947 2706 1947 2009 
Q 1947 1309 1714 600 
Q 1481 -109 1013 -844 
L 513 -844 
Q 928 -128 1133 580 
Q 1338 1288 1338 2009 
Q 1338 2731 1133 3434 
Q 928 4138 513 4856 
z
" transform="scale(0.015625)"/>
    </defs>
    <use xlink:href="#DejaVuSans-50" transform="translate(0 0.015625)"/>
    <use xlink:href="#DejaVuSans-65" transform="translate(60.302734 0.015625)"/>
    <use xlink:href="#DejaVuSans-61" transform="translate(121.826172 0.015625)"/>
    <use xlink:href="#DejaVuSans-6b" transform="translate(183.105469 0.015625)"/>
    <use xlink:href="#DejaVuSans-20" transform="translate(241.015625 0.015625)"/>
    <use xlink:href="#DejaVuSans-4c" transform="translate(272.802734 0.015625)"/>
    <use xlink:href="#DejaVuSans-6f" transform="translate(328.515625 0.015625)"/>
    <use xlink:href="#DejaVuSans-63" transform="translate(389.697266 0.015625)"/>
    <use xlink:href="#DejaVuSans-61" transform="translate(444.677734 0.015625)"/>
    <use xlink:href="#DejaVuSans-74" transform="translate(505.957031 0.015625)"/>
    <use xlink:href="#DejaVuSans-69" transform="translate(545.166016 0.015625)"/>
    <use xlink:href="#DejaVuSans-6f" transform="translate(572.949219 0.015625)"/>
    <use xlink:href="#DejaVuSans-6e" transform="translate(634.130859 0.015625)"/>
    <use xlink:href="#DejaVuSans-73" transform="translate(697.509766 0.015625)"/>
    <use xlink:href="#DejaVuSans-20" transform="translate(749.609375 0.015625)"/>
    <use xlink:href="#DejaVuSans-28" transform="translate(781.396484 0.015625)"/>
    <use xlink:href="#DejaVuSans-Oblique-3bc" transform="translate(820.410156 0.015625)"/>
    <use xlink:href="#DejaVuSans-29" transform="translate(884.033203 0.015625)"/>
    <use xlink:href="#DejaVuSans-20" transform="translate(923.046875 0.015625)"/>
    <use xlink:href="#DejaVuSans-5b" transform="translate(954.833984 0.015625)"/>
    <use xlink:href="#DejaVuSans-56" transform="translate(993.847656 0.015625)"/>
    <use xlink:href="#DejaVuSans-5d" transform="translate(1062.255859 0.015625)"/>
   </g>
   <!-- Peak 1: 0.0056 $\pm$ 4.9e-05 -->
   <g transform="translate(253.44 96.45225) scale(0.08 -0.08)">
    <defs>
     <path id="DejaVuSans-b1" d="M 2944 4013 
L 2944 2803 
L 4684 2803 
L 4684 2272 
L 2944 2272 
L 2944 1063 
L 2419 1063 
L 2419 2272 
L 678 2272 
L 678 2803 
L 2419 2803 
L 2419 4013 
L 2944 4013 
z
M 678 531 
L 4684 531 
L 4684 0 
L 678 0 
L 678 531 
z
" transform="scale(0.015625)"/>
    </defs>
    <use xlink:href="#DejaVuSans-50" transform="translate(0 0.015625)"/>
    <use xlink:href="#DejaVuSans-65" transform="translate(60.302734 0.015625)"/>
    <use xlink:href="#DejaVuSans-61" transform="translate(121.826172 0.015625)"/>
    <use xlink:href="#DejaVuSans-6b" transform="translate(183.105469 0.015625)"/>
    <use xlink:href="#DejaVuSans-20" transform="translate(241.015625 0.015625)"/>
    <use xlink:href="#DejaVuSans-31" transform="translate(272.802734 0.015625)"/>
    <use xlink:href="#DejaVuSans-3a" transform="translate(336.425781 0.015625)"/>
    <use xlink:href="#DejaVuSans-20" transform="translate(370.117188 0.015625)"/>
    <use xlink:href="#DejaVuSans-30" transform="translate(401.904297 0.015625)"/>
    <use xlink:href="#DejaVuSans-2e" transform="translate(465.527344 0.015625)"/>
    <use xlink:href="#DejaVuSans-30" transform="translate(497.314453 0.015625)"/>
    <use xlink:href="#DejaVuSans-30" transform="translate(560.9375 0.015625)"/>
    <use xlink:href="#DejaVuSans-35" transform="translate(624.560547 0.015625)"/>
    <use xlink:href="#DejaVuSans-36" transform="translate(688.183594 0.015625)"/>
    <use xlink:href="#DejaVuSans-20" transform="translate(751.806641 0.015625)"/>
    <use xlink:href="#DejaVuSans-b1" transform="translate(783.59375 0.015625)"/>
    <use xlink:href="#DejaVuSans-20" transform="translate(867.382812 0.015625)"/>
    <use xlink:href="#DejaVuSans-34" transform="translate(899.169922 0.015625)"/>
    <use xlink:href="#DejaVuSans-2e" transform="translate(962.792969 0.015625)"/>
    <use xlink:href="#DejaVuSans-39" transform="translate(994.580078 0.015625)"/>
    <use xlink:href="#DejaVuSans-65" transform="translate(1058.203125 0.015625)"/>
    <use xlink:href="#DejaVuSans-2d" transform="translate(1119.726562 0.015625)"/>
    <use xlink:href="#DejaVuSans-30" transform="translate(1155.810547 0.015625)"/>
    <use xlink:href="#DejaVuSans-35" transform="translate(1219.433594 0.015625)"/>
   </g>
   <!-- Peak 2: 0.011 $\pm$ 7.9e-05 -->
   <g transform="translate(253.44 105.4105) scale(0.08 -0.08)">
    <use xlink:href="#DejaVuSans-50" transform="translate(0 0.015625)"/>
    <use xlink:href="#DejaVuSans-65" transform="translate(60.302734 0.015625)"/>
    <use xlink:href="#DejaVuSans-61" transform="translate(121.826172 0.015625)"/>
    <use xlink:href="#DejaVuSans-6b" transform="translate(183.105469 0.015625)"/>
    <use xlink:href="#DejaVuSans-20" transform="translate(241.015625 0.015625)"/>
    <use xlink:href="#DejaVuSans-32" transform="translate(272.802734 0.015625)"/>
    <use xlink:href="#DejaVuSans-3a" transform="translate(336.425781 0.015625)"/>
    <use xlink:href="#DejaVuSans-20" transform="translate(370.117188 0.015625)"/>
    <use xlink:href="#DejaVuSans-30" transform="translate(401.904297 0.015625)"/>
    <use xlink:href="#DejaVuSans-2e" transform="translate(465.527344 0.015625)"/>
    <use xlink:href="#DejaVuSans-30" transform="translate(497.314453 0.015625)"/>
    <use xlink:href="#DejaVuSans-31" transform="translate(560.9375 0.015625)"/>
    <use xlink:href="#DejaVuSans-31" transform="translate(624.560547 0.015625)"/>
    <use xlink:href="#DejaVuSans-20" transform="translate(688.183594 0.015625)"/>
    <use xlink:href="#DejaVuSans-b1" transform="translate(719.970703 0.015625)"/>
    <use xlink:href="#DejaVuSans-20" transform="translate(803.759766 0.015625)"/>
    <use xlink:href="#DejaVuSans-37" transform="translate(835.546875 0.015625)"/>
    <use xlink:href="#DejaVuSans-2e" transform="translate(899.169922 0.015625)"/>
    <use xlink:href="#DejaVuSans-39" transform="translate(930.957031 0.015625)"/>
    <use xlink:href="#DejaVuSans-65" transform="translate(994.580078 0.015625)"/>
    <use xlink:href="#DejaVuSans-2d" transform="translate(1056.103516 0.015625)"/>
    <use xlink:href="#DejaVuSans-30" transform="translate(1092.1875 0.015625)"/>
    <use xlink:href="#DejaVuSans-35" transform="translate(1155.810547 0.015625)"/>
   </g>
   <!-- Peak 3: 0.016 $\pm$ 0.00015 -->
   <g transform="translate(253.44 114.36875) scale(0.08 -0.08)">
    <use xlink:href="#DejaVuSans-50" transform="translate(0 0.015625)"/>
    <use xlink:href="#DejaVuSans-65" transform="translate(60.302734 0.015625)"/>
    <use xlink:href="#DejaVuSans-61" transform="translate(121.826172 0.015625)"/>
    <use xlink:href="#DejaVuSans-6b" transform="translate(183.105469 0.015625)"/>
    <use xlink:href="#DejaVuSans-20" transform="translate(241.015625 0.015625)"/>
    <use xlink:href="#DejaVuSans-33" transform="translate(272.802734 0.015625)"/>
    <use xlink:href="#DejaVuSans-3a" transform="translate(336.425781 0.015625)"/>
    <use xlink:href="#DejaVuSans-20" transform="translate(370.117188 0.015625)"/>
    <use xlink:href="#DejaVuSans-30" transform="translate(401.904297 0.015625)"/>
    <use xlink:href="#DejaVuSans-2e" transform="translate(465.527344 0.015625)"/>
    <use xlink:href="#DejaVuSans-30" transform="translate(497.314453 0.015625)"/>
    <use xlink:href="#DejaVuSans-31" transform="translate(560.9375 0.015625)"/>
    <use xlink:href="#DejaVuSans-36" transform="translate(624.560547 0.015625)"/>
    <use xlink:href="#DejaVuSans-20" transform="translate(688.183594 0.015625)"/>
    <use xlink:href="#DejaVuSans-b1" transform="translate(719.970703 0.015625)"/>
    <use xlink:href="#DejaVuSans-20" transform="translate(803.759766 0.015625)"/>
    <use xlink:href="#DejaVuSans-30" transform="translate(835.546875 0.015625)"/>
    <use xlink:href="#DejaVuSans-2e" transform="translate(899.169922 0.015625)"/>
    <use xlink:href="#DejaVuSans-30" transform="translate(930.957031 0.015625)"/>
    <use xlink:href="#DejaVuSans-30" transform="translate(994.580078 0.015625)"/>
    <use xlink:href="#DejaVuSans-30" transform="translate(1058.203125 0.015625)"/>
    <use xlink:href="#DejaVuSans-31" transform="translate(1121.826172 0.015625)"/>
    <use xlink:href="#DejaVuSans-35" transform="translate(1185.449219 0.015625)"/>
   </g>
   <!-- Peak 4: 0.021 $\pm$ 0.0005 -->
   <g transform="translate(253.44 123.327) scale(0.08 -0.08)">
    <use xlink:href="#DejaVuSans-50" transform="translate(0 0.015625)"/>
    <use xlink:href="#DejaVuSans-65" transform="translate(60.302734 0.015625)"/>
    <use xlink:href="#DejaVuSans-61" transform="translate(121.826172 0.015625)"/>
    <use xlink:href="#DejaVuSans-6b" transform="translate(183.105469 0.015625)"/>
    <use xlink:href="#DejaVuSans-20" transform="translate(241.015625 0.015625)"/>
    <use xlink:href="#DejaVuSans-34" transform="translate(272.802734 0.015625)"/>
    <use xlink:href="#DejaVuSans-3a" transform="translate(336.425781 0.015625)"/>
    <use xlink:href="#DejaVuSans-20" transform="translate(370.117188 0.015625)"/>
    <use xlink:href="#DejaVuSans-30" transform="translate(401.904297 0.015625)"/>
    <use xlink:href="#DejaVuSans-2e" transform="translate(465.527344 0.015625)"/>
    <use xlink:href="#DejaVuSans-30" transform="translate(497.314453 0.015625)"/>
    <use xlink:href="#DejaVuSans-32" transform="translate(560.9375 0.015625)"/>
    <use xlink:href="#DejaVuSans-31" transform="translate(624.560547 0.015625)"/>
    <use xlink:href="#DejaVuSans-20" transform="translate(688.183594 0.015625)"/>
    <use xlink:href="#DejaVuSans-b1" transform="translate(719.970703 0.015625)"/>
    <use xlink:href="#DejaVuSans-20" transform="translate(803.759766 0.015625)"/>
    <use xlink:href="#DejaVuSans-30" transform="translate(835.546875 0.015625)"/>
    <use xlink:href="#DejaVuSans-2e" transform="translate(899.169922 0.015625)"/>
    <use xlink:href="#DejaVuSans-30" transform="translate(930.957031 0.015625)"/>
    <use xlink:href="#DejaVuSans-30" transform="translate(994.580078 0.015625)"/>
    <use xlink:href="#DejaVuSans-30" transform="translate(1058.203125 0.015625)"/>
    <use xlink:href="#DejaVuSans-35" transform="translate(1121.826172 0.015625)"/>
   </g>
   <!-- - - -->
   <g transform="translate(253.44 132.28525) scale(0.08 -0.08)">
    <use xlink:href="#DejaVuSans-2d"/>
    <use xlink:href="#DejaVuSans-2d" x="36.083984"/>
   </g>
   <!-- Peak Width () [V] -->
   <g transform="translate(253.44 141.2435) scale(0.08 -0.08)">
    <defs>
     <path id="DejaVuSans-57" d="M 213 4666 
L 850 4666 
L 1831 722 
L 2809 4666 
L 3519 4666 
L 4500 722 
L 5478 4666 
L 6119 4666 
L 4947 0 
L 4153 0 
L 3169 4050 
L 2175 0 
L 1381 0 
L 213 4666 
z
" transform="scale(0.015625)"/>
     <path id="DejaVuSans-68" d="M 3513 2113 
L 3513 0 
L 2938 0 
L 2938 2094 
Q 2938 2591 2744 2837 
Q 2550 3084 2163 3084 
Q 1697 3084 1428 2787 
Q 1159 2491 1159 1978 
L 1159 0 
L 581 0 
L 581 4863 
L 1159 4863 
L 1159 2956 
Q 1366 3272 1645 3428 
Q 1925 3584 2291 3584 
Q 2894 3584 3203 3211 
Q 3513 2838 3513 2113 
z
" transform="scale(0.015625)"/>
     <path id="DejaVuSans-3c3" d="M 1959 3044 
Q 1484 3044 1228 2700 
Q 959 2341 959 1747 
Q 959 1119 1226 758 
Q 1494 397 1959 397 
Q 2419 397 2687 759 
Q 2956 1122 2956 1747 
Q 2956 2319 2688 2700 
Q 2441 3044 1959 3044 
z
M 1959 3500 
L 3869 3500 
L 3869 2925 
L 3225 2925 
Q 3566 2438 3566 1747 
Q 3566 888 3138 400 
Q 2709 -91 1959 -91 
Q 1206 -91 781 400 
Q 353 888 353 1747 
Q 353 2613 781 3097 
Q 1134 3500 1959 3500 
z
" transform="scale(0.015625)"/>
    </defs>
    <use xlink:href="#DejaVuSans-50"/>
    <use xlink:href="#DejaVuSans-65" x="56.677734"/>
    <use xlink:href="#DejaVuSans-61" x="118.201172"/>
    <use xlink:href="#DejaVuSans-6b" x="179.480469"/>
    <use xlink:href="#DejaVuSans-20" x="237.390625"/>
    <use xlink:href="#DejaVuSans-57" x="269.177734"/>
    <use xlink:href="#DejaVuSans-69" x="365.804688"/>
    <use xlink:href="#DejaVuSans-64" x="393.587891"/>
    <use xlink:href="#DejaVuSans-74" x="457.064453"/>
    <use xlink:href="#DejaVuSans-68" x="496.273438"/>
    <use xlink:href="#DejaVuSans-20" x="559.652344"/>
    <use xlink:href="#DejaVuSans-28" x="591.439453"/>
    <use xlink:href="#DejaVuSans-3c3" x="630.453125"/>
    <use xlink:href="#DejaVuSans-29" x="693.832031"/>
    <use xlink:href="#DejaVuSans-20" x="732.845703"/>
    <use xlink:href="#DejaVuSans-5b" x="764.632812"/>
    <use xlink:href="#DejaVuSans-56" x="803.646484"/>
    <use xlink:href="#DejaVuSans-5d" x="872.054688"/>
   </g>
   <!-- 1: 0.00123 $\pm$ 9.5e-05 -->
   <g transform="translate(253.44 150.20175) scale(0.08 -0.08)">
    <use xlink:href="#DejaVuSans-31" transform="translate(0 0.78125)"/>
    <use xlink:href="#DejaVuSans-3a" transform="translate(63.623047 0.78125)"/>
    <use xlink:href="#DejaVuSans-20" transform="translate(97.314453 0.78125)"/>
    <use xlink:href="#DejaVuSans-30" transform="translate(129.101562 0.78125)"/>
    <use xlink:href="#DejaVuSans-2e" transform="translate(192.724609 0.78125)"/>
    <use xlink:href="#DejaVuSans-30" transform="translate(224.511719 0.78125)"/>
    <use xlink:href="#DejaVuSans-30" transform="translate(288.134766 0.78125)"/>
    <use xlink:href="#DejaVuSans-31" transform="translate(351.757812 0.78125)"/>
    <use xlink:href="#DejaVuSans-32" transform="translate(415.380859 0.78125)"/>
    <use xlink:href="#DejaVuSans-33" transform="translate(479.003906 0.78125)"/>
    <use xlink:href="#DejaVuSans-20" transform="translate(542.626953 0.78125)"/>
    <use xlink:href="#DejaVuSans-b1" transform="translate(574.414062 0.78125)"/>
    <use xlink:href="#DejaVuSans-20" transform="translate(658.203125 0.78125)"/>
    <use xlink:href="#DejaVuSans-39" transform="translate(689.990234 0.78125)"/>
    <use xlink:href="#DejaVuSans-2e" transform="translate(753.613281 0.78125)"/>
    <use xlink:href="#DejaVuSans-35" transform="translate(785.400391 0.78125)"/>
    <use xlink:href="#DejaVuSans-65" transform="translate(849.023438 0.78125)"/>
    <use xlink:href="#DejaVuSans-2d" transform="translate(910.546875 0.78125)"/>
    <use xlink:href="#DejaVuSans-30" transform="translate(946.630859 0.78125)"/>
    <use xlink:href="#DejaVuSans-35" transform="translate(1010.253906 0.78125)"/>
   </g>
   <!-- 2: 0.00128 $\pm$ 0.00021 -->
   <g transform="translate(253.44 159.16) scale(0.08 -0.08)">
    <defs>
     <path id="DejaVuSans-38" d="M 2034 2216 
Q 1584 2216 1326 1975 
Q 1069 1734 1069 1313 
Q 1069 891 1326 650 
Q 1584 409 2034 409 
Q 2484 409 2743 651 
Q 3003 894 3003 1313 
Q 3003 1734 2745 1975 
Q 2488 2216 2034 2216 
z
M 1403 2484 
Q 997 2584 770 2862 
Q 544 3141 544 3541 
Q 544 4100 942 4425 
Q 1341 4750 2034 4750 
Q 2731 4750 3128 4425 
Q 3525 4100 3525 3541 
Q 3525 3141 3298 2862 
Q 3072 2584 2669 2484 
Q 3125 2378 3379 2068 
Q 3634 1759 3634 1313 
Q 3634 634 3220 271 
Q 2806 -91 2034 -91 
Q 1263 -91 848 271 
Q 434 634 434 1313 
Q 434 1759 690 2068 
Q 947 2378 1403 2484 
z
M 1172 3481 
Q 1172 3119 1398 2916 
Q 1625 2713 2034 2713 
Q 2441 2713 2670 2916 
Q 2900 3119 2900 3481 
Q 2900 3844 2670 4047 
Q 2441 4250 2034 4250 
Q 1625 4250 1398 4047 
Q 1172 3844 1172 3481 
z
" transform="scale(0.015625)"/>
    </defs>
    <use xlink:href="#DejaVuSans-32" transform="translate(0 0.78125)"/>
    <use xlink:href="#DejaVuSans-3a" transform="translate(63.623047 0.78125)"/>
    <use xlink:href="#DejaVuSans-20" transform="translate(97.314453 0.78125)"/>
    <use xlink:href="#DejaVuSans-30" transform="translate(129.101562 0.78125)"/>
    <use xlink:href="#DejaVuSans-2e" transform="translate(192.724609 0.78125)"/>
    <use xlink:href="#DejaVuSans-30" transform="translate(224.511719 0.78125)"/>
    <use xlink:href="#DejaVuSans-30" transform="translate(288.134766 0.78125)"/>
    <use xlink:href="#DejaVuSans-31" transform="translate(351.757812 0.78125)"/>
    <use xlink:href="#DejaVuSans-32" transform="translate(415.380859 0.78125)"/>
    <use xlink:href="#DejaVuSans-38" transform="translate(479.003906 0.78125)"/>
    <use xlink:href="#DejaVuSans-20" transform="translate(542.626953 0.78125)"/>
    <use xlink:href="#DejaVuSans-b1" transform="translate(574.414062 0.78125)"/>
    <use xlink:href="#DejaVuSans-20" transform="translate(658.203125 0.78125)"/>
    <use xlink:href="#DejaVuSans-30" transform="translate(689.990234 0.78125)"/>
    <use xlink:href="#DejaVuSans-2e" transform="translate(753.613281 0.78125)"/>
    <use xlink:href="#DejaVuSans-30" transform="translate(785.400391 0.78125)"/>
    <use xlink:href="#DejaVuSans-30" transform="translate(849.023438 0.78125)"/>
    <use xlink:href="#DejaVuSans-30" transform="translate(912.646484 0.78125)"/>
    <use xlink:href="#DejaVuSans-32" transform="translate(976.269531 0.78125)"/>
    <use xlink:href="#DejaVuSans-31" transform="translate(1039.892578 0.78125)"/>
   </g>
   <!-- 3: 0.00114 $\pm$ 0.0003 -->
   <g transform="translate(253.44 168.11825) scale(0.08 -0.08)">
    <use xlink:href="#DejaVuSans-33" transform="translate(0 0.78125)"/>
    <use xlink:href="#DejaVuSans-3a" transform="translate(63.623047 0.78125)"/>
    <use xlink:href="#DejaVuSans-20" transform="translate(97.314453 0.78125)"/>
    <use xlink:href="#DejaVuSans-30" transform="translate(129.101562 0.78125)"/>
    <use xlink:href="#DejaVuSans-2e" transform="translate(192.724609 0.78125)"/>
    <use xlink:href="#DejaVuSans-30" transform="translate(224.511719 0.78125)"/>
    <use xlink:href="#DejaVuSans-30" transform="translate(288.134766 0.78125)"/>
    <use xlink:href="#DejaVuSans-31" transform="translate(351.757812 0.78125)"/>
    <use xlink:href="#DejaVuSans-31" transform="translate(415.380859 0.78125)"/>
    <use xlink:href="#DejaVuSans-34" transform="translate(479.003906 0.78125)"/>
    <use xlink:href="#DejaVuSans-20" transform="translate(542.626953 0.78125)"/>
    <use xlink:href="#DejaVuSans-b1" transform="translate(574.414062 0.78125)"/>
    <use xlink:href="#DejaVuSans-20" transform="translate(658.203125 0.78125)"/>
    <use xlink:href="#DejaVuSans-30" transform="translate(689.990234 0.78125)"/>
    <use xlink:href="#DejaVuSans-2e" transform="translate(753.613281 0.78125)"/>
    <use xlink:href="#DejaVuSans-30" transform="translate(785.400391 0.78125)"/>
    <use xlink:href="#DejaVuSans-30" transform="translate(849.023438 0.78125)"/>
    <use xlink:href="#DejaVuSans-30" transform="translate(912.646484 0.78125)"/>
    <use xlink:href="#DejaVuSans-33" transform="translate(976.269531 0.78125)"/>
   </g>
   <!-- 4: 0.00124 $\pm$ 0.00099 -->
   <g transform="translate(253.44 177.0765) scale(0.08 -0.08)">
    <use xlink:href="#DejaVuSans-34" transform="translate(0 0.78125)"/>
    <use xlink:href="#DejaVuSans-3a" transform="translate(63.623047 0.78125)"/>
    <use xlink:href="#DejaVuSans-20" transform="translate(97.314453 0.78125)"/>
    <use xlink:href="#DejaVuSans-30" transform="translate(129.101562 0.78125)"/>
    <use xlink:href="#DejaVuSans-2e" transform="translate(192.724609 0.78125)"/>
    <use xlink:href="#DejaVuSans-30" transform="translate(224.511719 0.78125)"/>
    <use xlink:href="#DejaVuSans-30" transform="translate(288.134766 0.78125)"/>
    <use xlink:href="#DejaVuSans-31" transform="translate(351.757812 0.78125)"/>
    <use xlink:href="#DejaVuSans-32" transform="translate(415.380859 0.78125)"/>
    <use xlink:href="#DejaVuSans-34" transform="translate(479.003906 0.78125)"/>
    <use xlink:href="#DejaVuSans-20" transform="translate(542.626953 0.78125)"/>
    <use xlink:href="#DejaVuSans-b1" transform="translate(574.414062 0.78125)"/>
    <use xlink:href="#DejaVuSans-20" transform="translate(658.203125 0.78125)"/>
    <use xlink:href="#DejaVuSans-30" transform="translate(689.990234 0.78125)"/>
    <use xlink:href="#DejaVuSans-2e" transform="translate(753.613281 0.78125)"/>
    <use xlink:href="#DejaVuSans-30" transform="translate(785.400391 0.78125)"/>
    <use xlink:href="#DejaVuSans-30" transform="translate(849.023438 0.78125)"/>
    <use xlink:href="#DejaVuSans-30" transform="translate(912.646484 0.78125)"/>
    <use xlink:href="#DejaVuSans-39" transform="translate(976.269531 0.78125)"/>
    <use xlink:href="#DejaVuSans-39" transform="translate(1039.892578 0.78125)"/>
   </g>
   <!-- - - -->
   <g transform="translate(253.44 186.03475) scale(0.08 -0.08)">
    <use xlink:href="#DejaVuSans-2d"/>
    <use xlink:href="#DejaVuSans-2d" x="36.083984"/>
   </g>
   <!-- Reduced $\chi^2$: 1.3 -->
   <g transform="translate(253.44 196.4345) scale(0.08 -0.08)">
    <defs>
     <path id="DejaVuSans-Oblique-3c7" d="M 1922 -781 
L 1691 416 
L 394 -1334 
L -284 -1334 
L 1553 1141 
L 1269 2613 
Q 1194 3006 713 3006 
L 559 3006 
L 653 3500 
L 872 3494 
Q 1675 3472 1775 2950 
L 2006 1753 
L 3303 3503 
L 3981 3503 
L 2144 1028 
L 2428 -444 
Q 2503 -838 2984 -838 
L 3138 -838 
L 3044 -1331 
L 2825 -1325 
Q 2022 -1303 1922 -781 
z
" transform="scale(0.015625)"/>
    </defs>
    <use xlink:href="#DejaVuSans-52" transform="translate(0 0.765625)"/>
    <use xlink:href="#DejaVuSans-65" transform="translate(69.482422 0.765625)"/>
    <use xlink:href="#DejaVuSans-64" transform="translate(131.005859 0.765625)"/>
    <use xlink:href="#DejaVuSans-75" transform="translate(194.482422 0.765625)"/>
    <use xlink:href="#DejaVuSans-63" transform="translate(257.861328 0.765625)"/>
    <use xlink:href="#DejaVuSans-65" transform="translate(312.841797 0.765625)"/>
    <use xlink:href="#DejaVuSans-64" transform="translate(374.365234 0.765625)"/>
    <use xlink:href="#DejaVuSans-20" transform="translate(437.841797 0.765625)"/>
    <use xlink:href="#DejaVuSans-Oblique-3c7" transform="translate(469.628906 0.765625)"/>
    <use xlink:href="#DejaVuSans-32" transform="translate(533.281302 39.046875) scale(0.7)"/>
    <use xlink:href="#DejaVuSans-3a" transform="translate(580.55181 0.765625)"/>
    <use xlink:href="#DejaVuSans-20" transform="translate(614.243216 0.765625)"/>
    <use xlink:href="#DejaVuSans-31" transform="translate(646.030326 0.765625)"/>
    <use xlink:href="#DejaVuSans-2e" transform="translate(709.653372 0.765625)"/>
    <use xlink:href="#DejaVuSans-33" transform="translate(741.440482 0.765625)"/>
   </g>
   <!-- $\frac{\mu_{i+1}-\mu_{i}}{\sqrt{\sigma_{i+1}+\sigma_{i}}}$ =  1-2: 2.8; 2-3: 3.0; -->
   <g transform="translate(253.44 207.4265) scale(0.08 -0.08)">
    <defs>
     <path id="DejaVuSans-Oblique-69" d="M 1172 4863 
L 1747 4863 
L 1606 4134 
L 1031 4134 
L 1172 4863 
z
M 909 3500 
L 1484 3500 
L 800 0 
L 225 0 
L 909 3500 
z
" transform="scale(0.015625)"/>
     <path id="DejaVuSans-2b" d="M 2944 4013 
L 2944 2272 
L 4684 2272 
L 4684 1741 
L 2944 1741 
L 2944 0 
L 2419 0 
L 2419 1741 
L 678 1741 
L 678 2272 
L 2419 2272 
L 2419 4013 
L 2944 4013 
z
" transform="scale(0.015625)"/>
     <path id="DejaVuSans-2212" d="M 678 2272 
L 4684 2272 
L 4684 1741 
L 678 1741 
L 678 2272 
z
" transform="scale(0.015625)"/>
     <path id="STIXSizeOneSym-Regular-221a" d="M 6970 9933 
L 3373 -1888 
L 3104 -1888 
L 1626 2918 
Q 1555 3149 1465 3251 
Q 1376 3354 1229 3354 
Q 1011 3354 794 3181 
L 717 3309 
L 1766 4115 
L 1926 4115 
L 3379 -602 
L 3405 -602 
L 6605 9933 
L 6970 9933 
z
" transform="scale(0.015625)"/>
     <path id="DejaVuSans-Oblique-3c3" d="M 2219 3044 
Q 1744 3044 1422 2700 
Q 1081 2341 969 1747 
Q 844 1119 1044 756 
Q 1241 397 1706 397 
Q 2166 397 2503 759 
Q 2844 1122 2966 1747 
Q 3075 2319 2881 2700 
Q 2700 3044 2219 3044 
z
M 2309 3503 
L 4219 3500 
L 4106 2925 
L 3463 2925 
Q 3706 2438 3575 1747 
Q 3406 888 2884 400 
Q 2359 -91 1609 -91 
Q 856 -91 525 400 
Q 194 888 363 1747 
Q 528 2609 1050 3097 
Q 1484 3503 2309 3503 
z
" transform="scale(0.015625)"/>
     <path id="DejaVuSans-3d" d="M 678 2906 
L 4684 2906 
L 4684 2381 
L 678 2381 
L 678 2906 
z
M 678 1631 
L 4684 1631 
L 4684 1100 
L 678 1100 
L 678 1631 
z
" transform="scale(0.015625)"/>
     <path id="DejaVuSans-3b" d="M 750 3309 
L 1409 3309 
L 1409 2516 
L 750 2516 
L 750 3309 
z
M 750 794 
L 1409 794 
L 1409 256 
L 897 -744 
L 494 -744 
L 750 256 
L 750 794 
z
" transform="scale(0.015625)"/>
    </defs>
    <use xlink:href="#DejaVuSans-Oblique-3bc" transform="translate(31 58.71875) scale(0.7)"/>
    <use xlink:href="#DejaVuSans-Oblique-69" transform="translate(75.536133 47.234375) scale(0.49)"/>
    <use xlink:href="#DejaVuSans-2b" transform="translate(98.696289 47.234375) scale(0.49)"/>
    <use xlink:href="#DejaVuSans-31" transform="translate(149.299316 47.234375) scale(0.49)"/>
    <use xlink:href="#DejaVuSans-2212" transform="translate(196.026367 58.71875) scale(0.7)"/>
    <use xlink:href="#DejaVuSans-Oblique-3bc" transform="translate(268.316406 58.71875) scale(0.7)"/>
    <use xlink:href="#DejaVuSans-Oblique-69" transform="translate(312.852539 47.234375) scale(0.49)"/>
    <use xlink:href="#STIXSizeOneSym-Regular-221a" transform="translate(0 -56.476562) scale(0.418247)"/>
    <use xlink:href="#DejaVuSans-Oblique-3c3" transform="translate(52.959012 -57.35625) scale(0.7)"/>
    <use xlink:href="#DejaVuSans-Oblique-69" transform="translate(97.324246 -68.840625) scale(0.49)"/>
    <use xlink:href="#DejaVuSans-2b" transform="translate(120.484402 -68.840625) scale(0.49)"/>
    <use xlink:href="#DejaVuSans-31" transform="translate(171.08743 -68.840625) scale(0.49)"/>
    <use xlink:href="#DejaVuSans-2b" transform="translate(217.814481 -57.35625) scale(0.7)"/>
    <use xlink:href="#DejaVuSans-Oblique-3c3" transform="translate(290.10452 -57.35625) scale(0.7)"/>
    <use xlink:href="#DejaVuSans-Oblique-69" transform="translate(334.469754 -68.840625) scale(0.49)"/>
    <use xlink:href="#DejaVuSans-20" transform="translate(371.247586 0.364063)"/>
    <use xlink:href="#DejaVuSans-3d" transform="translate(403.034695 0.364063)"/>
    <use xlink:href="#DejaVuSans-20" transform="translate(486.823758 0.364063)"/>
    <use xlink:href="#DejaVuSans-20" transform="translate(518.610867 0.364063)"/>
    <use xlink:href="#DejaVuSans-31" transform="translate(550.397977 0.364063)"/>
    <use xlink:href="#DejaVuSans-2d" transform="translate(614.021024 0.364063)"/>
    <use xlink:href="#DejaVuSans-32" transform="translate(650.105008 0.364063)"/>
    <use xlink:href="#DejaVuSans-3a" transform="translate(713.728055 0.364063)"/>
    <use xlink:href="#DejaVuSans-20" transform="translate(747.419461 0.364063)"/>
    <use xlink:href="#DejaVuSans-32" transform="translate(779.20657 0.364063)"/>
    <use xlink:href="#DejaVuSans-2e" transform="translate(842.829617 0.364063)"/>
    <use xlink:href="#DejaVuSans-38" transform="translate(871.991727 0.364063)"/>
    <use xlink:href="#DejaVuSans-3b" transform="translate(935.614774 0.364063)"/>
    <use xlink:href="#DejaVuSans-20" transform="translate(969.30618 0.364063)"/>
    <use xlink:href="#DejaVuSans-32" transform="translate(1001.093289 0.364063)"/>
    <use xlink:href="#DejaVuSans-2d" transform="translate(1064.716336 0.364063)"/>
    <use xlink:href="#DejaVuSans-33" transform="translate(1100.80032 0.364063)"/>
    <use xlink:href="#DejaVuSans-3a" transform="translate(1164.423367 0.364063)"/>
    <use xlink:href="#DejaVuSans-20" transform="translate(1198.114774 0.364063)"/>
    <use xlink:href="#DejaVuSans-33" transform="translate(1229.901883 0.364063)"/>
    <use xlink:href="#DejaVuSans-2e" transform="translate(1293.52493 0.364063)"/>
    <use xlink:href="#DejaVuSans-30" transform="translate(1325.312039 0.364063)"/>
    <use xlink:href="#DejaVuSans-3b" transform="translate(1388.935086 0.364063)"/>
    <path d="M 0 19.160938 
L 0 25.410938 
L 358.747586 25.410938 
L 358.747586 19.160938 
L 0 19.160938 
z
"/>
    <path d="M 44.209012 4.160938 
L 44.209012 8.535938 
L 358.747586 8.535938 
L 358.747586 4.160938 
L 44.209012 4.160938 
z
"/>
   </g>
   <!--  3-4: 3.1 -->
   <g transform="translate(253.44 220.321) scale(0.08 -0.08)">
    <use xlink:href="#DejaVuSans-20"/>
    <use xlink:href="#DejaVuSans-33" x="31.787109"/>
    <use xlink:href="#DejaVuSans-2d" x="95.410156"/>
    <use xlink:href="#DejaVuSans-34" x="131.494141"/>
    <use xlink:href="#DejaVuSans-3a" x="195.117188"/>
    <use xlink:href="#DejaVuSans-20" x="228.808594"/>
    <use xlink:href="#DejaVuSans-33" x="260.595703"/>
    <use xlink:href="#DejaVuSans-2e" x="324.21875"/>
    <use xlink:href="#DejaVuSans-31" x="356.005859"/>
   </g>
  </g>
 </g>
 <defs>
  <clipPath id="p695a67c451">
   <rect x="59.69" y="12.96" width="388.15" height="282.76"/>
  </clipPath>
 </defs>
</svg>
