<?xml version="1.0" encoding="utf-8" standalone="no"?>
<!DOCTYPE svg PUBLIC "-//W3C//DTD SVG 1.1//EN"
  "http://www.w3.org/Graphics/SVG/1.1/DTD/svg11.dtd">
<svg xmlns:xlink="http://www.w3.org/1999/xlink" width="423.020625pt" height="322.656875pt" viewBox="0 0 423.020625 322.656875" xmlns="http://www.w3.org/2000/svg" version="1.1">
 <metadata>
  <rdf:RDF xmlns:dc="http://purl.org/dc/elements/1.1/" xmlns:cc="http://creativecommons.org/ns#" xmlns:rdf="http://www.w3.org/1999/02/22-rdf-syntax-ns#">
   <cc:Work>
    <dc:type rdf:resource="http://purl.org/dc/dcmitype/StillImage"/>
    <dc:date>2024-10-17T21:13:13.190223</dc:date>
    <dc:format>image/svg+xml</dc:format>
    <dc:creator>
     <cc:Agent>
      <dc:title>Matplotlib v3.7.1, https://matplotlib.org/</dc:title>
     </cc:Agent>
    </dc:creator>
   </cc:Work>
  </rdf:RDF>
 </metadata>
 <defs>
  <style type="text/css">*{stroke-linejoin: round; stroke-linecap: butt}</style>
 </defs>
 <g id="figure_1">
  <g id="patch_1">
   <path d="M 0 322.656875 
L 423.020625 322.656875 
L 423.020625 0 
L 0 0 
z
" style="fill: #ffffff"/>
  </g>
  <g id="axes_1">
   <g id="patch_2">
    <path d="M 28.480625 290.718437 
L 421.580625 290.718437 
L 421.580625 12.038437 
L 28.480625 12.038437 
z
" style="fill: #ffffff"/>
   </g>
   <g id="PolyCollection_1">
    <path d="M 27.02771 290.139209 
L 27.02771 285.125057 
L 49.544733 270.07021 
L 72.061756 255.014736 
L 94.578779 239.958451 
L 117.095802 224.901094 
L 139.612825 209.842275 
L 162.129848 194.781403 
L 184.646871 179.717526 
L 207.163894 164.649041 
L 229.680917 149.573066 
L 252.19794 134.484098 
L 274.714963 119.371176 
L 297.231986 104.213769 
L 319.749008 88.985406 
L 342.266031 73.679044 
L 364.783054 58.316783 
L 387.300077 42.923273 
L 409.8171 27.513058 
L 432.334123 12.093477 
L 454.851146 -3.331714 
L 454.851146 -0.728422 
L 454.851146 -0.728422 
L 432.334123 14.337144 
L 409.8171 29.408321 
L 387.300077 44.488864 
L 364.783054 59.586113 
L 342.266031 74.71461 
L 319.749008 89.899006 
L 297.231986 105.161401 
L 274.714963 120.494751 
L 252.19794 135.872588 
L 229.680917 151.274378 
L 207.163894 166.689161 
L 184.646871 182.111433 
L 162.129848 197.538315 
L 139.612825 212.968201 
L 117.095802 228.40014 
L 94.578779 243.83354 
L 72.061756 259.268014 
L 49.544733 274.703298 
L 27.02771 290.139209 
z
" clip-path="url(#pfb7c30a189)" style="fill: #ff0000; fill-opacity: 0.5; stroke: #ff0000; stroke-opacity: 0.5"/>
   </g>
   <g id="matplotlib.axis_1">
    <g id="xtick_1">
     <g id="line2d_1">
      <path d="M 66.5696 290.718437 
L 66.5696 12.038437 
" clip-path="url(#pfb7c30a189)" style="fill: none; stroke: #b0b0b0; stroke-width: 0.8; stroke-linecap: square"/>
     </g>
     <g id="line2d_2">
      <defs>
       <path id="m518fd8bd83" d="M 0 0 
L 0 3.5 
" style="stroke: #000000; stroke-width: 0.8"/>
      </defs>
      <g>
       <use xlink:href="#m518fd8bd83" x="66.5696" y="290.718437" style="stroke: #000000; stroke-width: 0.8"/>
      </g>
     </g>
     <g id="text_1">
      <!-- 28 -->
      <g transform="translate(60.2071 305.316875) scale(0.1 -0.1)">
       <defs>
        <path id="DejaVuSerif-32" d="M 819 3553 
L 469 3553 
L 469 4384 
Q 803 4563 1142 4656 
Q 1481 4750 1806 4750 
Q 2534 4750 2956 4397 
Q 3378 4044 3378 3438 
Q 3378 2753 2422 1800 
Q 2347 1728 2309 1691 
L 1131 513 
L 3078 513 
L 3078 1088 
L 3444 1088 
L 3444 0 
L 434 0 
L 434 341 
L 1850 1753 
Q 2319 2222 2519 2614 
Q 2719 3006 2719 3438 
Q 2719 3909 2473 4175 
Q 2228 4441 1797 4441 
Q 1350 4441 1106 4219 
Q 863 3997 819 3553 
z
" transform="scale(0.015625)"/>
        <path id="DejaVuSerif-38" d="M 2981 1275 
Q 2981 1775 2732 2051 
Q 2484 2328 2034 2328 
Q 1584 2328 1336 2051 
Q 1088 1775 1088 1275 
Q 1088 772 1336 495 
Q 1584 219 2034 219 
Q 2484 219 2732 495 
Q 2981 772 2981 1275 
z
M 2853 3541 
Q 2853 3966 2637 4203 
Q 2422 4441 2034 4441 
Q 1650 4441 1433 4203 
Q 1216 3966 1216 3541 
Q 1216 3113 1433 2875 
Q 1650 2638 2034 2638 
Q 2422 2638 2637 2875 
Q 2853 3113 2853 3541 
z
M 2516 2484 
Q 3047 2413 3344 2092 
Q 3641 1772 3641 1275 
Q 3641 619 3225 264 
Q 2809 -91 2034 -91 
Q 1263 -91 845 264 
Q 428 619 428 1275 
Q 428 1772 725 2092 
Q 1022 2413 1556 2484 
Q 1084 2569 832 2842 
Q 581 3116 581 3541 
Q 581 4103 968 4426 
Q 1356 4750 2034 4750 
Q 2713 4750 3100 4426 
Q 3488 4103 3488 3541 
Q 3488 3116 3236 2842 
Q 2984 2569 2516 2484 
z
" transform="scale(0.015625)"/>
       </defs>
       <use xlink:href="#DejaVuSerif-32"/>
       <use xlink:href="#DejaVuSerif-38" x="63.623047"/>
      </g>
     </g>
    </g>
    <g id="xtick_2">
     <g id="line2d_3">
      <path d="M 152.854388 290.718437 
L 152.854388 12.038437 
" clip-path="url(#pfb7c30a189)" style="fill: none; stroke: #b0b0b0; stroke-width: 0.8; stroke-linecap: square"/>
     </g>
     <g id="line2d_4">
      <g>
       <use xlink:href="#m518fd8bd83" x="152.854388" y="290.718437" style="stroke: #000000; stroke-width: 0.8"/>
      </g>
     </g>
     <g id="text_2">
      <!-- 30 -->
      <g transform="translate(146.491888 305.316875) scale(0.1 -0.1)">
       <defs>
        <path id="DejaVuSerif-33" d="M 622 4469 
Q 988 4606 1323 4678 
Q 1659 4750 1953 4750 
Q 2638 4750 3022 4454 
Q 3406 4159 3406 3634 
Q 3406 3213 3140 2930 
Q 2875 2647 2388 2547 
Q 2963 2466 3280 2130 
Q 3597 1794 3597 1259 
Q 3597 606 3158 257 
Q 2719 -91 1894 -91 
Q 1528 -91 1179 -12 
Q 831 66 488 225 
L 488 1131 
L 838 1131 
Q 869 681 1141 450 
Q 1413 219 1906 219 
Q 2384 219 2661 495 
Q 2938 772 2938 1253 
Q 2938 1803 2653 2086 
Q 2369 2369 1819 2369 
L 1522 2369 
L 1522 2688 
L 1678 2688 
Q 2225 2688 2498 2914 
Q 2772 3141 2772 3597 
Q 2772 4006 2547 4223 
Q 2322 4441 1900 4441 
Q 1478 4441 1245 4241 
Q 1013 4041 972 3647 
L 622 3647 
L 622 4469 
z
" transform="scale(0.015625)"/>
        <path id="DejaVuSerif-30" d="M 2034 219 
Q 2513 219 2750 744 
Q 2988 1269 2988 2328 
Q 2988 3391 2750 3916 
Q 2513 4441 2034 4441 
Q 1556 4441 1318 3916 
Q 1081 3391 1081 2328 
Q 1081 1269 1318 744 
Q 1556 219 2034 219 
z
M 2034 -91 
Q 1275 -91 848 546 
Q 422 1184 422 2328 
Q 422 3475 848 4112 
Q 1275 4750 2034 4750 
Q 2797 4750 3222 4112 
Q 3647 3475 3647 2328 
Q 3647 1184 3222 546 
Q 2797 -91 2034 -91 
z
" transform="scale(0.015625)"/>
       </defs>
       <use xlink:href="#DejaVuSerif-33"/>
       <use xlink:href="#DejaVuSerif-30" x="63.623047"/>
      </g>
     </g>
    </g>
    <g id="xtick_3">
     <g id="line2d_5">
      <path d="M 239.139176 290.718437 
L 239.139176 12.038437 
" clip-path="url(#pfb7c30a189)" style="fill: none; stroke: #b0b0b0; stroke-width: 0.8; stroke-linecap: square"/>
     </g>
     <g id="line2d_6">
      <g>
       <use xlink:href="#m518fd8bd83" x="239.139176" y="290.718437" style="stroke: #000000; stroke-width: 0.8"/>
      </g>
     </g>
     <g id="text_3">
      <!-- 32 -->
      <g transform="translate(232.776676 305.316875) scale(0.1 -0.1)">
       <use xlink:href="#DejaVuSerif-33"/>
       <use xlink:href="#DejaVuSerif-32" x="63.623047"/>
      </g>
     </g>
    </g>
    <g id="xtick_4">
     <g id="line2d_7">
      <path d="M 325.423964 290.718437 
L 325.423964 12.038437 
" clip-path="url(#pfb7c30a189)" style="fill: none; stroke: #b0b0b0; stroke-width: 0.8; stroke-linecap: square"/>
     </g>
     <g id="line2d_8">
      <g>
       <use xlink:href="#m518fd8bd83" x="325.423964" y="290.718437" style="stroke: #000000; stroke-width: 0.8"/>
      </g>
     </g>
     <g id="text_4">
      <!-- 34 -->
      <g transform="translate(319.061464 305.316875) scale(0.1 -0.1)">
       <defs>
        <path id="DejaVuSerif-34" d="M 2234 1581 
L 2234 4063 
L 641 1581 
L 2234 1581 
z
M 3609 0 
L 1484 0 
L 1484 331 
L 2234 331 
L 2234 1247 
L 197 1247 
L 197 1588 
L 2241 4750 
L 2859 4750 
L 2859 1581 
L 3750 1581 
L 3750 1247 
L 2859 1247 
L 2859 331 
L 3609 331 
L 3609 0 
z
" transform="scale(0.015625)"/>
       </defs>
       <use xlink:href="#DejaVuSerif-33"/>
       <use xlink:href="#DejaVuSerif-34" x="63.623047"/>
      </g>
     </g>
    </g>
    <g id="xtick_5">
     <g id="line2d_9">
      <path d="M 411.708752 290.718437 
L 411.708752 12.038437 
" clip-path="url(#pfb7c30a189)" style="fill: none; stroke: #b0b0b0; stroke-width: 0.8; stroke-linecap: square"/>
     </g>
     <g id="line2d_10">
      <g>
       <use xlink:href="#m518fd8bd83" x="411.708752" y="290.718437" style="stroke: #000000; stroke-width: 0.8"/>
      </g>
     </g>
     <g id="text_5">
      <!-- 36 -->
      <g transform="translate(405.346252 305.316875) scale(0.1 -0.1)">
       <defs>
        <path id="DejaVuSerif-36" d="M 2094 219 
Q 2534 219 2771 542 
Q 3009 866 3009 1472 
Q 3009 2078 2771 2401 
Q 2534 2725 2094 2725 
Q 1647 2725 1412 2412 
Q 1178 2100 1178 1509 
Q 1178 888 1415 553 
Q 1653 219 2094 219 
z
M 1075 2569 
Q 1288 2803 1556 2918 
Q 1825 3034 2163 3034 
Q 2859 3034 3264 2615 
Q 3669 2197 3669 1472 
Q 3669 763 3233 336 
Q 2797 -91 2069 -91 
Q 1278 -91 853 498 
Q 428 1088 428 2181 
Q 428 3406 931 4078 
Q 1434 4750 2350 4750 
Q 2597 4750 2869 4703 
Q 3141 4656 3425 4563 
L 3425 3794 
L 3072 3794 
Q 3034 4109 2831 4275 
Q 2628 4441 2284 4441 
Q 1678 4441 1381 3981 
Q 1084 3522 1075 2569 
z
" transform="scale(0.015625)"/>
       </defs>
       <use xlink:href="#DejaVuSerif-33"/>
       <use xlink:href="#DejaVuSerif-36" x="63.623047"/>
      </g>
     </g>
    </g>
    <g id="text_6">
     <!-- Bias Voltage [V] -->
     <g transform="translate(184.604844 318.995) scale(0.1 -0.1)">
      <defs>
       <path id="DejaVuSerif-42" d="M 1581 331 
L 2516 331 
Q 3078 331 3337 575 
Q 3597 819 3597 1350 
Q 3597 1878 3339 2120 
Q 3081 2363 2516 2363 
L 1581 2363 
L 1581 331 
z
M 1581 2694 
L 2375 2694 
Q 2888 2694 3123 2891 
Q 3359 3088 3359 3513 
Q 3359 3941 3123 4136 
Q 2888 4331 2375 4331 
L 1581 4331 
L 1581 2694 
z
M 353 0 
L 353 331 
L 947 331 
L 947 4331 
L 353 4331 
L 353 4666 
L 2656 4666 
Q 3363 4666 3720 4377 
Q 4078 4088 4078 3513 
Q 4078 3097 3829 2850 
Q 3581 2603 3103 2547 
Q 3697 2472 4005 2167 
Q 4313 1863 4313 1350 
Q 4313 656 3875 328 
Q 3438 0 2509 0 
L 353 0 
z
" transform="scale(0.015625)"/>
       <path id="DejaVuSerif-69" d="M 622 4353 
Q 622 4497 726 4603 
Q 831 4709 978 4709 
Q 1122 4709 1226 4603 
Q 1331 4497 1331 4353 
Q 1331 4206 1228 4103 
Q 1125 4000 978 4000 
Q 831 4000 726 4103 
Q 622 4206 622 4353 
z
M 1356 331 
L 1900 331 
L 1900 0 
L 231 0 
L 231 331 
L 781 331 
L 781 2988 
L 231 2988 
L 231 3322 
L 1356 3322 
L 1356 331 
z
" transform="scale(0.015625)"/>
       <path id="DejaVuSerif-61" d="M 2547 1044 
L 2547 1747 
L 1806 1747 
Q 1378 1747 1168 1562 
Q 959 1378 959 997 
Q 959 650 1171 447 
Q 1384 244 1747 244 
Q 2106 244 2326 466 
Q 2547 688 2547 1044 
z
M 3122 2075 
L 3122 331 
L 3634 331 
L 3634 0 
L 2547 0 
L 2547 359 
Q 2356 128 2106 18 
Q 1856 -91 1522 -91 
Q 969 -91 644 203 
Q 319 497 319 997 
Q 319 1513 691 1797 
Q 1063 2081 1741 2081 
L 2547 2081 
L 2547 2309 
Q 2547 2688 2317 2895 
Q 2088 3103 1672 3103 
Q 1328 3103 1125 2947 
Q 922 2791 872 2484 
L 575 2484 
L 575 3156 
Q 875 3284 1158 3348 
Q 1441 3413 1709 3413 
Q 2400 3413 2761 3070 
Q 3122 2728 3122 2075 
z
" transform="scale(0.015625)"/>
       <path id="DejaVuSerif-73" d="M 359 184 
L 359 959 
L 691 959 
Q 703 588 923 403 
Q 1144 219 1575 219 
Q 1963 219 2166 364 
Q 2369 509 2369 788 
Q 2369 1006 2220 1140 
Q 2072 1275 1594 1428 
L 1178 1569 
Q 750 1706 558 1912 
Q 366 2119 366 2438 
Q 366 2894 700 3153 
Q 1034 3413 1625 3413 
Q 1888 3413 2178 3344 
Q 2469 3275 2778 3144 
L 2778 2419 
L 2447 2419 
Q 2434 2741 2221 2922 
Q 2009 3103 1644 3103 
Q 1281 3103 1095 2975 
Q 909 2847 909 2591 
Q 909 2381 1050 2254 
Q 1191 2128 1613 1997 
L 2069 1856 
Q 2541 1709 2748 1489 
Q 2956 1269 2956 922 
Q 2956 450 2595 179 
Q 2234 -91 1600 -91 
Q 1278 -91 972 -22 
Q 666 47 359 184 
z
" transform="scale(0.015625)"/>
       <path id="DejaVuSerif-20" transform="scale(0.015625)"/>
       <path id="DejaVuSerif-56" d="M 1119 4331 
L 2497 750 
L 3872 4331 
L 3347 4331 
L 3347 4666 
L 4716 4666 
L 4716 4331 
L 4263 4331 
L 2597 0 
L 2059 0 
L 403 4331 
L -63 4331 
L -63 4666 
L 1638 4666 
L 1638 4331 
L 1119 4331 
z
" transform="scale(0.015625)"/>
       <path id="DejaVuSerif-6f" d="M 1925 219 
Q 2388 219 2623 584 
Q 2859 950 2859 1663 
Q 2859 2375 2623 2739 
Q 2388 3103 1925 3103 
Q 1463 3103 1227 2739 
Q 991 2375 991 1663 
Q 991 950 1228 584 
Q 1466 219 1925 219 
z
M 1925 -91 
Q 1200 -91 759 389 
Q 319 869 319 1663 
Q 319 2456 758 2934 
Q 1197 3413 1925 3413 
Q 2653 3413 3092 2934 
Q 3531 2456 3531 1663 
Q 3531 869 3092 389 
Q 2653 -91 1925 -91 
z
" transform="scale(0.015625)"/>
       <path id="DejaVuSerif-6c" d="M 1313 331 
L 1856 331 
L 1856 0 
L 184 0 
L 184 331 
L 738 331 
L 738 4531 
L 184 4531 
L 184 4863 
L 1313 4863 
L 1313 331 
z
" transform="scale(0.015625)"/>
       <path id="DejaVuSerif-74" d="M 691 2988 
L 184 2988 
L 184 3322 
L 691 3322 
L 691 4353 
L 1269 4353 
L 1269 3322 
L 2350 3322 
L 2350 2988 
L 1269 2988 
L 1269 878 
Q 1269 456 1350 337 
Q 1431 219 1650 219 
Q 1875 219 1978 351 
Q 2081 484 2088 781 
L 2522 781 
Q 2497 328 2275 118 
Q 2053 -91 1600 -91 
Q 1103 -91 897 129 
Q 691 350 691 878 
L 691 2988 
z
" transform="scale(0.015625)"/>
       <path id="DejaVuSerif-67" d="M 3359 2988 
L 3359 72 
Q 3359 -644 2965 -1033 
Q 2572 -1422 1844 -1422 
Q 1516 -1422 1216 -1362 
Q 916 -1303 641 -1184 
L 641 -488 
L 941 -488 
Q 997 -813 1206 -963 
Q 1416 -1113 1806 -1113 
Q 2313 -1113 2548 -827 
Q 2784 -541 2784 72 
L 2784 519 
Q 2616 206 2355 57 
Q 2094 -91 1709 -91 
Q 1097 -91 708 395 
Q 319 881 319 1663 
Q 319 2444 706 2928 
Q 1094 3413 1709 3413 
Q 2094 3413 2355 3264 
Q 2616 3116 2784 2803 
L 2784 3322 
L 3909 3322 
L 3909 2988 
L 3359 2988 
z
M 2784 1825 
Q 2784 2422 2554 2737 
Q 2325 3053 1888 3053 
Q 1444 3053 1217 2703 
Q 991 2353 991 1663 
Q 991 975 1217 622 
Q 1444 269 1888 269 
Q 2325 269 2554 583 
Q 2784 897 2784 1497 
L 2784 1825 
z
" transform="scale(0.015625)"/>
       <path id="DejaVuSerif-65" d="M 3469 1600 
L 991 1600 
L 991 1575 
Q 991 903 1244 561 
Q 1497 219 1991 219 
Q 2369 219 2611 417 
Q 2853 616 2950 1006 
L 3413 1006 
Q 3275 459 2904 184 
Q 2534 -91 1931 -91 
Q 1203 -91 761 389 
Q 319 869 319 1663 
Q 319 2450 753 2931 
Q 1188 3413 1894 3413 
Q 2647 3413 3050 2948 
Q 3453 2484 3469 1600 
z
M 2791 1931 
Q 2772 2513 2545 2808 
Q 2319 3103 1894 3103 
Q 1497 3103 1269 2806 
Q 1041 2509 991 1931 
L 2791 1931 
z
" transform="scale(0.015625)"/>
       <path id="DejaVuSerif-5b" d="M 550 4863 
L 2003 4863 
L 2003 4531 
L 1147 4531 
L 1147 -513 
L 2003 -513 
L 2003 -844 
L 550 -844 
L 550 4863 
z
" transform="scale(0.015625)"/>
       <path id="DejaVuSerif-5d" d="M 1947 4863 
L 1947 -844 
L 494 -844 
L 494 -513 
L 1350 -513 
L 1350 4531 
L 494 4531 
L 494 4863 
L 1947 4863 
z
" transform="scale(0.015625)"/>
      </defs>
      <use xlink:href="#DejaVuSerif-42"/>
      <use xlink:href="#DejaVuSerif-69" x="73.486328"/>
      <use xlink:href="#DejaVuSerif-61" x="105.46875"/>
      <use xlink:href="#DejaVuSerif-73" x="165.087891"/>
      <use xlink:href="#DejaVuSerif-20" x="216.40625"/>
      <use xlink:href="#DejaVuSerif-56" x="248.193359"/>
      <use xlink:href="#DejaVuSerif-6f" x="311.285156"/>
      <use xlink:href="#DejaVuSerif-6c" x="371.490234"/>
      <use xlink:href="#DejaVuSerif-74" x="403.472656"/>
      <use xlink:href="#DejaVuSerif-61" x="443.658203"/>
      <use xlink:href="#DejaVuSerif-67" x="503.277344"/>
      <use xlink:href="#DejaVuSerif-65" x="567.291016"/>
      <use xlink:href="#DejaVuSerif-20" x="626.470703"/>
      <use xlink:href="#DejaVuSerif-5b" x="658.257812"/>
      <use xlink:href="#DejaVuSerif-56" x="697.271484"/>
      <use xlink:href="#DejaVuSerif-5d" x="769.488281"/>
     </g>
    </g>
   </g>
   <g id="matplotlib.axis_2">
    <g id="ytick_1">
     <g id="line2d_11">
      <path d="M 28.480625 285.737335 
L 421.580625 285.737335 
" clip-path="url(#pfb7c30a189)" style="fill: none; stroke: #b0b0b0; stroke-width: 0.8; stroke-linecap: square"/>
     </g>
     <g id="line2d_12">
      <defs>
       <path id="m62d3024488" d="M 0 0 
L -3.5 0 
" style="stroke: #000000; stroke-width: 0.8"/>
      </defs>
      <g>
       <use xlink:href="#m62d3024488" x="28.480625" y="285.737335" style="stroke: #000000; stroke-width: 0.8"/>
      </g>
     </g>
     <g id="text_7">
      <!-- 0 -->
      <g transform="translate(15.118125 289.536554) scale(0.1 -0.1)">
       <use xlink:href="#DejaVuSerif-30"/>
      </g>
     </g>
    </g>
    <g id="ytick_2">
     <g id="line2d_13">
      <path d="M 28.480625 235.423044 
L 421.580625 235.423044 
" clip-path="url(#pfb7c30a189)" style="fill: none; stroke: #b0b0b0; stroke-width: 0.8; stroke-linecap: square"/>
     </g>
     <g id="line2d_14">
      <g>
       <use xlink:href="#m62d3024488" x="28.480625" y="235.423044" style="stroke: #000000; stroke-width: 0.8"/>
      </g>
     </g>
     <g id="text_8">
      <!-- 1 -->
      <g transform="translate(15.118125 239.222263) scale(0.1 -0.1)">
       <defs>
        <path id="DejaVuSerif-31" d="M 909 0 
L 909 331 
L 1722 331 
L 1722 4213 
L 781 3603 
L 781 4013 
L 1919 4750 
L 2350 4750 
L 2350 331 
L 3163 331 
L 3163 0 
L 909 0 
z
" transform="scale(0.015625)"/>
       </defs>
       <use xlink:href="#DejaVuSerif-31"/>
      </g>
     </g>
    </g>
    <g id="ytick_3">
     <g id="line2d_15">
      <path d="M 28.480625 185.108754 
L 421.580625 185.108754 
" clip-path="url(#pfb7c30a189)" style="fill: none; stroke: #b0b0b0; stroke-width: 0.8; stroke-linecap: square"/>
     </g>
     <g id="line2d_16">
      <g>
       <use xlink:href="#m62d3024488" x="28.480625" y="185.108754" style="stroke: #000000; stroke-width: 0.8"/>
      </g>
     </g>
     <g id="text_9">
      <!-- 2 -->
      <g transform="translate(15.118125 188.907972) scale(0.1 -0.1)">
       <use xlink:href="#DejaVuSerif-32"/>
      </g>
     </g>
    </g>
    <g id="ytick_4">
     <g id="line2d_17">
      <path d="M 28.480625 134.794463 
L 421.580625 134.794463 
" clip-path="url(#pfb7c30a189)" style="fill: none; stroke: #b0b0b0; stroke-width: 0.8; stroke-linecap: square"/>
     </g>
     <g id="line2d_18">
      <g>
       <use xlink:href="#m62d3024488" x="28.480625" y="134.794463" style="stroke: #000000; stroke-width: 0.8"/>
      </g>
     </g>
     <g id="text_10">
      <!-- 3 -->
      <g transform="translate(15.118125 138.593681) scale(0.1 -0.1)">
       <use xlink:href="#DejaVuSerif-33"/>
      </g>
     </g>
    </g>
    <g id="ytick_5">
     <g id="line2d_19">
      <path d="M 28.480625 84.480172 
L 421.580625 84.480172 
" clip-path="url(#pfb7c30a189)" style="fill: none; stroke: #b0b0b0; stroke-width: 0.8; stroke-linecap: square"/>
     </g>
     <g id="line2d_20">
      <g>
       <use xlink:href="#m62d3024488" x="28.480625" y="84.480172" style="stroke: #000000; stroke-width: 0.8"/>
      </g>
     </g>
     <g id="text_11">
      <!-- 4 -->
      <g transform="translate(15.118125 88.279391) scale(0.1 -0.1)">
       <use xlink:href="#DejaVuSerif-34"/>
      </g>
     </g>
    </g>
    <g id="ytick_6">
     <g id="line2d_21">
      <path d="M 28.480625 34.165881 
L 421.580625 34.165881 
" clip-path="url(#pfb7c30a189)" style="fill: none; stroke: #b0b0b0; stroke-width: 0.8; stroke-linecap: square"/>
     </g>
     <g id="line2d_22">
      <g>
       <use xlink:href="#m62d3024488" x="28.480625" y="34.165881" style="stroke: #000000; stroke-width: 0.8"/>
      </g>
     </g>
     <g id="text_12">
      <!-- 5 -->
      <g transform="translate(15.118125 37.9651) scale(0.1 -0.1)">
       <defs>
        <path id="DejaVuSerif-35" d="M 3219 4666 
L 3219 4153 
L 1081 4153 
L 1081 2816 
Q 1244 2928 1461 2984 
Q 1678 3041 1947 3041 
Q 2703 3041 3140 2622 
Q 3578 2203 3578 1478 
Q 3578 738 3136 323 
Q 2694 -91 1894 -91 
Q 1572 -91 1234 -12 
Q 897 66 544 225 
L 544 1131 
L 897 1131 
Q 925 688 1179 453 
Q 1434 219 1894 219 
Q 2388 219 2653 544 
Q 2919 869 2919 1478 
Q 2919 2084 2655 2407 
Q 2391 2731 1894 2731 
Q 1613 2731 1398 2631 
Q 1184 2531 1019 2322 
L 750 2322 
L 750 4666 
L 3219 4666 
z
" transform="scale(0.015625)"/>
       </defs>
       <use xlink:href="#DejaVuSerif-35"/>
      </g>
     </g>
    </g>
    <g id="text_13">
     <!-- Absolute Gain -->
     <g transform="translate(9.038437 186.938594) rotate(-90) scale(0.1 -0.1)">
      <defs>
       <path id="DejaVuSerif-41" d="M 1281 1691 
L 2994 1691 
L 2138 3909 
L 1281 1691 
z
M -38 0 
L -38 331 
L 372 331 
L 2034 4666 
L 2559 4666 
L 4225 331 
L 4684 331 
L 4684 0 
L 2988 0 
L 2988 331 
L 3506 331 
L 3116 1356 
L 1153 1356 
L 763 331 
L 1275 331 
L 1275 0 
L -38 0 
z
" transform="scale(0.015625)"/>
       <path id="DejaVuSerif-62" d="M 738 331 
L 738 4531 
L 184 4531 
L 184 4863 
L 1313 4863 
L 1313 2803 
Q 1481 3116 1742 3264 
Q 2003 3413 2388 3413 
Q 3000 3413 3387 2928 
Q 3775 2444 3775 1663 
Q 3775 881 3387 395 
Q 3000 -91 2388 -91 
Q 2003 -91 1742 57 
Q 1481 206 1313 519 
L 1313 0 
L 184 0 
L 184 331 
L 738 331 
z
M 1313 1497 
Q 1313 897 1542 583 
Q 1772 269 2209 269 
Q 2650 269 2876 622 
Q 3103 975 3103 1663 
Q 3103 2353 2876 2703 
Q 2650 3053 2209 3053 
Q 1772 3053 1542 2737 
Q 1313 2422 1313 1825 
L 1313 1497 
z
" transform="scale(0.015625)"/>
       <path id="DejaVuSerif-75" d="M 2266 3322 
L 3341 3322 
L 3341 331 
L 3884 331 
L 3884 0 
L 2766 0 
L 2766 588 
Q 2606 256 2353 82 
Q 2100 -91 1766 -91 
Q 1213 -91 952 223 
Q 691 538 691 1209 
L 691 2988 
L 172 2988 
L 172 3322 
L 1269 3322 
L 1269 1388 
Q 1269 781 1417 556 
Q 1566 331 1947 331 
Q 2347 331 2556 625 
Q 2766 919 2766 1478 
L 2766 2988 
L 2266 2988 
L 2266 3322 
z
" transform="scale(0.015625)"/>
       <path id="DejaVuSerif-47" d="M 4097 3272 
Q 3988 3856 3641 4136 
Q 3294 4416 2675 4416 
Q 1869 4416 1472 3897 
Q 1075 3378 1075 2328 
Q 1075 1300 1484 772 
Q 1894 244 2688 244 
Q 3041 244 3362 331 
Q 3684 419 3975 594 
L 3975 1797 
L 3097 1797 
L 3097 2131 
L 4609 2131 
L 4609 391 
Q 4194 150 3714 29 
Q 3234 -91 2688 -91 
Q 1631 -91 995 570 
Q 359 1231 359 2328 
Q 359 3434 996 4092 
Q 1634 4750 2713 4750 
Q 3113 4750 3539 4658 
Q 3966 4566 4447 4378 
L 4447 3272 
L 4097 3272 
z
" transform="scale(0.015625)"/>
       <path id="DejaVuSerif-6e" d="M 263 0 
L 263 331 
L 781 331 
L 781 2988 
L 231 2988 
L 231 3322 
L 1356 3322 
L 1356 2731 
Q 1516 3069 1770 3241 
Q 2025 3413 2363 3413 
Q 2913 3413 3172 3097 
Q 3431 2781 3431 2113 
L 3431 331 
L 3944 331 
L 3944 0 
L 2356 0 
L 2356 331 
L 2853 331 
L 2853 1931 
Q 2853 2541 2703 2767 
Q 2553 2994 2175 2994 
Q 1775 2994 1565 2701 
Q 1356 2409 1356 1850 
L 1356 331 
L 1856 331 
L 1856 0 
L 263 0 
z
" transform="scale(0.015625)"/>
      </defs>
      <use xlink:href="#DejaVuSerif-41"/>
      <use xlink:href="#DejaVuSerif-62" x="72.216797"/>
      <use xlink:href="#DejaVuSerif-73" x="136.230469"/>
      <use xlink:href="#DejaVuSerif-6f" x="187.548828"/>
      <use xlink:href="#DejaVuSerif-6c" x="247.753906"/>
      <use xlink:href="#DejaVuSerif-75" x="279.736328"/>
      <use xlink:href="#DejaVuSerif-74" x="344.140625"/>
      <use xlink:href="#DejaVuSerif-65" x="384.326172"/>
      <use xlink:href="#DejaVuSerif-20" x="443.505859"/>
      <use xlink:href="#DejaVuSerif-47" x="475.292969"/>
      <use xlink:href="#DejaVuSerif-61" x="555.175781"/>
      <use xlink:href="#DejaVuSerif-69" x="614.794922"/>
      <use xlink:href="#DejaVuSerif-6e" x="646.777344"/>
     </g>
    </g>
    <g id="text_14">
     <!-- 1e6 -->
     <g transform="translate(28.480625 9.038437) scale(0.1 -0.1)">
      <use xlink:href="#DejaVuSerif-31"/>
      <use xlink:href="#DejaVuSerif-65" x="63.623047"/>
      <use xlink:href="#DejaVuSerif-36" x="122.802734"/>
     </g>
    </g>
   </g>
   <g id="line2d_23">
    <path d="M 27.02771 287.632133 
L 49.544733 272.386754 
L 72.061756 257.141375 
L 94.578779 241.895996 
L 117.095802 226.650617 
L 139.612825 211.405238 
L 162.129848 196.159859 
L 184.646871 180.91448 
L 207.163894 165.669101 
L 229.680917 150.423722 
L 252.19794 135.178343 
L 274.714963 119.932964 
L 297.231986 104.687585 
L 319.749008 89.442206 
L 342.266031 74.196827 
L 364.783054 58.951448 
L 387.300077 43.706069 
L 409.8171 28.46069 
L 424.020625 18.844049 
" clip-path="url(#pfb7c30a189)" style="fill: none; stroke: #ff0000; stroke-width: 1.5; stroke-linecap: square"/>
   </g>
   <g id="LineCollection_1">
    <path d="M 364.144263 55.754639 
L 372.988454 55.754639 
" clip-path="url(#pfb7c30a189)" style="fill: none; stroke: #1f78b4; stroke-width: 1.5"/>
    <path d="M 235.040649 145.920395 
L 243.237703 145.920395 
" clip-path="url(#pfb7c30a189)" style="fill: none; stroke: #1f78b4; stroke-width: 1.5"/>
    <path d="M 342.626994 69.48288 
L 351.363329 69.48288 
" clip-path="url(#pfb7c30a189)" style="fill: none; stroke: #1f78b4; stroke-width: 1.5"/>
    <path d="M 407.178801 28.800047 
L 416.238704 28.800047 
" clip-path="url(#pfb7c30a189)" style="fill: none; stroke: #1f78b4; stroke-width: 1.5"/>
    <path d="M 278.075187 113.45817 
L 286.487953 113.45817 
" clip-path="url(#pfb7c30a189)" style="fill: none; stroke: #1f78b4; stroke-width: 1.5"/>
    <path d="M 299.592456 100.531416 
L 308.113078 100.531416 
" clip-path="url(#pfb7c30a189)" style="fill: none; stroke: #1f78b4; stroke-width: 1.5"/>
    <path d="M 385.661532 42.875826 
L 394.613579 42.875826 
" clip-path="url(#pfb7c30a189)" style="fill: none; stroke: #1f78b4; stroke-width: 1.5"/>
    <path d="M 321.109725 85.380133 
L 329.738203 85.380133 
" clip-path="url(#pfb7c30a189)" style="fill: none; stroke: #1f78b4; stroke-width: 1.5"/>
    <path d="M 256.557918 129.139852 
L 264.862828 129.139852 
" clip-path="url(#pfb7c30a189)" style="fill: none; stroke: #1f78b4; stroke-width: 1.5"/>
   </g>
   <g id="LineCollection_2">
    <path d="M 368.566358 57.830574 
L 368.566358 53.678704 
" clip-path="url(#pfb7c30a189)" style="fill: none; stroke: #1f78b4; stroke-width: 1.5"/>
    <path d="M 239.139176 147.710944 
L 239.139176 144.129846 
" clip-path="url(#pfb7c30a189)" style="fill: none; stroke: #1f78b4; stroke-width: 1.5"/>
    <path d="M 346.995161 71.367829 
L 346.995161 67.59793 
" clip-path="url(#pfb7c30a189)" style="fill: none; stroke: #1f78b4; stroke-width: 1.5"/>
    <path d="M 411.708752 31.152295 
L 411.708752 26.4478 
" clip-path="url(#pfb7c30a189)" style="fill: none; stroke: #1f78b4; stroke-width: 1.5"/>
    <path d="M 282.28157 115.141108 
L 282.28157 111.775231 
" clip-path="url(#pfb7c30a189)" style="fill: none; stroke: #1f78b4; stroke-width: 1.5"/>
    <path d="M 303.852767 102.21031 
L 303.852767 98.852522 
" clip-path="url(#pfb7c30a189)" style="fill: none; stroke: #1f78b4; stroke-width: 1.5"/>
    <path d="M 390.137555 45.015148 
L 390.137555 40.736504 
" clip-path="url(#pfb7c30a189)" style="fill: none; stroke: #1f78b4; stroke-width: 1.5"/>
    <path d="M 325.423964 87.18637 
L 325.423964 83.573895 
" clip-path="url(#pfb7c30a189)" style="fill: none; stroke: #1f78b4; stroke-width: 1.5"/>
    <path d="M 260.710373 130.640356 
L 260.710373 127.639347 
" clip-path="url(#pfb7c30a189)" style="fill: none; stroke: #1f78b4; stroke-width: 1.5"/>
   </g>
   <g id="line2d_24">
    <defs>
     <path id="m1154c9eb81" d="M 0 2 
L 0 -2 
" style="stroke: #1f78b4"/>
    </defs>
    <g clip-path="url(#pfb7c30a189)">
     <use xlink:href="#m1154c9eb81" x="364.144263" y="55.754639" style="fill: #1f78b4; stroke: #1f78b4"/>
     <use xlink:href="#m1154c9eb81" x="235.040649" y="145.920395" style="fill: #1f78b4; stroke: #1f78b4"/>
     <use xlink:href="#m1154c9eb81" x="342.626994" y="69.48288" style="fill: #1f78b4; stroke: #1f78b4"/>
     <use xlink:href="#m1154c9eb81" x="407.178801" y="28.800047" style="fill: #1f78b4; stroke: #1f78b4"/>
     <use xlink:href="#m1154c9eb81" x="278.075187" y="113.45817" style="fill: #1f78b4; stroke: #1f78b4"/>
     <use xlink:href="#m1154c9eb81" x="299.592456" y="100.531416" style="fill: #1f78b4; stroke: #1f78b4"/>
     <use xlink:href="#m1154c9eb81" x="385.661532" y="42.875826" style="fill: #1f78b4; stroke: #1f78b4"/>
     <use xlink:href="#m1154c9eb81" x="321.109725" y="85.380133" style="fill: #1f78b4; stroke: #1f78b4"/>
     <use xlink:href="#m1154c9eb81" x="256.557918" y="129.139852" style="fill: #1f78b4; stroke: #1f78b4"/>
    </g>
   </g>
   <g id="line2d_25">
    <g clip-path="url(#pfb7c30a189)">
     <use xlink:href="#m1154c9eb81" x="372.988454" y="55.754639" style="fill: #1f78b4; stroke: #1f78b4"/>
     <use xlink:href="#m1154c9eb81" x="243.237703" y="145.920395" style="fill: #1f78b4; stroke: #1f78b4"/>
     <use xlink:href="#m1154c9eb81" x="351.363329" y="69.48288" style="fill: #1f78b4; stroke: #1f78b4"/>
     <use xlink:href="#m1154c9eb81" x="416.238704" y="28.800047" style="fill: #1f78b4; stroke: #1f78b4"/>
     <use xlink:href="#m1154c9eb81" x="286.487953" y="113.45817" style="fill: #1f78b4; stroke: #1f78b4"/>
     <use xlink:href="#m1154c9eb81" x="308.113078" y="100.531416" style="fill: #1f78b4; stroke: #1f78b4"/>
     <use xlink:href="#m1154c9eb81" x="394.613579" y="42.875826" style="fill: #1f78b4; stroke: #1f78b4"/>
     <use xlink:href="#m1154c9eb81" x="329.738203" y="85.380133" style="fill: #1f78b4; stroke: #1f78b4"/>
     <use xlink:href="#m1154c9eb81" x="264.862828" y="129.139852" style="fill: #1f78b4; stroke: #1f78b4"/>
    </g>
   </g>
   <g id="line2d_26">
    <defs>
     <path id="m4d49091cc9" d="M 2 0 
L -2 -0 
" style="stroke: #1f78b4"/>
    </defs>
    <g clip-path="url(#pfb7c30a189)">
     <use xlink:href="#m4d49091cc9" x="368.566358" y="57.830574" style="fill: #1f78b4; stroke: #1f78b4"/>
     <use xlink:href="#m4d49091cc9" x="239.139176" y="147.710944" style="fill: #1f78b4; stroke: #1f78b4"/>
     <use xlink:href="#m4d49091cc9" x="346.995161" y="71.367829" style="fill: #1f78b4; stroke: #1f78b4"/>
     <use xlink:href="#m4d49091cc9" x="411.708752" y="31.152295" style="fill: #1f78b4; stroke: #1f78b4"/>
     <use xlink:href="#m4d49091cc9" x="282.28157" y="115.141108" style="fill: #1f78b4; stroke: #1f78b4"/>
     <use xlink:href="#m4d49091cc9" x="303.852767" y="102.21031" style="fill: #1f78b4; stroke: #1f78b4"/>
     <use xlink:href="#m4d49091cc9" x="390.137555" y="45.015148" style="fill: #1f78b4; stroke: #1f78b4"/>
     <use xlink:href="#m4d49091cc9" x="325.423964" y="87.18637" style="fill: #1f78b4; stroke: #1f78b4"/>
     <use xlink:href="#m4d49091cc9" x="260.710373" y="130.640356" style="fill: #1f78b4; stroke: #1f78b4"/>
    </g>
   </g>
   <g id="line2d_27">
    <g clip-path="url(#pfb7c30a189)">
     <use xlink:href="#m4d49091cc9" x="368.566358" y="53.678704" style="fill: #1f78b4; stroke: #1f78b4"/>
     <use xlink:href="#m4d49091cc9" x="239.139176" y="144.129846" style="fill: #1f78b4; stroke: #1f78b4"/>
     <use xlink:href="#m4d49091cc9" x="346.995161" y="67.59793" style="fill: #1f78b4; stroke: #1f78b4"/>
     <use xlink:href="#m4d49091cc9" x="411.708752" y="26.4478" style="fill: #1f78b4; stroke: #1f78b4"/>
     <use xlink:href="#m4d49091cc9" x="282.28157" y="111.775231" style="fill: #1f78b4; stroke: #1f78b4"/>
     <use xlink:href="#m4d49091cc9" x="303.852767" y="98.852522" style="fill: #1f78b4; stroke: #1f78b4"/>
     <use xlink:href="#m4d49091cc9" x="390.137555" y="40.736504" style="fill: #1f78b4; stroke: #1f78b4"/>
     <use xlink:href="#m4d49091cc9" x="325.423964" y="83.573895" style="fill: #1f78b4; stroke: #1f78b4"/>
     <use xlink:href="#m4d49091cc9" x="260.710373" y="127.639347" style="fill: #1f78b4; stroke: #1f78b4"/>
    </g>
   </g>
   <g id="line2d_28">
    <defs>
     <path id="me47dd7f9c5" d="M 0 1.5 
C 0.397805 1.5 0.77937 1.341951 1.06066 1.06066 
C 1.341951 0.77937 1.5 0.397805 1.5 0 
C 1.5 -0.397805 1.341951 -0.77937 1.06066 -1.06066 
C 0.77937 -1.341951 0.397805 -1.5 0 -1.5 
C -0.397805 -1.5 -0.77937 -1.341951 -1.06066 -1.06066 
C -1.341951 -0.77937 -1.5 -0.397805 -1.5 0 
C -1.5 0.397805 -1.341951 0.77937 -1.06066 1.06066 
C -0.77937 1.341951 -0.397805 1.5 0 1.5 
z
" style="stroke: #1f78b4"/>
    </defs>
    <g clip-path="url(#pfb7c30a189)">
     <use xlink:href="#me47dd7f9c5" x="368.566358" y="55.754639" style="fill: #1f78b4; stroke: #1f78b4"/>
     <use xlink:href="#me47dd7f9c5" x="239.139176" y="145.920395" style="fill: #1f78b4; stroke: #1f78b4"/>
     <use xlink:href="#me47dd7f9c5" x="346.995161" y="69.48288" style="fill: #1f78b4; stroke: #1f78b4"/>
     <use xlink:href="#me47dd7f9c5" x="411.708752" y="28.800047" style="fill: #1f78b4; stroke: #1f78b4"/>
     <use xlink:href="#me47dd7f9c5" x="282.28157" y="113.45817" style="fill: #1f78b4; stroke: #1f78b4"/>
     <use xlink:href="#me47dd7f9c5" x="303.852767" y="100.531416" style="fill: #1f78b4; stroke: #1f78b4"/>
     <use xlink:href="#me47dd7f9c5" x="390.137555" y="42.875826" style="fill: #1f78b4; stroke: #1f78b4"/>
     <use xlink:href="#me47dd7f9c5" x="325.423964" y="85.380133" style="fill: #1f78b4; stroke: #1f78b4"/>
     <use xlink:href="#me47dd7f9c5" x="260.710373" y="129.139852" style="fill: #1f78b4; stroke: #1f78b4"/>
    </g>
   </g>
   <g id="patch_3">
    <path d="M 28.480625 290.718437 
L 28.480625 12.038437 
" style="fill: none; stroke: #000000; stroke-width: 0.8; stroke-linejoin: miter; stroke-linecap: square"/>
   </g>
   <g id="patch_4">
    <path d="M 421.580625 290.718437 
L 421.580625 12.038437 
" style="fill: none; stroke: #000000; stroke-width: 0.8; stroke-linejoin: miter; stroke-linecap: square"/>
   </g>
   <g id="patch_5">
    <path d="M 28.480625 290.718437 
L 421.580625 290.718437 
" style="fill: none; stroke: #000000; stroke-width: 0.8; stroke-linejoin: miter; stroke-linecap: square"/>
   </g>
   <g id="patch_6">
    <path d="M 28.480625 12.038437 
L 421.580625 12.038437 
" style="fill: none; stroke: #000000; stroke-width: 0.8; stroke-linejoin: miter; stroke-linecap: square"/>
   </g>
   <g id="legend_1">
    <g id="patch_7">
     <path d="M 35.480625 49.394687 
L 181.530625 49.394687 
Q 183.530625 49.394687 183.530625 47.394687 
L 183.530625 19.038437 
Q 183.530625 17.038437 181.530625 17.038437 
L 35.480625 17.038437 
Q 33.480625 17.038437 33.480625 19.038437 
L 33.480625 47.394687 
Q 33.480625 49.394687 35.480625 49.394687 
z
" style="fill: #ffffff; opacity: 0.8; stroke: #cccccc; stroke-linejoin: miter"/>
    </g>
    <g id="line2d_29">
     <path d="M 37.480625 25.136875 
L 47.480625 25.136875 
L 57.480625 25.136875 
" style="fill: none; stroke: #ff0000; stroke-width: 1.5; stroke-linecap: square"/>
    </g>
    <g id="text_15">
     <!-- Absolute Gain Best Fit -->
     <g transform="translate(65.480625 28.636875) scale(0.1 -0.1)">
      <defs>
       <path id="DejaVuSerif-46" d="M 353 0 
L 353 331 
L 947 331 
L 947 4331 
L 353 4331 
L 353 4666 
L 4172 4666 
L 4172 3628 
L 3788 3628 
L 3788 4281 
L 1581 4281 
L 1581 2719 
L 3175 2719 
L 3175 3303 
L 3559 3303 
L 3559 1753 
L 3175 1753 
L 3175 2338 
L 1581 2338 
L 1581 331 
L 2328 331 
L 2328 0 
L 353 0 
z
" transform="scale(0.015625)"/>
      </defs>
      <use xlink:href="#DejaVuSerif-41"/>
      <use xlink:href="#DejaVuSerif-62" x="72.216797"/>
      <use xlink:href="#DejaVuSerif-73" x="136.230469"/>
      <use xlink:href="#DejaVuSerif-6f" x="187.548828"/>
      <use xlink:href="#DejaVuSerif-6c" x="247.753906"/>
      <use xlink:href="#DejaVuSerif-75" x="279.736328"/>
      <use xlink:href="#DejaVuSerif-74" x="344.140625"/>
      <use xlink:href="#DejaVuSerif-65" x="384.326172"/>
      <use xlink:href="#DejaVuSerif-20" x="443.505859"/>
      <use xlink:href="#DejaVuSerif-47" x="475.292969"/>
      <use xlink:href="#DejaVuSerif-61" x="555.175781"/>
      <use xlink:href="#DejaVuSerif-69" x="614.794922"/>
      <use xlink:href="#DejaVuSerif-6e" x="646.777344"/>
      <use xlink:href="#DejaVuSerif-20" x="711.181641"/>
      <use xlink:href="#DejaVuSerif-42" x="742.96875"/>
      <use xlink:href="#DejaVuSerif-65" x="816.455078"/>
      <use xlink:href="#DejaVuSerif-73" x="875.634766"/>
      <use xlink:href="#DejaVuSerif-74" x="926.953125"/>
      <use xlink:href="#DejaVuSerif-20" x="967.138672"/>
      <use xlink:href="#DejaVuSerif-46" x="998.925781"/>
      <use xlink:href="#DejaVuSerif-69" x="1068.310547"/>
      <use xlink:href="#DejaVuSerif-74" x="1100.292969"/>
     </g>
    </g>
    <g id="LineCollection_3">
     <path d="M 42.480625 39.815 
L 52.480625 39.815 
" style="fill: none; stroke: #1f78b4; stroke-width: 1.5"/>
    </g>
    <g id="LineCollection_4">
     <path d="M 47.480625 44.815 
L 47.480625 34.815 
" style="fill: none; stroke: #1f78b4; stroke-width: 1.5"/>
    </g>
    <g id="line2d_30">
     <g>
      <use xlink:href="#m1154c9eb81" x="42.480625" y="39.815" style="fill: #1f78b4; stroke: #1f78b4"/>
     </g>
    </g>
    <g id="line2d_31">
     <g>
      <use xlink:href="#m1154c9eb81" x="52.480625" y="39.815" style="fill: #1f78b4; stroke: #1f78b4"/>
     </g>
    </g>
    <g id="line2d_32">
     <g>
      <use xlink:href="#m4d49091cc9" x="47.480625" y="44.815" style="fill: #1f78b4; stroke: #1f78b4"/>
     </g>
    </g>
    <g id="line2d_33">
     <g>
      <use xlink:href="#m4d49091cc9" x="47.480625" y="34.815" style="fill: #1f78b4; stroke: #1f78b4"/>
     </g>
    </g>
    <g id="line2d_34"/>
    <g id="line2d_35">
     <g>
      <use xlink:href="#me47dd7f9c5" x="47.480625" y="39.815" style="fill: #1f78b4; stroke: #1f78b4"/>
     </g>
    </g>
    <g id="text_16">
     <!-- Absolute Gain values -->
     <g transform="translate(65.480625 43.315) scale(0.1 -0.1)">
      <defs>
       <path id="DejaVuSerif-76" d="M 1581 0 
L 359 2988 
L -19 2988 
L -19 3322 
L 1509 3322 
L 1509 2988 
L 978 2988 
L 1913 703 
L 2847 2988 
L 2350 2988 
L 2350 3322 
L 3597 3322 
L 3597 2988 
L 3225 2988 
L 2003 0 
L 1581 0 
z
" transform="scale(0.015625)"/>
      </defs>
      <use xlink:href="#DejaVuSerif-41"/>
      <use xlink:href="#DejaVuSerif-62" x="72.216797"/>
      <use xlink:href="#DejaVuSerif-73" x="136.230469"/>
      <use xlink:href="#DejaVuSerif-6f" x="187.548828"/>
      <use xlink:href="#DejaVuSerif-6c" x="247.753906"/>
      <use xlink:href="#DejaVuSerif-75" x="279.736328"/>
      <use xlink:href="#DejaVuSerif-74" x="344.140625"/>
      <use xlink:href="#DejaVuSerif-65" x="384.326172"/>
      <use xlink:href="#DejaVuSerif-20" x="443.505859"/>
      <use xlink:href="#DejaVuSerif-47" x="475.292969"/>
      <use xlink:href="#DejaVuSerif-61" x="555.175781"/>
      <use xlink:href="#DejaVuSerif-69" x="614.794922"/>
      <use xlink:href="#DejaVuSerif-6e" x="646.777344"/>
      <use xlink:href="#DejaVuSerif-20" x="711.181641"/>
      <use xlink:href="#DejaVuSerif-76" x="742.96875"/>
      <use xlink:href="#DejaVuSerif-61" x="799.462891"/>
      <use xlink:href="#DejaVuSerif-6c" x="859.082031"/>
      <use xlink:href="#DejaVuSerif-75" x="891.064453"/>
      <use xlink:href="#DejaVuSerif-65" x="955.46875"/>
      <use xlink:href="#DejaVuSerif-73" x="1014.648438"/>
     </g>
    </g>
   </g>
  </g>
  <g id="text_17">
   <g id="patch_8">
    <path d="M 256.565625 271.149937 
L 413.525625 271.149937 
Q 415.925625 271.149937 415.925625 268.749937 
L 415.925625 178.774687 
Q 415.925625 176.374687 413.525625 176.374687 
L 256.565625 176.374687 
Q 254.165625 176.374687 254.165625 178.774687 
L 254.165625 268.749937 
Q 254.165625 271.149937 256.565625 271.149937 
z
" style="fill: #1f77b4; opacity: 0.4; stroke: #000000; stroke-linejoin: miter"/>
   </g>
   <!-- Date: 10/17/2024 16:46:08  -->
   <g transform="translate(256.565625 184.677187) scale(0.08 -0.08)">
    <defs>
     <path id="DejaVuSerif-44" d="M 1581 331 
L 2163 331 
Q 3072 331 3558 850 
Q 4044 1369 4044 2338 
Q 4044 3306 3559 3818 
Q 3075 4331 2163 4331 
L 1581 4331 
L 1581 331 
z
M 353 0 
L 353 331 
L 947 331 
L 947 4331 
L 353 4331 
L 353 4666 
L 2209 4666 
Q 3416 4666 4089 4050 
Q 4763 3434 4763 2338 
Q 4763 1238 4088 619 
Q 3413 0 2209 0 
L 353 0 
z
" transform="scale(0.015625)"/>
     <path id="DejaVuSerif-3a" d="M 666 325 
Q 666 500 786 622 
Q 906 744 1081 744 
Q 1256 744 1376 622 
Q 1497 500 1497 325 
Q 1497 150 1378 29 
Q 1259 -91 1081 -91 
Q 903 -91 784 29 
Q 666 150 666 325 
z
M 666 2363 
Q 666 2538 786 2658 
Q 906 2778 1081 2778 
Q 1259 2778 1378 2659 
Q 1497 2541 1497 2363 
Q 1497 2184 1378 2065 
Q 1259 1947 1081 1947 
Q 906 1947 786 2067 
Q 666 2188 666 2363 
z
" transform="scale(0.015625)"/>
     <path id="DejaVuSerif-2f" d="M 1656 4666 
L 2156 4666 
L 500 -594 
L 0 -594 
L 1656 4666 
z
" transform="scale(0.015625)"/>
     <path id="DejaVuSerif-37" d="M 3609 4347 
L 1784 0 
L 1319 0 
L 3059 4153 
L 903 4153 
L 903 3578 
L 538 3578 
L 538 4666 
L 3609 4666 
L 3609 4347 
z
" transform="scale(0.015625)"/>
    </defs>
    <use xlink:href="#DejaVuSerif-44"/>
    <use xlink:href="#DejaVuSerif-61" x="80.175781"/>
    <use xlink:href="#DejaVuSerif-74" x="139.794922"/>
    <use xlink:href="#DejaVuSerif-65" x="179.980469"/>
    <use xlink:href="#DejaVuSerif-3a" x="239.160156"/>
    <use xlink:href="#DejaVuSerif-20" x="272.851562"/>
    <use xlink:href="#DejaVuSerif-31" x="304.638672"/>
    <use xlink:href="#DejaVuSerif-30" x="368.261719"/>
    <use xlink:href="#DejaVuSerif-2f" x="431.884766"/>
    <use xlink:href="#DejaVuSerif-31" x="465.576172"/>
    <use xlink:href="#DejaVuSerif-37" x="529.199219"/>
    <use xlink:href="#DejaVuSerif-2f" x="592.822266"/>
    <use xlink:href="#DejaVuSerif-32" x="626.513672"/>
    <use xlink:href="#DejaVuSerif-30" x="690.136719"/>
    <use xlink:href="#DejaVuSerif-32" x="753.759766"/>
    <use xlink:href="#DejaVuSerif-34" x="817.382812"/>
    <use xlink:href="#DejaVuSerif-20" x="881.005859"/>
    <use xlink:href="#DejaVuSerif-31" x="912.792969"/>
    <use xlink:href="#DejaVuSerif-36" x="976.416016"/>
    <use xlink:href="#DejaVuSerif-3a" x="1040.039062"/>
    <use xlink:href="#DejaVuSerif-34" x="1073.730469"/>
    <use xlink:href="#DejaVuSerif-36" x="1137.353516"/>
    <use xlink:href="#DejaVuSerif-3a" x="1200.976562"/>
    <use xlink:href="#DejaVuSerif-30" x="1234.667969"/>
    <use xlink:href="#DejaVuSerif-38" x="1298.291016"/>
    <use xlink:href="#DejaVuSerif-20" x="1361.914062"/>
   </g>
   <!-- Condition: LXe -->
   <g transform="translate(256.565625 193.635437) scale(0.08 -0.08)">
    <defs>
     <path id="DejaVuSerif-43" d="M 4513 1234 
Q 4306 581 3820 245 
Q 3334 -91 2591 -91 
Q 2134 -91 1743 65 
Q 1353 222 1050 525 
Q 700 875 529 1320 
Q 359 1766 359 2328 
Q 359 3416 987 4083 
Q 1616 4750 2644 4750 
Q 3025 4750 3456 4650 
Q 3888 4550 4384 4347 
L 4384 3272 
L 4031 3272 
Q 3916 3859 3567 4137 
Q 3219 4416 2591 4416 
Q 1844 4416 1459 3886 
Q 1075 3356 1075 2328 
Q 1075 1303 1459 773 
Q 1844 244 2591 244 
Q 3113 244 3450 492 
Q 3788 741 3938 1234 
L 4513 1234 
z
" transform="scale(0.015625)"/>
     <path id="DejaVuSerif-64" d="M 3359 331 
L 3909 331 
L 3909 0 
L 2784 0 
L 2784 519 
Q 2616 206 2355 57 
Q 2094 -91 1709 -91 
Q 1097 -91 708 395 
Q 319 881 319 1663 
Q 319 2444 706 2928 
Q 1094 3413 1709 3413 
Q 2094 3413 2355 3264 
Q 2616 3116 2784 2803 
L 2784 4531 
L 2241 4531 
L 2241 4863 
L 3359 4863 
L 3359 331 
z
M 2784 1497 
L 2784 1825 
Q 2784 2422 2554 2737 
Q 2325 3053 1888 3053 
Q 1444 3053 1217 2703 
Q 991 2353 991 1663 
Q 991 975 1217 622 
Q 1444 269 1888 269 
Q 2325 269 2554 583 
Q 2784 897 2784 1497 
z
" transform="scale(0.015625)"/>
     <path id="DejaVuSerif-4c" d="M 353 0 
L 353 331 
L 947 331 
L 947 4331 
L 353 4331 
L 353 4666 
L 2175 4666 
L 2175 4331 
L 1581 4331 
L 1581 384 
L 3713 384 
L 3713 1166 
L 4097 1166 
L 4097 0 
L 353 0 
z
" transform="scale(0.015625)"/>
     <path id="DejaVuSerif-58" d="M 2119 1997 
L 978 331 
L 1581 331 
L 1581 0 
L 38 0 
L 38 331 
L 575 331 
L 1919 2291 
L 556 4331 
L 56 4331 
L 56 4666 
L 1906 4666 
L 1906 4331 
L 1356 4331 
L 2356 2828 
L 3384 4331 
L 2784 4331 
L 2784 4666 
L 4313 4666 
L 4313 4331 
L 3788 4331 
L 2553 2534 
L 4025 331 
L 4525 331 
L 4525 0 
L 2675 0 
L 2675 331 
L 3231 331 
L 2119 1997 
z
" transform="scale(0.015625)"/>
    </defs>
    <use xlink:href="#DejaVuSerif-43"/>
    <use xlink:href="#DejaVuSerif-6f" x="76.513672"/>
    <use xlink:href="#DejaVuSerif-6e" x="136.71875"/>
    <use xlink:href="#DejaVuSerif-64" x="201.123047"/>
    <use xlink:href="#DejaVuSerif-69" x="265.136719"/>
    <use xlink:href="#DejaVuSerif-74" x="297.119141"/>
    <use xlink:href="#DejaVuSerif-69" x="337.304688"/>
    <use xlink:href="#DejaVuSerif-6f" x="369.287109"/>
    <use xlink:href="#DejaVuSerif-6e" x="429.492188"/>
    <use xlink:href="#DejaVuSerif-3a" x="493.896484"/>
    <use xlink:href="#DejaVuSerif-20" x="527.587891"/>
    <use xlink:href="#DejaVuSerif-4c" x="559.375"/>
    <use xlink:href="#DejaVuSerif-58" x="625.78125"/>
    <use xlink:href="#DejaVuSerif-65" x="696.972656"/>
   </g>
   <!-- RTD4: 169.6 [K] -->
   <g transform="translate(256.565625 202.593687) scale(0.08 -0.08)">
    <defs>
     <path id="DejaVuSerif-52" d="M 3066 2316 
Q 3284 2256 3442 2114 
Q 3600 1972 3725 1716 
L 4403 331 
L 4972 331 
L 4972 0 
L 3872 0 
L 3144 1484 
Q 2934 1916 2759 2042 
Q 2584 2169 2278 2169 
L 1581 2169 
L 1581 331 
L 2241 331 
L 2241 0 
L 353 0 
L 353 331 
L 947 331 
L 947 4331 
L 353 4331 
L 353 4666 
L 2719 4666 
Q 3400 4666 3770 4341 
Q 4141 4016 4141 3419 
Q 4141 2938 3870 2661 
Q 3600 2384 3066 2316 
z
M 1581 2503 
L 2503 2503 
Q 2975 2503 3200 2726 
Q 3425 2950 3425 3419 
Q 3425 3888 3200 4109 
Q 2975 4331 2503 4331 
L 1581 4331 
L 1581 2503 
z
" transform="scale(0.015625)"/>
     <path id="DejaVuSerif-54" d="M 1222 0 
L 1222 331 
L 1819 331 
L 1819 4294 
L 447 4294 
L 447 3566 
L 63 3566 
L 63 4666 
L 4206 4666 
L 4206 3566 
L 3822 3566 
L 3822 4294 
L 2450 4294 
L 2450 331 
L 3047 331 
L 3047 0 
L 1222 0 
z
" transform="scale(0.015625)"/>
     <path id="DejaVuSerif-39" d="M 2994 2091 
Q 2784 1856 2512 1740 
Q 2241 1625 1900 1625 
Q 1206 1625 804 2044 
Q 403 2463 403 3188 
Q 403 3897 839 4323 
Q 1275 4750 2003 4750 
Q 2794 4750 3217 4161 
Q 3641 3572 3641 2478 
Q 3641 1253 3137 581 
Q 2634 -91 1722 -91 
Q 1475 -91 1203 -44 
Q 931 3 647 97 
L 647 872 
L 997 872 
Q 1038 556 1241 387 
Q 1444 219 1784 219 
Q 2391 219 2687 676 
Q 2984 1134 2994 2091 
z
M 1978 4441 
Q 1534 4441 1298 4117 
Q 1063 3794 1063 3188 
Q 1063 2581 1298 2256 
Q 1534 1931 1978 1931 
Q 2422 1931 2658 2245 
Q 2894 2559 2894 3150 
Q 2894 3772 2656 4106 
Q 2419 4441 1978 4441 
z
" transform="scale(0.015625)"/>
     <path id="DejaVuSerif-2e" d="M 603 325 
Q 603 500 722 622 
Q 841 744 1019 744 
Q 1191 744 1312 622 
Q 1434 500 1434 325 
Q 1434 153 1312 31 
Q 1191 -91 1019 -91 
Q 841 -91 722 29 
Q 603 150 603 325 
z
" transform="scale(0.015625)"/>
     <path id="DejaVuSerif-4b" d="M 353 0 
L 353 331 
L 947 331 
L 947 4331 
L 353 4331 
L 353 4666 
L 2175 4666 
L 2175 4331 
L 1581 4331 
L 1581 2566 
L 3591 4331 
L 3084 4331 
L 3084 4666 
L 4634 4666 
L 4634 4331 
L 4109 4331 
L 2106 2572 
L 4347 331 
L 4878 331 
L 4878 0 
L 3794 0 
L 1581 2216 
L 1581 331 
L 2175 331 
L 2175 0 
L 353 0 
z
" transform="scale(0.015625)"/>
    </defs>
    <use xlink:href="#DejaVuSerif-52"/>
    <use xlink:href="#DejaVuSerif-54" x="73.542969"/>
    <use xlink:href="#DejaVuSerif-44" x="140.242188"/>
    <use xlink:href="#DejaVuSerif-34" x="220.417969"/>
    <use xlink:href="#DejaVuSerif-3a" x="284.041016"/>
    <use xlink:href="#DejaVuSerif-20" x="317.732422"/>
    <use xlink:href="#DejaVuSerif-31" x="349.519531"/>
    <use xlink:href="#DejaVuSerif-36" x="413.142578"/>
    <use xlink:href="#DejaVuSerif-39" x="476.765625"/>
    <use xlink:href="#DejaVuSerif-2e" x="540.388672"/>
    <use xlink:href="#DejaVuSerif-36" x="572.175781"/>
    <use xlink:href="#DejaVuSerif-20" x="635.798828"/>
    <use xlink:href="#DejaVuSerif-5b" x="667.585938"/>
    <use xlink:href="#DejaVuSerif-4b" x="706.599609"/>
    <use xlink:href="#DejaVuSerif-5d" x="781.306641"/>
   </g>
   <!-- Filtering: Lowpass, 400kHz -->
   <g transform="translate(256.565625 211.551937) scale(0.08 -0.08)">
    <defs>
     <path id="DejaVuSerif-72" d="M 3059 3328 
L 3059 2497 
L 2728 2497 
Q 2713 2744 2591 2866 
Q 2469 2988 2234 2988 
Q 1809 2988 1582 2694 
Q 1356 2400 1356 1850 
L 1356 331 
L 2022 331 
L 2022 0 
L 263 0 
L 263 331 
L 781 331 
L 781 2994 
L 231 2994 
L 231 3322 
L 1356 3322 
L 1356 2731 
Q 1525 3078 1790 3245 
Q 2056 3413 2438 3413 
Q 2578 3413 2733 3391 
Q 2888 3369 3059 3328 
z
" transform="scale(0.015625)"/>
     <path id="DejaVuSerif-77" d="M 3072 3322 
L 3922 728 
L 4672 2988 
L 4191 2988 
L 4191 3322 
L 5394 3322 
L 5394 2988 
L 5025 2988 
L 4038 0 
L 3559 0 
L 2741 2484 
L 1919 0 
L 1459 0 
L 475 2988 
L 103 2988 
L 103 3322 
L 1606 3322 
L 1606 2988 
L 1069 2988 
L 1813 728 
L 2669 3322 
L 3072 3322 
z
" transform="scale(0.015625)"/>
     <path id="DejaVuSerif-70" d="M 1313 1825 
L 1313 1497 
Q 1313 897 1542 583 
Q 1772 269 2209 269 
Q 2650 269 2876 622 
Q 3103 975 3103 1663 
Q 3103 2353 2876 2703 
Q 2650 3053 2209 3053 
Q 1772 3053 1542 2737 
Q 1313 2422 1313 1825 
z
M 738 2988 
L 184 2988 
L 184 3322 
L 1313 3322 
L 1313 2803 
Q 1481 3116 1742 3264 
Q 2003 3413 2388 3413 
Q 3000 3413 3387 2928 
Q 3775 2444 3775 1663 
Q 3775 881 3387 395 
Q 3000 -91 2388 -91 
Q 2003 -91 1742 57 
Q 1481 206 1313 519 
L 1313 -997 
L 1856 -997 
L 1856 -1331 
L 184 -1331 
L 184 -997 
L 738 -997 
L 738 2988 
z
" transform="scale(0.015625)"/>
     <path id="DejaVuSerif-2c" d="M 231 -622 
Q 525 -406 662 -114 
Q 800 178 800 594 
L 800 709 
L 1416 709 
Q 1391 175 1164 -208 
Q 938 -591 481 -872 
L 231 -622 
z
" transform="scale(0.015625)"/>
     <path id="DejaVuSerif-6b" d="M 1831 0 
L 219 0 
L 219 331 
L 738 331 
L 738 4531 
L 184 4531 
L 184 4863 
L 1313 4863 
L 1313 1697 
L 2713 2988 
L 2234 2988 
L 2234 3322 
L 3738 3322 
L 3738 2988 
L 3169 2988 
L 2181 2075 
L 3444 331 
L 3922 331 
L 3922 0 
L 2284 0 
L 2284 331 
L 2759 331 
L 1766 1697 
L 1313 1275 
L 1313 331 
L 1831 331 
L 1831 0 
z
" transform="scale(0.015625)"/>
     <path id="DejaVuSerif-48" d="M 353 0 
L 353 331 
L 947 331 
L 947 4331 
L 353 4331 
L 353 4666 
L 2175 4666 
L 2175 4331 
L 1581 4331 
L 1581 2719 
L 4000 2719 
L 4000 4331 
L 3406 4331 
L 3406 4666 
L 5228 4666 
L 5228 4331 
L 4634 4331 
L 4634 331 
L 5228 331 
L 5228 0 
L 3406 0 
L 3406 331 
L 4000 331 
L 4000 2338 
L 1581 2338 
L 1581 331 
L 2175 331 
L 2175 0 
L 353 0 
z
" transform="scale(0.015625)"/>
     <path id="DejaVuSerif-7a" d="M 256 0 
L 256 269 
L 2338 2988 
L 691 2988 
L 691 2413 
L 359 2413 
L 359 3322 
L 3078 3322 
L 3078 3053 
L 997 331 
L 2803 331 
L 2803 934 
L 3138 934 
L 3138 0 
L 256 0 
z
" transform="scale(0.015625)"/>
    </defs>
    <use xlink:href="#DejaVuSerif-46"/>
    <use xlink:href="#DejaVuSerif-69" x="69.384766"/>
    <use xlink:href="#DejaVuSerif-6c" x="101.367188"/>
    <use xlink:href="#DejaVuSerif-74" x="133.349609"/>
    <use xlink:href="#DejaVuSerif-65" x="173.535156"/>
    <use xlink:href="#DejaVuSerif-72" x="232.714844"/>
    <use xlink:href="#DejaVuSerif-69" x="280.517578"/>
    <use xlink:href="#DejaVuSerif-6e" x="312.5"/>
    <use xlink:href="#DejaVuSerif-67" x="376.904297"/>
    <use xlink:href="#DejaVuSerif-3a" x="440.917969"/>
    <use xlink:href="#DejaVuSerif-20" x="474.609375"/>
    <use xlink:href="#DejaVuSerif-4c" x="506.396484"/>
    <use xlink:href="#DejaVuSerif-6f" x="572.802734"/>
    <use xlink:href="#DejaVuSerif-77" x="633.007812"/>
    <use xlink:href="#DejaVuSerif-70" x="718.603516"/>
    <use xlink:href="#DejaVuSerif-61" x="782.617188"/>
    <use xlink:href="#DejaVuSerif-73" x="842.236328"/>
    <use xlink:href="#DejaVuSerif-73" x="893.554688"/>
    <use xlink:href="#DejaVuSerif-2c" x="944.873047"/>
    <use xlink:href="#DejaVuSerif-20" x="976.660156"/>
    <use xlink:href="#DejaVuSerif-34" x="1008.447266"/>
    <use xlink:href="#DejaVuSerif-30" x="1072.070312"/>
    <use xlink:href="#DejaVuSerif-30" x="1135.693359"/>
    <use xlink:href="#DejaVuSerif-6b" x="1199.316406"/>
    <use xlink:href="#DejaVuSerif-48" x="1259.912109"/>
    <use xlink:href="#DejaVuSerif-7a" x="1347.119141"/>
   </g>
   <!-- - - -->
   <g transform="translate(256.565625 220.623937) scale(0.08 -0.08)">
    <defs>
     <path id="DejaVuSerif-2d" d="M 281 1959 
L 1881 1959 
L 1881 1472 
L 281 1472 
L 281 1959 
z
" transform="scale(0.015625)"/>
    </defs>
    <use xlink:href="#DejaVuSerif-2d"/>
    <use xlink:href="#DejaVuSerif-2d" x="33.789062"/>
   </g>
   <!-- Slope: 5.806e+05 $\pm$ 6.9e+03 [1/V] -->
   <g transform="translate(256.565625 229.583687) scale(0.08 -0.08)">
    <defs>
     <path id="DejaVuSerif-53" d="M 594 225 
L 594 1288 
L 953 1284 
Q 969 753 1261 498 
Q 1553 244 2150 244 
Q 2706 244 2998 464 
Q 3291 684 3291 1106 
Q 3291 1444 3114 1625 
Q 2938 1806 2369 1978 
L 1753 2163 
Q 1084 2366 811 2669 
Q 538 2972 538 3500 
Q 538 4094 959 4422 
Q 1381 4750 2144 4750 
Q 2469 4750 2856 4679 
Q 3244 4609 3681 4475 
L 3681 3481 
L 3328 3481 
Q 3275 3975 2998 4195 
Q 2722 4416 2156 4416 
Q 1663 4416 1405 4214 
Q 1147 4013 1147 3628 
Q 1147 3294 1340 3103 
Q 1534 2913 2163 2725 
L 2741 2553 
Q 3375 2363 3645 2067 
Q 3916 1772 3916 1275 
Q 3916 597 3481 253 
Q 3047 -91 2188 -91 
Q 1803 -91 1404 -12 
Q 1006 66 594 225 
z
" transform="scale(0.015625)"/>
     <path id="DejaVuSerif-2b" d="M 2931 4013 
L 2931 2259 
L 4684 2259 
L 4684 1753 
L 2931 1753 
L 2931 0 
L 2431 0 
L 2431 1753 
L 678 1753 
L 678 2259 
L 2431 2259 
L 2431 4013 
L 2931 4013 
z
" transform="scale(0.015625)"/>
     <path id="DejaVuSans-b1" d="M 2944 4013 
L 2944 2803 
L 4684 2803 
L 4684 2272 
L 2944 2272 
L 2944 1063 
L 2419 1063 
L 2419 2272 
L 678 2272 
L 678 2803 
L 2419 2803 
L 2419 4013 
L 2944 4013 
z
M 678 531 
L 4684 531 
L 4684 0 
L 678 0 
L 678 531 
z
" transform="scale(0.015625)"/>
    </defs>
    <use xlink:href="#DejaVuSerif-53" transform="translate(0 0.015625)"/>
    <use xlink:href="#DejaVuSerif-6c" transform="translate(68.505859 0.015625)"/>
    <use xlink:href="#DejaVuSerif-6f" transform="translate(100.488281 0.015625)"/>
    <use xlink:href="#DejaVuSerif-70" transform="translate(160.693359 0.015625)"/>
    <use xlink:href="#DejaVuSerif-65" transform="translate(224.707031 0.015625)"/>
    <use xlink:href="#DejaVuSerif-3a" transform="translate(283.886719 0.015625)"/>
    <use xlink:href="#DejaVuSerif-20" transform="translate(317.578125 0.015625)"/>
    <use xlink:href="#DejaVuSerif-35" transform="translate(349.365234 0.015625)"/>
    <use xlink:href="#DejaVuSerif-2e" transform="translate(412.988281 0.015625)"/>
    <use xlink:href="#DejaVuSerif-38" transform="translate(441.150391 0.015625)"/>
    <use xlink:href="#DejaVuSerif-30" transform="translate(504.773438 0.015625)"/>
    <use xlink:href="#DejaVuSerif-36" transform="translate(568.396484 0.015625)"/>
    <use xlink:href="#DejaVuSerif-65" transform="translate(632.019531 0.015625)"/>
    <use xlink:href="#DejaVuSerif-2b" transform="translate(691.199219 0.015625)"/>
    <use xlink:href="#DejaVuSerif-30" transform="translate(774.988281 0.015625)"/>
    <use xlink:href="#DejaVuSerif-35" transform="translate(838.611328 0.015625)"/>
    <use xlink:href="#DejaVuSerif-20" transform="translate(902.234375 0.015625)"/>
    <use xlink:href="#DejaVuSans-b1" transform="translate(934.021484 0.015625)"/>
    <use xlink:href="#DejaVuSerif-20" transform="translate(1017.810547 0.015625)"/>
    <use xlink:href="#DejaVuSerif-36" transform="translate(1049.597656 0.015625)"/>
    <use xlink:href="#DejaVuSerif-2e" transform="translate(1113.220703 0.015625)"/>
    <use xlink:href="#DejaVuSerif-39" transform="translate(1145.007812 0.015625)"/>
    <use xlink:href="#DejaVuSerif-65" transform="translate(1208.630859 0.015625)"/>
    <use xlink:href="#DejaVuSerif-2b" transform="translate(1267.810547 0.015625)"/>
    <use xlink:href="#DejaVuSerif-30" transform="translate(1351.599609 0.015625)"/>
    <use xlink:href="#DejaVuSerif-33" transform="translate(1415.222656 0.015625)"/>
    <use xlink:href="#DejaVuSerif-20" transform="translate(1478.845703 0.015625)"/>
    <use xlink:href="#DejaVuSerif-5b" transform="translate(1510.632812 0.015625)"/>
    <use xlink:href="#DejaVuSerif-31" transform="translate(1549.646484 0.015625)"/>
    <use xlink:href="#DejaVuSerif-2f" transform="translate(1613.269531 0.015625)"/>
    <use xlink:href="#DejaVuSerif-56" transform="translate(1646.960938 0.015625)"/>
    <use xlink:href="#DejaVuSerif-5d" transform="translate(1719.177734 0.015625)"/>
   </g>
   <!-- Intercept: -1.576e+07 $\pm$ 2.3e+05 [V] -->
   <g transform="translate(256.565625 238.559687) scale(0.08 -0.08)">
    <defs>
     <path id="DejaVuSerif-49" d="M 1581 331 
L 2175 331 
L 2175 0 
L 353 0 
L 353 331 
L 947 331 
L 947 4331 
L 353 4331 
L 353 4666 
L 2175 4666 
L 2175 4331 
L 1581 4331 
L 1581 331 
z
" transform="scale(0.015625)"/>
     <path id="DejaVuSerif-63" d="M 3291 997 
Q 3169 466 2822 187 
Q 2475 -91 1925 -91 
Q 1200 -91 759 389 
Q 319 869 319 1663 
Q 319 2459 759 2936 
Q 1200 3413 1925 3413 
Q 2241 3413 2553 3339 
Q 2866 3266 3181 3116 
L 3181 2266 
L 2847 2266 
Q 2781 2703 2561 2903 
Q 2341 3103 1931 3103 
Q 1466 3103 1228 2742 
Q 991 2381 991 1663 
Q 991 944 1227 581 
Q 1463 219 1931 219 
Q 2303 219 2525 412 
Q 2747 606 2828 997 
L 3291 997 
z
" transform="scale(0.015625)"/>
    </defs>
    <use xlink:href="#DejaVuSerif-49" transform="translate(0 0.015625)"/>
    <use xlink:href="#DejaVuSerif-6e" transform="translate(39.501953 0.015625)"/>
    <use xlink:href="#DejaVuSerif-74" transform="translate(103.90625 0.015625)"/>
    <use xlink:href="#DejaVuSerif-65" transform="translate(144.091797 0.015625)"/>
    <use xlink:href="#DejaVuSerif-72" transform="translate(203.271484 0.015625)"/>
    <use xlink:href="#DejaVuSerif-63" transform="translate(251.074219 0.015625)"/>
    <use xlink:href="#DejaVuSerif-65" transform="translate(307.080078 0.015625)"/>
    <use xlink:href="#DejaVuSerif-70" transform="translate(366.259766 0.015625)"/>
    <use xlink:href="#DejaVuSerif-74" transform="translate(430.273438 0.015625)"/>
    <use xlink:href="#DejaVuSerif-3a" transform="translate(470.458984 0.015625)"/>
    <use xlink:href="#DejaVuSerif-20" transform="translate(504.150391 0.015625)"/>
    <use xlink:href="#DejaVuSerif-2d" transform="translate(535.9375 0.015625)"/>
    <use xlink:href="#DejaVuSerif-31" transform="translate(569.726562 0.015625)"/>
    <use xlink:href="#DejaVuSerif-2e" transform="translate(633.349609 0.015625)"/>
    <use xlink:href="#DejaVuSerif-35" transform="translate(665.136719 0.015625)"/>
    <use xlink:href="#DejaVuSerif-37" transform="translate(727.009766 0.015625)"/>
    <use xlink:href="#DejaVuSerif-36" transform="translate(790.632812 0.015625)"/>
    <use xlink:href="#DejaVuSerif-65" transform="translate(854.255859 0.015625)"/>
    <use xlink:href="#DejaVuSerif-2b" transform="translate(913.435547 0.015625)"/>
    <use xlink:href="#DejaVuSerif-30" transform="translate(997.224609 0.015625)"/>
    <use xlink:href="#DejaVuSerif-37" transform="translate(1060.847656 0.015625)"/>
    <use xlink:href="#DejaVuSerif-20" transform="translate(1124.470703 0.015625)"/>
    <use xlink:href="#DejaVuSans-b1" transform="translate(1156.257812 0.015625)"/>
    <use xlink:href="#DejaVuSerif-20" transform="translate(1240.046875 0.015625)"/>
    <use xlink:href="#DejaVuSerif-32" transform="translate(1271.833984 0.015625)"/>
    <use xlink:href="#DejaVuSerif-2e" transform="translate(1335.457031 0.015625)"/>
    <use xlink:href="#DejaVuSerif-33" transform="translate(1367.244141 0.015625)"/>
    <use xlink:href="#DejaVuSerif-65" transform="translate(1430.867188 0.015625)"/>
    <use xlink:href="#DejaVuSerif-2b" transform="translate(1490.046875 0.015625)"/>
    <use xlink:href="#DejaVuSerif-30" transform="translate(1573.835938 0.015625)"/>
    <use xlink:href="#DejaVuSerif-35" transform="translate(1637.458984 0.015625)"/>
    <use xlink:href="#DejaVuSerif-20" transform="translate(1701.082031 0.015625)"/>
    <use xlink:href="#DejaVuSerif-5b" transform="translate(1732.869141 0.015625)"/>
    <use xlink:href="#DejaVuSerif-56" transform="translate(1771.882812 0.015625)"/>
    <use xlink:href="#DejaVuSerif-5d" transform="translate(1844.099609 0.015625)"/>
   </g>
   <!-- Reduced $\chi^2$: 0.4756 -->
   <g transform="translate(256.565625 248.975687) scale(0.08 -0.08)">
    <defs>
     <path id="DejaVuSans-Oblique-3c7" d="M 1922 -781 
L 1691 416 
L 394 -1334 
L -284 -1334 
L 1553 1141 
L 1269 2613 
Q 1194 3006 713 3006 
L 559 3006 
L 653 3500 
L 872 3494 
Q 1675 3472 1775 2950 
L 2006 1753 
L 3303 3503 
L 3981 3503 
L 2144 1028 
L 2428 -444 
Q 2503 -838 2984 -838 
L 3138 -838 
L 3044 -1331 
L 2825 -1325 
Q 2022 -1303 1922 -781 
z
" transform="scale(0.015625)"/>
     <path id="DejaVuSans-32" d="M 1228 531 
L 3431 531 
L 3431 0 
L 469 0 
L 469 531 
Q 828 903 1448 1529 
Q 2069 2156 2228 2338 
Q 2531 2678 2651 2914 
Q 2772 3150 2772 3378 
Q 2772 3750 2511 3984 
Q 2250 4219 1831 4219 
Q 1534 4219 1204 4116 
Q 875 4013 500 3803 
L 500 4441 
Q 881 4594 1212 4672 
Q 1544 4750 1819 4750 
Q 2544 4750 2975 4387 
Q 3406 4025 3406 3419 
Q 3406 3131 3298 2873 
Q 3191 2616 2906 2266 
Q 2828 2175 2409 1742 
Q 1991 1309 1228 531 
z
" transform="scale(0.015625)"/>
    </defs>
    <use xlink:href="#DejaVuSerif-52" transform="translate(0 0.765625)"/>
    <use xlink:href="#DejaVuSerif-65" transform="translate(75.292969 0.765625)"/>
    <use xlink:href="#DejaVuSerif-64" transform="translate(134.472656 0.765625)"/>
    <use xlink:href="#DejaVuSerif-75" transform="translate(198.486328 0.765625)"/>
    <use xlink:href="#DejaVuSerif-63" transform="translate(262.890625 0.765625)"/>
    <use xlink:href="#DejaVuSerif-65" transform="translate(318.896484 0.765625)"/>
    <use xlink:href="#DejaVuSerif-64" transform="translate(378.076172 0.765625)"/>
    <use xlink:href="#DejaVuSerif-20" transform="translate(442.089844 0.765625)"/>
    <use xlink:href="#DejaVuSans-Oblique-3c7" transform="translate(473.876953 0.765625)"/>
    <use xlink:href="#DejaVuSans-32" transform="translate(537.529349 39.046875) scale(0.7)"/>
    <use xlink:href="#DejaVuSerif-3a" transform="translate(584.799857 0.765625)"/>
    <use xlink:href="#DejaVuSerif-20" transform="translate(618.491263 0.765625)"/>
    <use xlink:href="#DejaVuSerif-30" transform="translate(650.278372 0.765625)"/>
    <use xlink:href="#DejaVuSerif-2e" transform="translate(713.901419 0.765625)"/>
    <use xlink:href="#DejaVuSerif-34" transform="translate(745.688529 0.765625)"/>
    <use xlink:href="#DejaVuSerif-37" transform="translate(809.311576 0.765625)"/>
    <use xlink:href="#DejaVuSerif-35" transform="translate(872.934622 0.765625)"/>
    <use xlink:href="#DejaVuSerif-36" transform="translate(936.557669 0.765625)"/>
   </g>
   <!-- - - -->
   <g transform="translate(256.565625 257.950187) scale(0.08 -0.08)">
    <use xlink:href="#DejaVuSerif-2d"/>
    <use xlink:href="#DejaVuSerif-2d" x="33.789062"/>
   </g>
   <!-- Breakdown Voltage: 27.08 $\pm$ 0.096 [V] -->
   <g transform="translate(256.565625 266.909937) scale(0.08 -0.08)">
    <use xlink:href="#DejaVuSerif-42" transform="translate(0 0.015625)"/>
    <use xlink:href="#DejaVuSerif-72" transform="translate(73.486328 0.015625)"/>
    <use xlink:href="#DejaVuSerif-65" transform="translate(121.289062 0.015625)"/>
    <use xlink:href="#DejaVuSerif-61" transform="translate(180.46875 0.015625)"/>
    <use xlink:href="#DejaVuSerif-6b" transform="translate(240.087891 0.015625)"/>
    <use xlink:href="#DejaVuSerif-64" transform="translate(300.683594 0.015625)"/>
    <use xlink:href="#DejaVuSerif-6f" transform="translate(364.697266 0.015625)"/>
    <use xlink:href="#DejaVuSerif-77" transform="translate(424.902344 0.015625)"/>
    <use xlink:href="#DejaVuSerif-6e" transform="translate(510.498047 0.015625)"/>
    <use xlink:href="#DejaVuSerif-20" transform="translate(574.902344 0.015625)"/>
    <use xlink:href="#DejaVuSerif-56" transform="translate(606.689453 0.015625)"/>
    <use xlink:href="#DejaVuSerif-6f" transform="translate(678.90625 0.015625)"/>
    <use xlink:href="#DejaVuSerif-6c" transform="translate(739.111328 0.015625)"/>
    <use xlink:href="#DejaVuSerif-74" transform="translate(771.09375 0.015625)"/>
    <use xlink:href="#DejaVuSerif-61" transform="translate(811.279297 0.015625)"/>
    <use xlink:href="#DejaVuSerif-67" transform="translate(870.898438 0.015625)"/>
    <use xlink:href="#DejaVuSerif-65" transform="translate(934.912109 0.015625)"/>
    <use xlink:href="#DejaVuSerif-3a" transform="translate(994.091797 0.015625)"/>
    <use xlink:href="#DejaVuSerif-20" transform="translate(1027.783203 0.015625)"/>
    <use xlink:href="#DejaVuSerif-32" transform="translate(1059.570312 0.015625)"/>
    <use xlink:href="#DejaVuSerif-37" transform="translate(1123.193359 0.015625)"/>
    <use xlink:href="#DejaVuSerif-2e" transform="translate(1186.816406 0.015625)"/>
    <use xlink:href="#DejaVuSerif-30" transform="translate(1218.603516 0.015625)"/>
    <use xlink:href="#DejaVuSerif-38" transform="translate(1282.226562 0.015625)"/>
    <use xlink:href="#DejaVuSerif-20" transform="translate(1345.849609 0.015625)"/>
    <use xlink:href="#DejaVuSans-b1" transform="translate(1377.636719 0.015625)"/>
    <use xlink:href="#DejaVuSerif-20" transform="translate(1461.425781 0.015625)"/>
    <use xlink:href="#DejaVuSerif-30" transform="translate(1493.212891 0.015625)"/>
    <use xlink:href="#DejaVuSerif-2e" transform="translate(1556.835938 0.015625)"/>
    <use xlink:href="#DejaVuSerif-30" transform="translate(1588.623047 0.015625)"/>
    <use xlink:href="#DejaVuSerif-39" transform="translate(1652.246094 0.015625)"/>
    <use xlink:href="#DejaVuSerif-36" transform="translate(1715.869141 0.015625)"/>
    <use xlink:href="#DejaVuSerif-20" transform="translate(1779.492188 0.015625)"/>
    <use xlink:href="#DejaVuSerif-5b" transform="translate(1811.279297 0.015625)"/>
    <use xlink:href="#DejaVuSerif-56" transform="translate(1850.292969 0.015625)"/>
    <use xlink:href="#DejaVuSerif-5d" transform="translate(1922.509766 0.015625)"/>
   </g>
  </g>
 </g>
 <defs>
  <clipPath id="pfb7c30a189">
   <rect x="28.480625" y="12.038437" width="393.1" height="278.68"/>
  </clipPath>
 </defs>
</svg>
